<svg id="Group_48" data-name="Group 48" xmlns="http://www.w3.org/2000/svg" xmlns:xlink="http://www.w3.org/1999/xlink" width="41.078" height="56.734" viewBox="0 0 41.078 56.734">
  <defs>
    <clipPath id="clip-path">
      <rect id="Rectangle_60" data-name="Rectangle 60" width="41.078" height="56.734" fill="#1aa9a0"/>
    </clipPath>
  </defs>
  <g id="Group_47" data-name="Group 47" clip-path="url(#clip-path)">
    <path id="Path_47" data-name="Path 47" d="M46.418,273.054c-1.211-.227-2.44-.383-3.629-.694a24.075,24.075,0,0,1-8.084-4.008,35.021,35.021,0,0,1-10.293-11.719c-.7-1.292-1.232-2.676-1.813-4.029-.3-.7-.151-1.178.351-1.366.519-.195.932.051,1.185.761a28.53,28.53,0,0,0,3.57,6.848,31.956,31.956,0,0,0,11.9,10.533,16.455,16.455,0,0,0,8.473,1.986,13.078,13.078,0,0,0,7.453-2.458,7.926,7.926,0,0,0,2.751-4.309c.23-.84.574-1.148,1.116-1.005.571.15.717.6.478,1.46-1.066,3.848-3.7,6.109-7.418,7.2-1.126.331-2.307.473-3.462.706a1.667,1.667,0,0,0-.251.093Z" transform="translate(-19.33 -216.32)" fill="#1aa9a0"/>
    <path id="Path_48" data-name="Path 48" d="M17.653,5.046c0-.7-.014-1.4,0-2.1A2.92,2.92,0,0,1,20.447,0a2.877,2.877,0,0,1,3.008,2.7c.07.748.012,1.507.012,2.261l.163.026c.2-.672.409-1.343.6-2.017A3.015,3.015,0,0,1,26.724.607,2.889,2.889,0,0,1,30,3.959c-.24,1.1-.592,2.169-.931,3.24a.532.532,0,0,0,.213.7,2.265,2.265,0,0,1,.627.539c.654,1.029,1.556.926,2.588.747A10.688,10.688,0,0,1,35.725,9a3.963,3.963,0,0,1,3.328,3.7,4.169,4.169,0,0,1-2.779,4.214c-.118.042-.234.09-.343.133.545.764,1.119,1.48,1.6,2.255A11.811,11.811,0,0,1,39.3,26.113a46.809,46.809,0,0,0,.917,10.177,42.113,42.113,0,0,1,.85,8.745,1.413,1.413,0,0,1-.226.767.773.773,0,0,1-1.318-.192,1.437,1.437,0,0,1-.1-.593,42.525,42.525,0,0,0-.848-8.525,50.612,50.612,0,0,1-.935-10.286,10.412,10.412,0,0,0-3.593-8.538.817.817,0,0,0-.844-.228c-1.308.382-2.62.75-3.929,1.129a3.162,3.162,0,0,0-.417.192c.541.574,1.079,1.107,1.573,1.676a18.139,18.139,0,0,1,4.045,7.779,1.6,1.6,0,0,0,.5.732c.558.507,1.18.947,1.727,1.466a.811.811,0,0,1,.057,1.267c-.358.334-.754.3-1.224-.12-.19-.169-.378-.341-.687-.62,0,.824.019,1.514-.006,2.2a.834.834,0,0,1-.84.907c-.486,0-.8-.353-.814-.919-.031-1.032,0-2.072-.111-3.1-.111-.98-.381-1.941-.6-3-.654.753-1.21,1.4-1.781,2.042a6.234,6.234,0,0,1-.719.689.817.817,0,0,1-1.124-1.187c.447-.491.954-.931,1.369-1.447a17.1,17.1,0,0,0,1.1-1.649.791.791,0,0,0-.029-.928c-.685-1.017-1.357-2.043-2.069-3.12a18.55,18.55,0,0,1-.027,2.931,4.012,4.012,0,0,1-3.936,3.193,4.2,4.2,0,0,1-4.043-3.03c-.171-.659-.268-1.338-.433-2a4.294,4.294,0,0,0-3.988-3.563c-.33-.035-.66-.08-.99-.118a2.5,2.5,0,0,0-.287.017c-.239,1.058-.507,2.142-.728,3.235a4.134,4.134,0,0,1-6,2.982A4.185,4.185,0,0,1,6.63,20.615a4,4,0,0,0,.077-.747,13.387,13.387,0,0,0-2.332,4.78A18.29,18.29,0,0,0,4.007,32.6a4.092,4.092,0,0,1,.054.606.738.738,0,0,1-.658.822.739.739,0,0,1-.922-.592,13.359,13.359,0,0,1-.3-1.8A18.921,18.921,0,0,1,4.591,19.969c.262-.438.558-.856.887-1.358-.488,0-.9.007-1.317,0A4.153,4.153,0,0,1,.124,15.434a4.034,4.034,0,0,1,2.12-4.607,5.288,5.288,0,0,1,2.122-.5c1.937-.072,3.878-.043,5.818-.034a.821.821,0,0,0,.739-.359,14.883,14.883,0,0,1,1.155-1.342.679.679,0,0,0,.17-.784c-.368-1.159-.733-2.321-1.047-3.5a2.887,2.887,0,0,1,2.366-3.7,2.844,2.844,0,0,1,3.09,1.723c.345.888.594,1.812.887,2.72l.109-.01M16.231,17.158a.834.834,0,0,0,.162.086c.128.019.256.033.385.045a5.84,5.84,0,0,1,5.4,4.15c.273.8.4,1.646.588,2.47a2.473,2.473,0,0,0,4.882-.741,26.745,26.745,0,0,0-.987-3.9c-.28-.932-.251-1.214.644-1.627a16.8,16.8,0,0,1,2.824-1.112c1.747-.444,3.531-.745,5.3-1.114a2.445,2.445,0,0,0,1.972-2.352,2.337,2.337,0,0,0-1.857-2.424,6.584,6.584,0,0,0-2.188.058c-1.38.23-2.745.559-4.115.85a.825.825,0,1,1-.549-1.555c.091-.043.179-.093.325-.169-.433-.353-.812-.675-1.2-.98-.676-.528-.74-.7-.5-1.507.316-1.06.646-2.116.95-3.179a2.255,2.255,0,0,0,.108-.866,1.229,1.229,0,0,0-1.183-1.05A1.3,1.3,0,0,0,25.89,3.253c-.317,1-.6,2.015-.913,3.017a.875.875,0,0,1-1.141.684c-.345-.06-.687-.139-1.03-.21-.767-.158-.957-.382-.966-1.161-.011-.9.023-1.811-.036-2.712a1.236,1.236,0,0,0-1.267-1.206,1.263,1.263,0,0,0-1.222,1.319c-.02.627-.006,1.256-.006,1.883,0,1.687,0,1.687-1.624,2.118-1.018.27-1.28.125-1.579-.867-.292-.971-.564-1.949-.887-2.909a1.254,1.254,0,0,0-1.939-.741,1.32,1.32,0,0,0-.438,1.587q.593,2.016,1.213,4.024a1.045,1.045,0,0,1-.275,1.16,16.166,16.166,0,0,0-1.145,1.2,21.762,21.762,0,0,0-4.368,10.5,2.454,2.454,0,0,0,3.088,2.86,2.737,2.737,0,0,0,1.886-2.359,43.349,43.349,0,0,1,1.384-4.711,11.1,11.1,0,0,1,1.343-2.471,5.744,5.744,0,0,1,7.215-2.335,1.258,1.258,0,0,0,.809-.061c.6-.242,1.161-.563,1.75-.824s1.056-.128,1.272.341-.011.882-.6,1.17a12.742,12.742,0,0,0-2.058,1.067,1.9,1.9,0,0,1-2.58.049,2.5,2.5,0,0,0-3.255.248,8.691,8.691,0,0,0-2.291,3.239M9.456,12.043c-1.923,0-3.876-.1-5.813.036a2.3,2.3,0,0,0-1.95,2.657,2.444,2.444,0,0,0,2.425,2.207c.812.017,1.624-.009,2.437-.022.927-.014.926-.017,1.231-.913.1-.279.184-.561.3-.831.458-1.061.925-2.118,1.37-3.133" transform="translate(0 0)" fill="#1aa9a0"/>
    <path id="Path_49" data-name="Path 49" d="M81.149,224.225c.047.7.089,1.246.117,1.79.031.607-.215.954-.7,1.009a.811.811,0,0,1-.935-.858c-.057-1.01-.023-2.026-.053-3.038a1.078,1.078,0,0,0-.2-.646,22.746,22.746,0,0,1-3.284-4.712,2.635,2.635,0,0,0-.2-.264c-.139.825-.26,1.558-.387,2.29-.121.693-.469,1.008-1,.914s-.763-.526-.63-1.209c.285-1.465.595-2.925.876-4.39a1.66,1.66,0,0,0-.04-.64c-.273-1.278-.56-2.553-.837-3.83a2.545,2.545,0,0,1-.046-.5c-.01-.6.3-.979.8-.991.482-.012.762.325.865.892a30.719,30.719,0,0,0,.77,3.728,31.738,31.738,0,0,0,1.527,3.606.722.722,0,0,0,.54.317c.9.034,1.81,0,2.715.025a.8.8,0,0,1,.878.744.765.765,0,0,1-.6.873,1.77,1.77,0,0,1-.5.034c-.553,0-1.107,0-1.828,0a15.007,15.007,0,0,0,1.214,1.512c1.183,1.134,2.41,2.224,3.624,3.326.177.161.388.284.568.442a.8.8,0,0,1,.184,1.17.827.827,0,0,1-1.187.133c-.543-.382-1.062-.8-1.59-1.2-.183-.14-.361-.285-.673-.531" transform="translate(-63.59 -180.13)" fill="#1aa9a0"/>
  </g>
</svg>
