<svg xmlns="http://www.w3.org/2000/svg" xmlns:xlink="http://www.w3.org/1999/xlink" width="87.23" height="87.285" viewBox="0 0 87.23 87.285">
  <defs>
    <clipPath id="clip-path">
      <rect id="Rectangle_175" data-name="Rectangle 175" width="87.23" height="87.285" fill="#1aa9a0"/>
    </clipPath>
  </defs>
  <g id="Group_223" data-name="Group 223" clip-path="url(#clip-path)">
    <path id="Path_504" data-name="Path 504" d="M87.23,186.052H0v-2.827H12.55v-22.49H9.875V152.31h5.567c0-1.8.005-3.492,0-5.186a5.106,5.106,0,0,1,1.662-4.048,8.39,8.39,0,0,1,2.613-1.506c1.569-.568,3.2-.973,4.82-1.389.612-.157.769-.447.787-1.058a3.344,3.344,0,0,0-.91-2.675,6.69,6.69,0,0,1-1.843-4.216c-.2-2.8-.388-5.594,1.1-8.211a8.44,8.44,0,0,1,15.677,4.58c-.031,1.36,0,2.73-.166,4.076a7.549,7.549,0,0,1-2.146,4.265,4.369,4.369,0,0,0-.417,2.885,1.063,1.063,0,0,0,.572.3c1.307.381,2.619.744,3.929,1.116,3.457.982,4.384,1.91,5.343,5.408,2.071,0,4.17-.067,6.262.027a3.143,3.143,0,0,0,2.655-1.11c2.032-2.144,4.157-4.2,6.243-6.29a.534.534,0,0,0,.075-.148,23.139,23.139,0,0,1-2.261-1.436,7.958,7.958,0,0,1-3.111-5.92,16.349,16.349,0,0,1,.391-6.078,8.467,8.467,0,0,1,7.149-5.755A8.254,8.254,0,0,1,72,124.161a7.853,7.853,0,0,1,1.131,4.137c0,.909,0,1.818,0,2.727a8.545,8.545,0,0,1-2.713,6.335c2.545,1.424,2.914,3.766,2.686,6.41h5.6c.025.385.061.683.061.981,0,5.625.014,11.25,0,16.875a9.755,9.755,0,0,1-6.264,9.627,8.11,8.11,0,0,1-.968.314c-.3.088-.6.16-1.031.273.067.819.123,1.654.205,2.487.274,2.769.579,5.535.823,8.306.059.669.453.594.877.594q6.478,0,12.955,0c.622,0,1.243-.046,1.864-.071ZM15.487,166.328V183.22c1.029,0,2.016.03,3-.024.2-.011.448-.3.562-.524.769-1.486,1.524-2.98,2.246-4.49a.93.93,0,0,1,.982-.6q11.462.022,22.924,0a.927.927,0,0,1,.974.61c.707,1.485,1.448,2.954,2.206,4.414.127.244.392.572.611.586.982.063,1.971.028,2.979.028V166.3H22.507v-2.791H51.959v-2.762H15.5v2.818h4.1v2.76Zm2.792-14.1H38.163a4.31,4.31,0,0,1,1-4.307c1.153-1.235,2.67-1.352,4.225-1.278a2.475,2.475,0,0,0-2.011-2.382c-1.679-.514-3.366-1.009-5.066-1.442a1.493,1.493,0,0,0-1,.324,18.275,18.275,0,0,1-2.263,1.613c-2.217,1.02-4.633.364-6.493-1.558a1.264,1.264,0,0,0-.974-.391c-1.729.438-3.44.948-5.15,1.461a2.684,2.684,0,0,0-2.136,2.554c-.071,1.777-.017,3.559-.017,5.407m36.607,11.307h.9q4.855,0,9.711,0c3.139,0,4.84-1.7,4.841-4.843q0-7.88,0-15.759v-.548a24.045,24.045,0,0,1-1.871,2.445q-4.193,4.3-8.494,8.492a2.669,2.669,0,0,0-.915,2.217c.075,1.691.021,3.387.021,5.169h-4.2Zm4.227-33.71c0,.506-.039,1.161.007,1.81a5.6,5.6,0,0,0,5.083,5.1,5.349,5.349,0,0,0,5.775-3.884,18.154,18.154,0,0,0,.243-5.223A5.347,5.347,0,0,0,66,122.863a5.648,5.648,0,0,0-5.857,2.194,6.82,6.82,0,0,0-1.034,4.77m-33.779.054c0,.478-.03,1.076.005,1.669a5.568,5.568,0,0,0,5.073,5.188,5.363,5.363,0,0,0,5.782-3.88,18.047,18.047,0,0,0,.217-5.305,5.055,5.055,0,0,0-3.874-4.567,5.362,5.362,0,0,0-5.8,1.609c-1.377,1.463-1.55,3.281-1.4,5.286M12.64,157.851H56.169v-2.725H12.64Zm60.5-11.164c0,.423,0,.76,0,1.1-.017,4.032.048,8.067-.076,12.1a6.725,6.725,0,0,1-6.381,6.376c-3.6.125-7.212.057-10.818.072-.325,0-.65,0-.971,0v2.8c.179.015.315.037.451.037,4.487,0,8.974.011,13.461-.01a7.191,7.191,0,0,0,1.849-.248,7.017,7.017,0,0,0,5.315-7.127c.015-4.8,0-9.6,0-14.4,0-.219-.029-.438-.046-.693Zm-23.609,5.59c2.271,0,4.543.027,6.813-.024a2,2,0,0,0,1.24-.522c3.057-3.005,6.079-6.046,9.108-9.079a4.539,4.539,0,0,0,.451-.507,1.541,1.541,0,0,0-2.138-2.2,5.834,5.834,0,0,0-.7.623q-4.16,4.151-8.307,8.314a1.7,1.7,0,0,1-1.335.558c-3.946-.022-7.892-.015-11.838-.006-.365,0-.833-.05-1.071.145-.4.325-.887.828-.891,1.26s.476.946.867,1.278c.233.2.7.149,1.068.151,2.243.011,4.486.006,6.728.006m12.5,19.738H54.9v11.144H63.14c-.372-3.733-.737-7.392-1.11-11.144M21.984,183.152h23.5c-.412-.83-.746-1.58-1.157-2.285a.978.978,0,0,0-.7-.424q-9.888-.034-19.775,0a.89.89,0,0,0-.666.343c-.419.733-.768,1.506-1.195,2.37m46.8.071c-.386-3.838-.756-7.525-1.125-11.2H64.871c.07.744.13,1.418.2,2.092.284,2.852.561,5.7.871,8.554.022.2.285.514.455.527.756.058,1.518.025,2.386.025m-40.6-44.1a2.341,2.341,0,0,0,1.312,2.839,2.594,2.594,0,0,0,3.023-.1,2.215,2.215,0,0,0,1.1-2.721,8.875,8.875,0,0,1-5.433-.014" transform="translate(0.001 -98.767)" fill="#1aa9a0"/>
    <path id="Path_505" data-name="Path 505" d="M224.888,0q.026,5.154.051,10.307c.005,1.218,0,2.436,0,3.785h-1.058c-3.835,0-7.671.018-11.506-.016a2.606,2.606,0,0,0-1.832.684c-3.1,2.621-6.23,5.21-9.483,7.922V14.111h-9.929V0ZM194.053,2.863v8.414h9.828v5.382c2.075-1.725,3.975-3.337,5.921-4.892a2.374,2.374,0,0,1,1.355-.488c3.351-.041,6.7-.022,10.054-.022h.88V2.863Z" transform="translate(-157.433)" fill="#1aa9a0"/>
    <rect id="Rectangle_172" data-name="Rectangle 172" width="11.164" height="2.691" transform="translate(45.038 5.702)" fill="#1aa9a0"/>
    <rect id="Rectangle_173" data-name="Rectangle 173" width="2.73" height="2.715" transform="translate(39.416 5.67)" fill="#1aa9a0"/>
    <rect id="Rectangle_174" data-name="Rectangle 174" width="2.707" height="2.699" transform="translate(59.123 5.688)" fill="#1aa9a0"/>
  </g>
</svg>
