<svg id="Group_69" data-name="Group 69" xmlns="http://www.w3.org/2000/svg" xmlns:xlink="http://www.w3.org/1999/xlink" width="58.621" height="57.489" viewBox="0 0 58.621 57.489">
  <defs>
    <clipPath id="clip-path">
      <rect id="Rectangle_72" data-name="Rectangle 72" width="58.621" height="57.489" fill="#1aa9a0"/>
    </clipPath>
  </defs>
  <g id="Group_68" data-name="Group 68" clip-path="url(#clip-path)">
    <path id="Path_89" data-name="Path 89" d="M0,26.333c.024-.029.062-.054.069-.087a2.728,2.728,0,0,1,2.365-2.318,2.77,2.77,0,0,1,3.01,1.709c1.015-.234,2.051-.461,3.077-.727.127-.033.262-.259.29-.414a20.688,20.688,0,0,1,2.146-6.243.478.478,0,0,0-.066-.651c-.353-.374-.675-.776-.99-1.143a8.932,8.932,0,0,1-1.432.372A2.341,2.341,0,0,1,6.126,15.6a2.381,2.381,0,0,1,.046-2.655,24.849,24.849,0,0,1,1.756-2.328,2.541,2.541,0,0,1,4.405,1.7.631.631,0,0,0,.47.713c.482.173.947.4,1.257.527,1.571-1.186,3.06-2.3,4.536-3.44a.592.592,0,0,0,.19-.459c-.115-.944-.264-1.883-.41-2.879-.2,0-.386,0-.568,0a2.6,2.6,0,0,1-2.618-2.042,2.541,2.541,0,0,1,1.381-2.917C17.857,1.242,19.179.741,20.513.291A2.556,2.556,0,0,1,23.34,1.313a2.614,2.614,0,0,1,0,3.006c-.118.171-.254.33-.408.528.585.843,1.159,1.692,1.765,2.519a.609.609,0,0,0,.48.157c1.211-.129,2.421-.272,3.627-.441a.729.729,0,0,0,.428-.336,1.736,1.736,0,0,0,.252-.692.784.784,0,0,0-.144-.574,3.148,3.148,0,0,1-.782-3.7A3.238,3.238,0,0,1,32.046.039c.358.052.719.09,1.075.154A3.025,3.025,0,0,1,35.691,2.5,3.024,3.024,0,0,1,34.52,5.8a.847.847,0,0,0-.27.6c.041,1.194.072,1.145,1.213,1.554,1.287.462,2.545,1.01,3.8,1.552a.6.6,0,0,0,.755-.071c.7-.609,1.439-1.181,2.178-1.78a2.815,2.815,0,0,1-.681-2.213,2.607,2.607,0,0,1,4.062-1.814,38.515,38.515,0,0,1,3.229,2.555,2.552,2.552,0,0,1,.568,3.041,2.538,2.538,0,0,1-2.728,1.444.563.563,0,0,0-.721.42c-.239.581-.532,1.139-.779,1.717-.182.426-.532.815-.089,1.346.123.148-.054.752-.27.92a1.02,1.02,0,0,1-.971.028c-.783-.6-1.156-1.1-.645-2.144.6-1.214,1.137-2.455,1.707-3.681.368-.792.778-.915,1.538-.476a.955.955,0,0,0,1.328-.19.941.941,0,0,0-.264-1.311q-1.312-1.063-2.643-2.1a.975.975,0,0,0-1.429.041.948.948,0,0,0,.271,1.395c.131.111.275.207.4.323a.822.822,0,0,1,.032,1.338c-1.212,1.019-2.445,2.013-3.686,3a1.135,1.135,0,0,1-1.343.06,19.838,19.838,0,0,0-5.416-2.1,1.136,1.136,0,0,1-.944-1.022q-.165-1.305-.314-2.612A.907.907,0,0,1,33.064,4.6a1.387,1.387,0,0,0,1.008-1.475,1.462,1.462,0,0,0-1.3-1.254,10.427,10.427,0,0,0-1.249-.146,1.45,1.45,0,0,0-1.506,1.067,1.388,1.388,0,0,0,.826,1.587c.719.36.839.651.57,1.421-.239.683-.479,1.366-.729,2.045a1.323,1.323,0,0,1-1.326.968c-1.476.152-2.949.333-4.419.534a1.251,1.251,0,0,1-1.31-.49Q22.307,6.988,21.02,5.1a.843.843,0,0,1,.343-1.335,2.588,2.588,0,0,0,.253-.132.9.9,0,0,0,.407-1.133A.865.865,0,0,0,20.9,1.968q-1.774.638-3.516,1.362a.869.869,0,0,0-.471,1.148.91.91,0,0,0,1.122.546c.055-.013.108-.038.162-.056,1.364-.453,1.616-.294,1.825,1.132.183,1.245.367,2.489.564,3.732a1.355,1.355,0,0,1-.707,1.539,19.347,19.347,0,0,0-4.5,3.588,1.232,1.232,0,0,1-1.645.333q-1.315-.558-2.623-1.133c-.721-.317-.87-.667-.578-1.4a.842.842,0,0,0-1.46-.834c-.452.591-.91,1.178-1.345,1.781a.842.842,0,1,0,1.315,1.036c.63-.706,1.056-.7,1.677.017s1.232,1.456,1.859,2.176a1.291,1.291,0,0,1,.165,1.63A19.28,19.28,0,0,0,10.419,25.4a1.186,1.186,0,0,1-.967,1.069c-1.465.345-2.928.7-4.4,1.025-.677.15-1.043-.139-1.155-.83s-.516-1.072-1.126-1.042a1.079,1.079,0,0,0-1.02,1.107c-.037,1.106-.039,2.213-.025,3.32a1.05,1.05,0,0,0,1,1.058,1.122,1.122,0,0,0,1.137-.932c.007-.037.01-.076.014-.113.177-1.516.268-1.577,1.8-1.226,1.207.277,2.413.558,3.622.824a1.321,1.321,0,0,1,1.151,1.234c.056.472.18.936.253,1.406a.852.852,0,1,1-1.668.351.347.347,0,0,1-.025-.111c.053-1.137-.66-1.44-1.618-1.555a17.153,17.153,0,0,1-1.805-.409c-.056.138-.106.256-.152.375a2.854,2.854,0,0,1-2.678,1.886,2.81,2.81,0,0,1-2.641-2c-.03-.089-.075-.172-.113-.258V26.333" transform="translate(0 0.001)" fill="#1aa9a0"/>
    <path id="Path_90" data-name="Path 90" d="M49.677,134.012a3.422,3.422,0,0,1,.975,3.726,2.27,2.27,0,0,1-2.923,1.814,39.941,39.941,0,0,1-3.972-1.439,2.967,2.967,0,0,1-1.654-3.225,3.02,3.02,0,0,1,2.662-2.46c.131-.014.261-.032.441-.055.133-1.159.274-2.31.384-3.465.011-.115-.147-.295-.271-.365a22.24,22.24,0,0,1-4.722-3.592.673.673,0,0,0-.583-.1q-1.153.421-2.271.936a.676.676,0,0,0-.338.473,2.817,2.817,0,0,1-1.985,2.714,2.853,2.853,0,0,1-3.155-1.186c-.289-.4-.566-.814-.847-1.223a2.792,2.792,0,0,1,3.562-4.206c.614-.695,1.253-1.4,1.86-2.126a.607.607,0,0,0,0-.5c-.16-.407-.384-.788-.546-1.194a.857.857,0,0,1,.412-1.164.848.848,0,0,1,1.144.455c.3.575.576,1.16.858,1.743a1.175,1.175,0,0,1-.192,1.38c-.918,1.047-1.836,2.1-2.771,3.127a.849.849,0,0,1-1.386.02,1.055,1.055,0,1,0-1.613,1.358c.326.493.658.984,1.019,1.451a1.042,1.042,0,0,0,1.808-1.02c-.24-.723-.1-1.051.613-1.346,1.214-.5,2.435-.991,3.646-1.5a1.339,1.339,0,0,1,1.658.329,19,19,0,0,0,5.115,3.9,1.288,1.288,0,0,1,.75,1.4c-.175,1.554-.329,3.11-.521,4.661-.1.8-.474,1.032-1.271.853a1.363,1.363,0,0,0-1.719.835,1.324,1.324,0,0,0,.931,1.655q1.55.584,3.113,1.136c.724.255.974.092,1.088-.659.014-.094.039-.186.058-.279a1.325,1.325,0,0,0-.82-1.721.859.859,0,0,1-.411-1.4c.85-1.357,1.723-2.7,2.575-4.056.406-.646.989-.65,1.656-.571a24.14,24.14,0,0,0,3.639.3,36.959,36.959,0,0,0,4.417-.517c.913-.142,1.234-.083,1.765.657q1.167,1.627,2.327,3.26c.56.788.482,1.161-.339,1.65a.913.913,0,0,0-.474,1.2.9.9,0,0,0,1.248.462q1.626-.625,3.234-1.3a.918.918,0,0,0,.594-1.238.941.941,0,0,0-1.3-.462c-.179.064-.351.149-.532.206a.831.831,0,0,1-1.168-.65q-.418-2.335-.776-4.681a1.112,1.112,0,0,1,.581-1.161,20.854,20.854,0,0,0,4.565-3.7,1.162,1.162,0,0,1,1.419-.243c.926.4,1.846.818,2.774,1.216a.914.914,0,0,1,.591,1.1c-.127.846.111,1.354.729,1.6A1.381,1.381,0,0,0,77,126.225a8.132,8.132,0,0,0,.511-.689,1.278,1.278,0,0,0-1.787-1.753c-.864.544-1.051.512-1.715-.281-.552-.658-1.109-1.311-1.657-1.971a1.264,1.264,0,0,1-.166-1.626c.553-1.169,1.092-2.346,1.6-3.534a1.31,1.31,0,0,1,1.246-.91c1.449-.056,2.9-.144,4.345-.2.774-.029,1.081.3,1.056,1.06-.022.705.254,1.123.789,1.19s.914-.3,1.049-.976q.317-1.6.631-3.2a.957.957,0,0,0-.7-1.238c-.532-.118-.953.217-1.107.88-.047.2-.075.414-.142.612a.8.8,0,0,1-1.082.557q-2.24-.937-4.452-1.939a1.064,1.064,0,0,1-.627-1.074,20.893,20.893,0,0,0-.678-6.061,1.163,1.163,0,0,1,.527-1.337c.705-.488,1.414-.973,2.131-1.444a.876.876,0,0,1,1.345.209,1.276,1.276,0,0,0,1.709.423,1.328,1.328,0,0,0,.545-1.647c-.188-.56-.395-1.114-.622-1.658a1.31,1.31,0,0,0-1.611-.84,1.29,1.29,0,0,0-.837,1.595.9.9,0,0,1-.871,1.239c-.811.122-1.623.228-2.435.342a1.257,1.257,0,0,1-1.391-.669c-.242-.432-.5-.854-.74-1.289a.854.854,0,0,1,.3-1.236.785.785,0,0,1,1.16.366,1.392,1.392,0,0,0,2.157.8c.032-.151.072-.371.124-.589a2.994,2.994,0,0,1,5.6-.672,13.086,13.086,0,0,1,.891,2.407,2.976,2.976,0,0,1-4.439,3.291.71.71,0,0,0-.949.034c-.807.58-.769.557-.643,1.514.194,1.471.329,2.951.448,4.431.028.344.085.547.431.684.846.336,1.675.717,2.436,1.047a8.939,8.939,0,0,1,1.2-1.262,2.414,2.414,0,0,1,2.848-.04,2.5,2.5,0,0,1,1.2,2.65c-.191,1.2-.444,2.4-.7,3.59a2.629,2.629,0,0,1-5.137.283c-.031-.089-.073-.173-.12-.285-1.011.045-2.02.075-3.026.149a.655.655,0,0,0-.427.351c-.463,1-.9,2.017-1.373,3.107l1.168,1.408a9.685,9.685,0,0,1,1.784-.142,2.967,2.967,0,0,1,2.158,4.576A8.651,8.651,0,0,1,78.1,127.6a2.9,2.9,0,0,1-3.158.929,2.773,2.773,0,0,1-2.079-2.47c-.056-.476-.293-.633-.66-.854a1.677,1.677,0,0,0-2.456.393,25.289,25.289,0,0,1-2.946,2.343.786.786,0,0,0-.3.572c.119.943.3,1.878.46,2.846a7.074,7.074,0,0,1,1.027.008,2.614,2.614,0,0,1,.82,4.926c-1.281.582-2.594,1.106-3.924,1.568a2.549,2.549,0,0,1-2.867-1.043,2.5,2.5,0,0,1,.054-2.993.674.674,0,0,0-.019-1.013c-.478-.618-.9-1.28-1.381-1.9a.667.667,0,0,0-.546-.206,22.371,22.371,0,0,1-8.076.21.664.664,0,0,0-.539.23c-.617.916-1.2,1.857-1.836,2.86" transform="translate(-26.054 -82.171)" fill="#1aa9a0"/>
    <path id="Path_91" data-name="Path 91" d="M112.731,106.007a5.264,5.264,0,0,1-5.2-7.114,7.683,7.683,0,0,1,7.038-5.272,5.277,5.277,0,0,1,5.268,6.987,9.143,9.143,0,0,1-.73,1.668.817.817,0,0,1-1.162.378.839.839,0,0,1-.307-1.231,4.939,4.939,0,0,0,.73-2.665,3.553,3.553,0,0,0-4.036-3.414,5.912,5.912,0,0,0-5.35,4.971,3.474,3.474,0,0,0,3.16,3.948,5.331,5.331,0,0,0,2.786-.459c.121-.056.239-.12.363-.167a.85.85,0,0,1,1.127.378.869.869,0,0,1-.4,1.168,7.055,7.055,0,0,1-3.292.824" transform="translate(-90.83 -79.301)" fill="#1aa9a0"/>
    <path id="Path_92" data-name="Path 92" d="M161.04,197.327a3.957,3.957,0,0,1,.01-7.915,3.957,3.957,0,1,1-.01,7.915m-.013-1.719a2.239,2.239,0,1,0-2.213-2.266,2.21,2.21,0,0,0,2.213,2.266" transform="translate(-133.064 -160.439)" fill="#1aa9a0"/>
    <path id="Path_93" data-name="Path 93" d="M233.174,100.768a2.917,2.917,0,0,1-.974,2.167,4.053,4.053,0,0,1-5.422.011,2.942,2.942,0,0,1,.008-4.408,4.06,4.06,0,0,1,5.422.029,2.934,2.934,0,0,1,.965,2.2M229.49,99.23a1.8,1.8,0,0,0-1.971,1.5,1.774,1.774,0,0,0,1.93,1.538,1.572,1.572,0,1,0,.041-3.035" transform="translate(-191.253 -82.599)" fill="#1aa9a0"/>
    <path id="Path_94" data-name="Path 94" d="M102.721,227.769a3.1,3.1,0,1,1,3.1-3.073,3.1,3.1,0,0,1-3.1,3.073m-.006-4.484a1.407,1.407,0,0,0-1.386,1.388,1.388,1.388,0,0,0,1.392,1.373,1.349,1.349,0,0,0,1.371-1.378,1.369,1.369,0,0,0-1.377-1.382" transform="translate(-84.37 -187.673)" fill="#1aa9a0"/>
    <path id="Path_95" data-name="Path 95" d="M244.91,184.689a3.071,3.071,0,1,1-3.06,3.11,3.069,3.069,0,0,1,3.06-3.11m.046,1.725a1.345,1.345,0,1,0,1.341,1.349,1.357,1.357,0,0,0-1.341-1.349" transform="translate(-204.856 -156.438)" fill="#1aa9a0"/>
    <path id="Path_96" data-name="Path 96" d="M191.675,255.967a3.029,3.029,0,0,1,3,3.037,3.023,3.023,0,1,1-6.045-.047,3.014,3.014,0,0,1,3.041-2.99m-1.319,2.941a1.3,1.3,0,1,0,1.381-1.217,1.314,1.314,0,0,0-1.381,1.217" transform="translate(-159.78 -216.814)" fill="#1aa9a0"/>
    <path id="Path_97" data-name="Path 97" d="M243.314,247.583a6.52,6.52,0,0,1-.684-.038.777.777,0,0,1-.7-.783.755.755,0,0,1,.673-.856,6.825,6.825,0,0,1,1.425-.019.762.762,0,0,1,.748.847.779.779,0,0,1-.776.825,6.488,6.488,0,0,1-.686,0v.021" transform="translate(-204.923 -208.252)" fill="#1aa9a0"/>
    <path id="Path_98" data-name="Path 98" d="M199.044,85.457a3.823,3.823,0,0,1-.625-.006.808.808,0,0,1-.745-.859.779.779,0,0,1,.72-.821,5.251,5.251,0,0,1,1.306,0,.775.775,0,0,1,.715.823.8.8,0,0,1-.745.857,3.676,3.676,0,0,1-.625.006" transform="translate(-167.437 -70.923)" fill="#1aa9a0"/>
    <path id="Path_99" data-name="Path 99" d="M153.41,265.8c-.239-.044-.557-.008-.7-.149a1.29,1.29,0,0,1-.455-.861c.038-.27.389-.562.672-.709a1.855,1.855,0,0,1,.84-.031.872.872,0,0,1,.934.859.888.888,0,0,1-.946.854c-.113.005-.227,0-.341,0l-.007.037" transform="translate(-128.964 -223.629)" fill="#1aa9a0"/>
    <path id="Path_100" data-name="Path 100" d="M100.938,182.161c.128.014.4-.036.531.076a1.665,1.665,0,0,1,.614.786.7.7,0,0,1-.62.823,4.051,4.051,0,0,1-1.023.032.809.809,0,0,1-.793-.822.848.848,0,0,1,.811-.868c.132-.018.266-.015.481-.026" transform="translate(-84.402 -154.298)" fill="#1aa9a0"/>
    <path id="Path_101" data-name="Path 101" d="M219.466,164.9a3.574,3.574,0,0,1,1.027.523.753.753,0,0,1-.109,1.115,1.862,1.862,0,0,1-1.878.009.743.743,0,0,1-.125-1.11,3.67,3.67,0,0,1,1.085-.537" transform="translate(-184.811 -139.681)" fill="#1aa9a0"/>
  </g>
</svg>
