<?xml version="1.0" encoding="UTF-8"?>
<svg width="700pt" height="700pt" version="1.1" viewBox="0 0 700 700"
    xmlns="http://www.w3.org/2000/svg"
    xmlns:xlink="http://www.w3.org/1999/xlink">
    <defs>
        <symbol id="t" overflow="visible">
            <path d="m1.8281-0.10938c-0.09375 0.054688-0.19531 0.089844-0.29688 0.10938-0.09375 0.019531-0.19922 0.03125-0.3125 0.03125-0.33594 0-0.60156-0.085938-0.79688-0.26562-0.1875-0.1875-0.28125-0.44141-0.28125-0.76562 0-0.3125 0.09375-0.5625 0.28125-0.75 0.19531-0.1875 0.46094-0.28125 0.79688-0.28125 0.11328 0 0.21875 0.015625 0.3125 0.046875 0.10156 0.023437 0.20312 0.058594 0.29688 0.10938v0.40625c-0.09375-0.0625-0.1875-0.10938-0.28125-0.14062s-0.19531-0.046875-0.29688-0.046875c-0.17969 0-0.32031 0.0625-0.42188 0.1875-0.10547 0.11719-0.15625 0.27344-0.15625 0.46875 0 0.21094 0.050781 0.375 0.15625 0.5 0.10156 0.11719 0.24219 0.17188 0.42188 0.17188 0.10156 0 0.20312-0.015625 0.29688-0.046875s0.1875-0.078125 0.28125-0.14062z"/>
        </symbol>
        <symbol id="d" overflow="visible">
            <path d="m1.3438-1.0938c-0.042969-0.019531-0.085938-0.03125-0.125-0.03125-0.042969-0.007812-0.085938-0.015625-0.125-0.015625-0.125 0-0.22656 0.042969-0.29688 0.125-0.0625 0.074219-0.09375 0.18359-0.09375 0.32812v0.6875h-0.46875v-1.5h0.46875v0.25c0.0625-0.09375 0.12891-0.16016 0.20312-0.20312 0.082031-0.050781 0.17969-0.078125 0.29688-0.078125h0.046875c0.019531 0 0.050781 0.007812 0.09375 0.015625z"/>
        </symbol>
        <symbol id="a" overflow="visible">
            <path d="m1.7188-0.75v0.14062h-1.1094c0.007813 0.10547 0.046875 0.1875 0.10938 0.25 0.070312 0.054687 0.17188 0.078125 0.29688 0.078125 0.10156 0 0.20703-0.015625 0.3125-0.046875 0.10156-0.03125 0.21094-0.070313 0.32812-0.125v0.35938c-0.11719 0.042969-0.23047 0.074219-0.34375 0.09375-0.11719 0.019531-0.23047 0.03125-0.34375 0.03125-0.27344 0-0.48047-0.066406-0.625-0.20312-0.14844-0.13281-0.21875-0.32812-0.21875-0.57812 0-0.23828 0.070312-0.42578 0.21875-0.5625 0.14453-0.14453 0.34766-0.21875 0.60938-0.21875 0.22656 0 0.41016 0.074219 0.54688 0.21875 0.14453 0.13672 0.21875 0.32422 0.21875 0.5625zm-0.48438-0.15625c0-0.09375-0.027344-0.16406-0.078125-0.21875-0.054688-0.0625-0.125-0.09375-0.21875-0.09375-0.085938 0-0.15625 0.027344-0.21875 0.078125-0.0625 0.054687-0.10156 0.13281-0.10938 0.23438z"/>
        </symbol>
        <symbol id="e" overflow="visible">
            <path d="m0.90625-0.67188c-0.10547 0-0.18359 0.015625-0.23438 0.046875-0.054687 0.03125-0.078125 0.085938-0.078125 0.15625 0 0.0625 0.019531 0.10938 0.0625 0.14062 0.039062 0.03125 0.097656 0.046875 0.17188 0.046875 0.09375 0 0.16406-0.03125 0.21875-0.09375 0.0625-0.0625 0.09375-0.14453 0.09375-0.25v-0.046875zm0.71875-0.1875v0.85938h-0.48438v-0.21875c-0.0625 0.09375-0.13672 0.16406-0.21875 0.20312-0.074219 0.03125-0.16797 0.046875-0.28125 0.046875-0.15625 0-0.28125-0.039062-0.375-0.125-0.09375-0.09375-0.14062-0.21094-0.14062-0.35938 0-0.17578 0.054688-0.30078 0.17188-0.375 0.125-0.082031 0.3125-0.125 0.5625-0.125h0.28125v-0.046875c0-0.070312-0.03125-0.125-0.09375-0.15625-0.054687-0.039062-0.14062-0.0625-0.26562-0.0625-0.10547 0-0.20312 0.011719-0.29688 0.03125-0.085937 0.023438-0.16406 0.054688-0.23438 0.09375v-0.35938c0.10156-0.03125 0.20703-0.050781 0.3125-0.0625 0.10156-0.007813 0.20312-0.015625 0.29688-0.015625 0.26953 0 0.46094 0.054688 0.57812 0.15625 0.125 0.10547 0.1875 0.27734 0.1875 0.51562z"/>
        </symbol>
        <symbol id="c" overflow="visible">
            <path d="m0.75-1.9219v0.42188h0.5v0.34375h-0.5v0.64062c0 0.0625 0.007812 0.10938 0.03125 0.14062 0.03125 0.023438 0.085938 0.03125 0.17188 0.03125h0.25v0.34375h-0.40625c-0.1875 0-0.32422-0.035156-0.40625-0.10938-0.074219-0.082031-0.10938-0.21875-0.10938-0.40625v-0.64062h-0.25v-0.34375h0.25v-0.42188z"/>
        </symbol>
        <symbol id="l" overflow="visible">
            <path d="m1.25-1.2812v-0.79688h0.48438v2.0781h-0.48438v-0.21875c-0.074219 0.09375-0.15234 0.16406-0.23438 0.20312-0.074219 0.03125-0.16406 0.046875-0.26562 0.046875-0.17969 0-0.32812-0.070312-0.45312-0.21875-0.11719-0.14453-0.17188-0.33203-0.17188-0.5625 0-0.22656 0.054688-0.41406 0.17188-0.5625 0.125-0.14453 0.27344-0.21875 0.45312-0.21875 0.10156 0 0.19141 0.023438 0.26562 0.0625 0.082031 0.042969 0.16016 0.10547 0.23438 0.1875zm-0.3125 0.96875c0.09375 0 0.16406-0.035156 0.21875-0.10938 0.0625-0.070313 0.09375-0.17969 0.09375-0.32812 0-0.13281-0.03125-0.23828-0.09375-0.3125-0.054688-0.082031-0.125-0.125-0.21875-0.125-0.10547 0-0.18359 0.042969-0.23438 0.125-0.054687 0.074219-0.078125 0.17969-0.078125 0.3125 0 0.14844 0.023438 0.25781 0.078125 0.32812 0.050781 0.074219 0.12891 0.10938 0.23438 0.10938z"/>
        </symbol>
        <symbol id="k" overflow="visible">
            <path d="m1.0312-0.3125c0.09375 0 0.16406-0.035156 0.21875-0.10938 0.0625-0.070313 0.09375-0.17969 0.09375-0.32812 0-0.13281-0.03125-0.23828-0.09375-0.3125-0.054688-0.082031-0.125-0.125-0.21875-0.125-0.10547 0-0.1875 0.042969-0.25 0.125-0.054688 0.074219-0.078125 0.17969-0.078125 0.3125 0 0.14844 0.023437 0.25781 0.078125 0.32812 0.0625 0.074219 0.14453 0.10938 0.25 0.10938zm-0.32812-0.96875c0.070313-0.082031 0.14453-0.14453 0.21875-0.1875 0.082031-0.039062 0.17578-0.0625 0.28125-0.0625 0.1875 0 0.33594 0.074219 0.45312 0.21875 0.11328 0.14844 0.17188 0.33594 0.17188 0.5625 0 0.23047-0.058594 0.41797-0.17188 0.5625-0.11719 0.14844-0.26562 0.21875-0.45312 0.21875-0.10547 0-0.19922-0.015625-0.28125-0.046875-0.074219-0.039062-0.14844-0.10938-0.21875-0.20312v0.21875h-0.46875v-2.0781h0.46875z"/>
        </symbol>
        <symbol id="j" overflow="visible">
            <path d="m0.03125-1.5h0.48438l0.39062 1.0156 0.34375-1.0156h0.48438l-0.625 1.6406c-0.0625 0.16406-0.14062 0.28125-0.23438 0.34375-0.085938 0.070313-0.19531 0.10938-0.32812 0.10938h-0.26562v-0.3125h0.14062c0.082031 0 0.14062-0.015625 0.17188-0.046875 0.039062-0.023437 0.070312-0.070313 0.09375-0.14062l0.015625-0.03125z"/>
        </symbol>
        <symbol id="i" overflow="visible">
            <path d="m0.25-2h0.51562v2h-0.51562z"/>
        </symbol>
        <symbol id="h" overflow="visible">
            <path d="m1.4375-1.4531v0.39062c-0.0625-0.039062-0.13281-0.070312-0.20312-0.09375-0.0625-0.019531-0.13281-0.03125-0.20312-0.03125-0.125 0-0.23047 0.042969-0.3125 0.125-0.074219 0.074219-0.10938 0.17969-0.10938 0.3125 0 0.14844 0.035156 0.26172 0.10938 0.34375 0.082031 0.074219 0.1875 0.10938 0.3125 0.10938 0.082031 0 0.15625-0.007813 0.21875-0.03125 0.070312-0.03125 0.13281-0.066406 0.1875-0.10938v0.39062c-0.074219 0.03125-0.15234 0.050781-0.23438 0.0625-0.074219 0.0078125-0.14844 0.015625-0.21875 0.015625-0.27344 0-0.48438-0.066406-0.64062-0.20312-0.14844-0.13281-0.21875-0.32812-0.21875-0.57812 0-0.23828 0.070312-0.42578 0.21875-0.5625 0.15625-0.14453 0.36719-0.21875 0.64062-0.21875 0.070313 0 0.14453 0.011719 0.21875 0.03125 0.082031 0.011719 0.16016 0.027344 0.23438 0.046875z"/>
        </symbol>
        <symbol id="b" overflow="visible">
            <path d="m0.9375-1.1875c-0.10547 0-0.1875 0.039062-0.25 0.10938-0.054688 0.074219-0.078125 0.18359-0.078125 0.32812 0 0.14844 0.023437 0.26172 0.078125 0.34375 0.0625 0.074219 0.14453 0.10938 0.25 0.10938 0.10156 0 0.17969-0.035156 0.23438-0.10938 0.0625-0.082031 0.09375-0.19531 0.09375-0.34375 0-0.14453-0.03125-0.25391-0.09375-0.32812-0.054687-0.070313-0.13281-0.10938-0.23438-0.10938zm0-0.34375c0.25781 0 0.46094 0.074219 0.60938 0.21875 0.14453 0.13672 0.21875 0.32422 0.21875 0.5625 0 0.25-0.074219 0.44531-0.21875 0.57812-0.14844 0.13672-0.35156 0.20312-0.60938 0.20312-0.26172 0-0.46484-0.066406-0.60938-0.20312-0.13672-0.13281-0.20312-0.32812-0.20312-0.57812 0-0.23828 0.066406-0.42578 0.20312-0.5625 0.14453-0.14453 0.34766-0.21875 0.60938-0.21875z"/>
        </symbol>
        <symbol id="g" overflow="visible">
            <path d="m1.7344-0.90625v0.90625h-0.48438v-0.70312c0-0.125-0.007812-0.20703-0.015625-0.25 0-0.050781-0.007813-0.09375-0.015625-0.125-0.023438-0.03125-0.046875-0.050781-0.078125-0.0625-0.03125-0.019531-0.070313-0.03125-0.10938-0.03125-0.10547 0-0.1875 0.042969-0.25 0.125-0.054688 0.074219-0.078125 0.17969-0.078125 0.3125v0.73438h-0.46875v-1.5h0.46875v0.21875c0.070313-0.082031 0.14844-0.14453 0.23438-0.1875 0.082031-0.039062 0.17188-0.0625 0.26562-0.0625 0.17578 0 0.30469 0.054688 0.39062 0.15625 0.09375 0.10547 0.14062 0.26172 0.14062 0.46875z"/>
        </symbol>
        <symbol id="f" overflow="visible">
            <path d="m0.25-2h0.85938c0.25 0 0.44141 0.058594 0.57812 0.17188 0.13281 0.11719 0.20312 0.27734 0.20312 0.48438 0 0.21094-0.070313 0.37109-0.20312 0.48438-0.13672 0.11719-0.32812 0.17188-0.57812 0.17188h-0.34375v0.6875h-0.51562zm0.51562 0.375v0.5625h0.28125c0.10156 0 0.17969-0.019531 0.23438-0.0625 0.050781-0.050781 0.078125-0.125 0.078125-0.21875s-0.027344-0.16016-0.078125-0.20312c-0.054688-0.050781-0.13281-0.078125-0.23438-0.078125z"/>
        </symbol>
        <symbol id="s" overflow="visible">
            <path d="m0.23438-1.5h0.46875v1.5h-0.46875zm0-0.57812h0.46875v0.39062h-0.46875z"/>
        </symbol>
        <symbol id="r" overflow="visible">
            <path d="m1.2188-2.0781v0.3125h-0.26562c-0.074219 0-0.125 0.015625-0.15625 0.046875-0.023437 0.023438-0.03125 0.0625-0.03125 0.125v0.09375h0.40625v0.34375h-0.40625v1.1562h-0.46875v-1.1562h-0.25v-0.34375h0.25v-0.09375c0-0.16406 0.039063-0.28516 0.125-0.35938 0.09375-0.082031 0.23438-0.125 0.42188-0.125z"/>
        </symbol>
        <symbol id="q" overflow="visible">
            <path d="m1.6094-1.25c0.0625-0.09375 0.13281-0.16016 0.21875-0.20312 0.082031-0.050781 0.17578-0.078125 0.28125-0.078125 0.16406 0 0.29688 0.054688 0.39062 0.15625 0.09375 0.10547 0.14062 0.26172 0.14062 0.46875v0.90625h-0.48438v-0.78125-0.03125-0.0625c0-0.10156-0.015625-0.17578-0.046875-0.21875-0.03125-0.050781-0.085937-0.078125-0.15625-0.078125-0.085937 0-0.15234 0.039063-0.20312 0.10938-0.054688 0.074219-0.078125 0.18359-0.078125 0.32812v0.73438h-0.48438v-0.78125c0-0.16406-0.015625-0.26953-0.046875-0.3125-0.023437-0.050781-0.070313-0.078125-0.14062-0.078125-0.09375 0-0.16797 0.042969-0.21875 0.125-0.054688 0.074219-0.078125 0.17969-0.078125 0.3125v0.73438h-0.46875v-1.5h0.46875v0.21875c0.0625-0.082031 0.12891-0.14453 0.20312-0.1875 0.082031-0.039062 0.16406-0.0625 0.25-0.0625 0.10156 0 0.19141 0.027344 0.26562 0.078125 0.082031 0.054687 0.14453 0.12109 0.1875 0.20312z"/>
        </symbol>
        <symbol id="p" overflow="visible">
            <path d="m1.7344-0.90625v0.90625h-0.48438v-0.6875c0-0.13281-0.007812-0.22266-0.015625-0.26562 0-0.050781-0.007813-0.09375-0.015625-0.125-0.023438-0.03125-0.046875-0.050781-0.078125-0.0625-0.03125-0.019531-0.070313-0.03125-0.10938-0.03125-0.10547 0-0.1875 0.042969-0.25 0.125-0.054688 0.074219-0.078125 0.17969-0.078125 0.3125v0.73438h-0.46875v-2.0781h0.46875v0.79688c0.070313-0.082031 0.14844-0.14453 0.23438-0.1875 0.082031-0.039062 0.17188-0.0625 0.26562-0.0625 0.17578 0 0.30469 0.054688 0.39062 0.15625 0.09375 0.10547 0.14062 0.26172 0.14062 0.46875z"/>
        </symbol>
        <symbol id="o" overflow="visible">
            <path d="m0.25-2h0.57812l0.71875 1.375v-1.375h0.48438v2h-0.5625l-0.73438-1.375v1.375h-0.48438z"/>
        </symbol>
        <symbol id="n" overflow="visible">
            <path d="m0.21875-0.57812v-0.92188h0.46875v0.15625 0.3125 0.23438 0.26562c0.007812 0.054688 0.023438 0.089844 0.046875 0.10938 0.019531 0.03125 0.046875 0.058594 0.078125 0.078125 0.03125 0.011719 0.066406 0.015625 0.10938 0.015625 0.09375 0 0.16406-0.035156 0.21875-0.10938 0.0625-0.070312 0.09375-0.17578 0.09375-0.3125v-0.75h0.48438v1.5h-0.48438v-0.21875c-0.074219 0.09375-0.15234 0.16406-0.23438 0.20312-0.074219 0.03125-0.15625 0.046875-0.25 0.046875-0.17969 0-0.3125-0.050781-0.40625-0.15625-0.085938-0.10156-0.125-0.25391-0.125-0.45312z"/>
        </symbol>
        <symbol id="m" overflow="visible">
            <path d="m0.23438-1.5h0.46875v1.4688c0 0.20703-0.046875 0.36328-0.14062 0.46875-0.09375 0.10156-0.23438 0.15625-0.42188 0.15625h-0.23438v-0.3125h0.078125c0.09375 0 0.15625-0.023438 0.1875-0.0625 0.039063-0.042969 0.0625-0.125 0.0625-0.25zm0-0.57812h0.46875v0.39062h-0.46875z"/>
        </symbol>
    </defs>
    <g>
        <path d="m498.8 445.05c-19.742-50.477-23.242-81.484 10.117-121.3 24.773-29.531 37.898-65.078 37.898-102.87 0-47.141-17.555-90.016-49.383-120.75-32.266-31.172-75.797-46.703-125.84-44.898-49.164 1.75-88.703 11.812-117.52 29.859-36.75 23.023-55.234 59.336-55.07 107.84 0 1.5859-0.10937 3.1172-0.16406 4.8125-0.16406 2.9531-0.32812 6.0156-0.054688 9.625l-10.883 0.76562c-0.32812-4.3203-0.10938-7.875 0.054688-10.992 0.054687-1.5312 0.16406-2.9531 0.16406-4.2109-0.21875-52.5 20.07-91.93 60.211-117.09 30.461-19.086 71.805-29.695 122.94-31.5 26.961-0.92969 52.391 2.8984 75.578 11.539 22.039 8.2031 41.617 20.453 58.188 36.422 16.844 16.242 29.969 35.766 39.047 57.914 9.0781 22.148 13.672 45.883 13.672 70.711 0 20.344-3.6094 40.25-10.719 59.227-6.8906 18.32-16.844 35.383-29.695 50.641-30.188 36.039-27.18 62.016-8.3125 110.3z"/>
        <path d="m186.27 341.03-10.719-1.9688c0.21875-1.1484 0.4375-2.2969 0.65625-3.3906 0.10938-0.65625 0.21875-1.2578 0.38281-1.8594-0.60156-0.21875-1.2031-0.4375-1.8594-0.60156l-17.883-4.7031c-2.7891-0.71094-5.4141-2.0234-7.6562-3.8828-2.1875-1.8047-3.9922-4.1562-5.1953-6.8359-3.1172-6.8359-1.9141-14.875 2.8984-20.617l43.094-60.375c0.10938-1.1484 0.21875-3.5547 0.21875-7.2188h10.938c0 9.2969-0.38281 11.32-1.75 12.906l-43.914 61.414-0.16406 0.21875c-2.1875 2.4609-2.7344 6.0703-1.3672 9.0781 0.54688 1.1484 1.3125 2.1875 2.2422 2.9531 0.98438 0.82031 2.1328 1.4219 3.3359 1.6953h0.10937l17.883 4.7031c2.1875 0.54688 4.2656 1.4219 6.1797 2.5156 3.0625 1.75 4.6484 5.25 4.0469 8.75-0.21875 1.2031-0.49219 2.4609-0.71094 3.8828-0.32812 1.0938-0.54688 2.1875-0.76562 3.3359z"/>
        <path d="m298.1 516.36c-2.4062-7.7109-5.3594-17.227-8.9688-28.875-10.609-34.398-34.672-32.375-60.211-30.242-8.2031 0.71094-15.969 1.3125-23.188 0.65625-12.797-1.2031-22.094-5.6328-27.781-13.18-7.1641-9.625-6.125-21.492-4.9219-27.672 0.65625-3.1172 1.5312-6.0703 2.3516-8.6953 2.0234-6.5625 3.0078-10.117 0.875-13.234-4.0469-5.7969-5.3047-11.266-3.7188-16.133 2.0781-6.4531 8.2578-8.75 8.9688-9.0234l0.16406-0.054688 2.625-0.82031c-1.9688-0.71094-3.5547-1.4219-4.7578-2.0781-2.7344-1.3672-4.4297-4.1016-5.0859-8.0938l10.062-1.6953 0.71094-0.10938c0.054688 0.21875 0.054688 0.38281 0.10938 0.54688 2.7344 1.2578 7.7656 2.8984 14.109 4.6484 3.0078 0.82031 5.0312 3.4453 5.0859 6.5625 0.054688 3.1172-1.9141 5.8516-4.9219 6.7812l-14.492 4.5938c-0.32813 0.16406-1.8594 0.875-2.1875 2.1328-0.4375 1.3672 0.4375 3.7188 2.2969 6.4531 5.25 7.6562 2.7891 15.641 0.60156 22.695-0.76562 2.4609-1.5312 5.0312-2.0781 7.6016-0.875 4.4297-1.6953 12.742 2.9531 18.977 3.7188 4.9766 10.445 7.9297 19.961 8.8594 6.2344 0.54687 13.562-0.054688 21.273-0.71094 12.852-1.0938 27.398-2.2969 40.25 2.0234 15.203 5.0859 25.43 16.844 31.336 35.875 3.6094 11.648 6.5625 21.164 8.9688 28.875z"/>
        <path d="m291.05 115.55-5.0312-9.6797c23.68-12.305 53.539-19.141 88.758-20.289l0.32812 10.938c-33.523 1.0391-61.797 7.4375-84.055 19.031z"/>
        <path d="m257.8 141.64-8.3125-7.1094c5.3047-6.2344 11.43-12.031 18.266-17.172l6.6172 8.75c-6.2344 4.6484-11.758 9.8984-16.57 15.531z"/>
        <path d="m386.86 331.46c-6.7266 0-12.469-2.5156-16.133-7.0547-4.1016-5.0312-5.4141-12.031-3.8281-19.797l10.719 2.2422c-0.92969 4.4844-0.38281 8.2578 1.5859 10.664 1.6406 2.0234 4.2109 3.0078 7.6562 3.0078 3.5547 0 15.531-5.1406 27.07-17.008 10.938-11.211 23.789-30.844 22.969-60.43-1.0391-16.625-12.688-28.383-28.984-29.258-10.117-0.54688-18.484 2.0234-24.117 7.3828-5.3047 5.0312-8.2031 12.469-8.2031 20.891 0 3.1172 0.54688 6.2344 1.5859 8.9688l-10.281 3.8281c-1.4766-3.9922-2.2422-8.4219-2.2422-12.797 0-11.484 4.1562-21.711 11.648-28.82 7.875-7.4922 19.031-11.047 32.211-10.391 10.5 0.54688 20.18 4.7031 27.234 11.648 7.2734 7.1641 11.484 16.844 12.141 27.945v0.16406c0.92969 33.469-13.672 55.727-26.031 68.469-12.906 13.234-27.672 20.344-35 20.344z"/>
        <path d="m386.7 296.52c-2.0234 0-5.6328-0.4375-7.875-3.2266-0.92969-1.2031-2.3516-3.7188-1.2031-7.3828l10.445 3.2812c0.10938-0.32812 0.16406-1.2578-0.38281-2.2422-0.54688-0.98437-1.3125-1.3672-1.5312-1.4219 0.16406 0.054687 0.49219 0.054687 0.71094 0.054687l0.27344-0.054687h0.16406c1.9141 0 7.7109-0.65625 11.812-3.7188 2.9531-2.1875 6.0156-7.8203 3.7188-12.141-3.9922-7.6016-9.9531-6.0156-10.227-5.9062l-3.0078-10.5c5.0859-1.4766 16.461-0.98437 22.914 11.375 4.9219 9.4062 0.38281 20.617-6.8906 26.031-7.3281 5.4141-16.352 5.8516-18.156 5.9062-0.10938-0.054687-0.38281-0.054687-0.76563-0.054687z"/>
        <path d="m391.23 484.31c-2.5156-5.9609-5.3594-12.469-8.3672-19.414-18.484-42.602-43.859-100.9-44.078-133.71-0.21875-32.43-9.7891-34.617-20.891-37.133-2.5156-0.60156-5.1406-1.1484-7.6562-2.0781-8.8594-3.2812-14.109-9.0781-19.578-15.258-3.7734-4.2109-7.7109-8.5859-13.289-12.852-11.484-8.6953-39.594-1.5859-54.961 5.9609-10.938 5.3594-17.664 15.641-24.828 26.523-1.75 2.625-3.5 5.3594-5.3594 7.9844l-9.0234-6.2891c1.75-2.4609 3.3906-5.0312 5.1953-7.7109 7.6562-11.594 15.531-23.625 29.148-30.297 12.305-6.0156 48.125-18.648 66.391-4.8672 6.4531 4.9219 10.938 9.8984 14.875 14.273 4.9766 5.5781 8.9141 9.9531 15.203 12.25 1.8594 0.71094 4.0469 1.2031 6.3438 1.6953 6.2344 1.4219 14 3.1719 19.906 10.281 6.3438 7.5469 9.3516 19.469 9.4609 37.461 0.21875 30.57 25.047 87.719 43.148 129.39 3.0078 6.9453 5.8516 13.453 8.4219 19.469z"/>
        <path d="m324.19 375.48c-3.5 0-6.6719-2.1875-7.875-5.6328l-0.32812-0.92969c-1.3672-3.5-5.5781-10.609-13.672-16.188-11.32-7.875-26.195-10.445-44.188-7.6562-16.953 2.625-30.352 6.3438-39.703 11.102l-4.9219-9.7891c10.391-5.25 24.883-9.2969 42.984-12.141 20.836-3.2266 38.391-0.054688 52.117 9.4609 3.6094 2.5156 6.6719 5.3047 9.1875 8.0938-3.8828-9.1328-10.281-16.242-19.25-21.219-11.484-6.4531-23.68-7.3828-28.547-7-3.1719 0.27344-6.5078 0.98437-10.445 1.8594-11.156 2.4062-26.414 5.6875-48.891-0.32812-5.5234-1.4766-10.445-2.1328-14.602-1.9141l-0.54688-10.938c5.3047-0.27344 11.375 0.49219 17.992 2.2422 19.906 5.3594 32.594 2.625 43.75 0.16406 4.1016-0.875 7.9844-1.75 11.867-2.0234 6.4531-0.54688 21 0.60156 34.781 8.3672 11.539 6.4531 25.812 19.523 28.656 45.117 0.49219 4.3203-2.2422 8.1484-6.4531 9.0781-0.60156 0.21875-1.2578 0.27344-1.9141 0.27344z"/>
        <path d="m344.2 500.23c-13.945-54.906-36.094-117.69-56.219-129.28-19.906-11.43-47.195-3.5547-59.719 4.1562l-5.6875-9.3516c15.258-9.3516 46.703-18.211 70.875-4.2656 12.906 7.4375 25.758 28.492 39.266 64.422 10.391 27.727 18.32 56.766 22.094 71.641z"/>


    </g>
</svg>
