<svg xmlns="http://www.w3.org/2000/svg" xmlns:xlink="http://www.w3.org/1999/xlink" width="18.549" height="10.261" viewBox="0 0 18.549 10.261">
  <defs>
    <clipPath id="clip-path">
      <rect id="Rectangle_20" data-name="Rectangle 20" width="18.549" height="10.261" fill="none" stroke="rgba(0,0,0,0)" stroke-width="1"/>
    </clipPath>
  </defs>
  <g id="eye" transform="translate(-189.472 -449)" opacity="0.5">
    <g id="Group_21" data-name="Group 21" transform="translate(189.472 449)">
      <g id="Group_20" data-name="Group 20" transform="translate(0 0)" clip-path="url(#clip-path)">
        <path id="Path_18" data-name="Path 18" d="M18.866,5.444A11.541,11.541,0,0,1,9.79,10.387,11.541,11.541,0,0,1,.717,5.444,11.541,11.541,0,0,1,9.79.5,11.541,11.541,0,0,1,18.866,5.444Z" transform="translate(-0.517 -0.313)" fill="none" stroke="#d325f9" stroke-miterlimit="10" stroke-width="1"/>
        <path id="Path_19" data-name="Path 19" d="M18.866,5.444A11.541,11.541,0,0,1,9.79,10.387,11.541,11.541,0,0,1,.717,5.444,11.541,11.541,0,0,1,9.79.5,11.541,11.541,0,0,1,18.866,5.444Z" transform="translate(-0.517 -0.313)" fill="none" stroke="#d325f9" stroke-miterlimit="10" stroke-width="1"/>
      </g>
    </g>
    <g id="Ellipse_1" data-name="Ellipse 1" transform="translate(194.531 450.122)" fill="none" stroke="#d325f9" stroke-width="1">
      <circle cx="4.113" cy="4.113" r="4.113" stroke="none"/>
      <circle cx="4.113" cy="4.113" r="3.613" fill="none"/>
    </g>
  </g>
</svg>
