<svg xmlns="http://www.w3.org/2000/svg" xmlns:xlink="http://www.w3.org/1999/xlink" width="30" height="30" viewBox="0 0 30 30">
  <defs>
    <clipPath id="clip-path">
      <rect id="Rectangle_207" data-name="Rectangle 207" width="30" height="30" transform="translate(0 0)" fill="#8bd3cf"/>
    </clipPath>
  </defs>
  <g id="Group_289" data-name="Group 289" transform="translate(0 0)" clip-path="url(#clip-path)">
    <path id="Path_532" data-name="Path 532" d="M16.388,3.7A1.741,1.741,0,1,0,18.13,5.445,1.742,1.742,0,0,0,16.388,3.7" transform="translate(6.33 1.742)" fill="#8bd3cf"/>
    <path id="Path_533" data-name="Path 533" d="M12.663,5.263a7.315,7.315,0,1,0,7.315,7.315,7.323,7.323,0,0,0-7.315-7.315m0,12a4.686,4.686,0,1,1,4.686-4.686,4.692,4.692,0,0,1-4.686,4.686" transform="translate(2.311 2.416)" fill="#8bd3cf"/>
    <path id="Path_534" data-name="Path 534" d="M20.782,29.706H8.922A8.933,8.933,0,0,1,0,20.783V8.922A8.932,8.932,0,0,1,8.922,0h11.86a8.932,8.932,0,0,1,8.924,8.922V20.783a8.933,8.933,0,0,1-8.924,8.922M8.922,2.794A6.134,6.134,0,0,0,2.794,8.922V20.783a6.135,6.135,0,0,0,6.128,6.128h11.86a6.136,6.136,0,0,0,6.13-6.128V8.922a6.135,6.135,0,0,0-6.13-6.128Z" transform="translate(0 0.141)" fill="#8bd3cf"/>
  </g>
</svg>
