<svg xmlns="http://www.w3.org/2000/svg" width="259.977" height="220.351" viewBox="0 0 259.977 220.351">
  <g id="Group_3" data-name="Group 3" transform="translate(-149.914 -157.255)">
    <path id="Path_8" data-name="Path 8" d="M302.534,269.506s.594-3.8,2.435-4.576a5.815,5.815,0,0,0,2.258-1.348s.588,2.5-.61,4.094-3.906,1.806-3.906,1.806a6.631,6.631,0,0,0,2.728-2.628A30.283,30.283,0,0,0,302.534,269.506Z" transform="translate(72.158 50.271)" fill="#9ab6e2"/>
    <g id="Group_32" data-name="Group 32" transform="translate(158.621 375.033)">
      <path id="Path_9" data-name="Path 9" d="M352.436,307.695H270a1.286,1.286,0,1,1,0-2.573h82.435a1.286,1.286,0,1,1,0,2.573Z" transform="translate(-102.453 -305.122)" fill="#9ab6e2"/>
      <path id="Path_10" data-name="Path 10" d="M317.858,307.695H157.113a1.286,1.286,0,1,1,0-2.573H317.858a1.286,1.286,0,1,1,0,2.573Z" transform="translate(-155.826 -305.122)" fill="#9ab6e2"/>
    </g>
    <g id="Group_42" data-name="Group 42" transform="translate(149.914 250.822)">
      <path id="Path_11" data-name="Path 11" d="M297.125,292.191c-24.855,1.39-54.147-2.533-79.627-6.092-10.317-1.265-43.839-7.2-47.281-7.953A196.885,196.885,0,0,1,181.5,248.978c7.548-16.866,17.576-26.531,37.7-25.007,21.388-.66,45.437.607,65.971,1.7C301.268,229.939,347.365,292.178,297.125,292.191Z" transform="translate(-140.315 -219.365)" fill="#c2cefd" opacity="0.66"/>
      <path id="Path_12" data-name="Path 12" d="M264.973,289.785l-4.734,1.658h-.007l-6.787,2.373-.723-2.066L229,223.938c5.246.239,9.8.477,13.173.661Z" transform="translate(-112.524 -219.295)" fill="#fff" opacity="0.25" style="mix-blend-mode: soft-light;isolation: isolate"/>
      <path id="Path_13" data-name="Path 13" d="M234.927,240.6a4.072,4.072,0,0,0-3.075,4.869l4.218,18.669a4.072,4.072,0,1,0,7.944-1.8L239.8,243.676A4.072,4.072,0,0,0,234.927,240.6Z" transform="translate(-111.222 -211.464)" fill="#383d6c"/>
      <path id="Path_14" data-name="Path 14" d="M331.331,287.99c-5.033-23.772-22.017-56.773-42.954-62.395-16.326-4.384-69.538-7.813-89.625-.778l.038-.038s-11.5-.508-13.744,1.121c-2.1,1.527,4.847,3.146,6.555,3.928l-.038.034c2.652,1.732-14.974,26.55-17.61,38.284-2.857,11.047-4.348,2.234-4.582.645-4.977,13.734-4.349,13.059-7.027,22.079,10.8,1.94,77.964,15.9,130.251,16.532C317.487,306.3,330.985,305.946,331.331,287.99Zm-30.481,8.477c-33.2,1.518-70.724-4.658-103.981-9.928-13.766-2.326-22.928-4.118-22.928-4.118,1.816-5.6,15.223-49.247,31.829-52.479,25.286-3.966,57.751-.954,83.119,0C306.837,235.978,347.99,298.79,300.85,296.467Z" transform="translate(-144.037 -220.785)" fill="#e4ecf4"/>
      <g id="Group_34" data-name="Group 34" transform="translate(158.598 34.271)">
        <g id="Group_33" data-name="Group 33">
          <path id="Path_15" data-name="Path 15" d="M264.066,256.032c-2.4,6.225-5.139,10.965-6.118,10.588s.172-5.731,2.572-11.955,5.139-10.966,6.118-10.589S266.465,249.806,264.066,256.032Z" transform="translate(-257.599 -244.055)"/>
        </g>
      </g>
      <path id="Path_16" data-name="Path 16" d="M205.362,288.754l-11.535,4.031-4.3-12.3L177.878,247.2a86.054,86.054,0,0,1,8.18-13.616l17.189,49.135Z" transform="translate(-136.693 -214.735)" fill="#fff" opacity="0.25" style="mix-blend-mode: soft-light;isolation: isolate"/>
      <path id="Path_17" data-name="Path 17" d="M210.721,288.008,205.6,289.8l-1.4-4-18.7-53.454a26.472,26.472,0,0,1,4.414-3.826l20.355,58.187Z" transform="translate(-133.088 -217.126)" fill="#fff" opacity="0.5" style="mix-blend-mode: soft-light;isolation: isolate"/>
      <path id="Path_18" data-name="Path 18" d="M239.695,292.471l-.526.184h-.006l-11,3.847-1.828-5.218-22.865-65.377c4.018-.135,8.376-.19,12.872-.184Z" transform="translate(-124.592 -218.451)" fill="#fff" opacity="0.5" style="mix-blend-mode: soft-light;isolation: isolate"/>
      <path id="Path_19" data-name="Path 19" d="M243.145,289.324l-5.124,1.794-22.872-65.377c1.918.021,3.854.047,5.785.088Z" transform="translate(-119.071 -218.442)" fill="#fff" opacity="0.25" style="mix-blend-mode: soft-light;isolation: isolate"/>
      <path id="Path_20" data-name="Path 20" d="M370.571,260.688l-46.721-9.426H190.793c-32.721,0-38.667,26.527-38.667,59.249H402.56V299.777A39.878,39.878,0,0,0,370.571,260.688Z" transform="translate(-148.868 -206.376)" fill="#e4ecf4"/>
      <path id="Path_21" data-name="Path 21" d="M159.836,271.42a8.358,8.358,0,0,0-.32-3.192,13.883,13.883,0,0,1-2.25,2.683c-.96.96-1.776,2.038-2.7,3.031-1.848,8.467-2.445,18.2-2.445,28.547h25.923a15.424,15.424,0,0,0,2.583-6.739,4.577,4.577,0,0,0-1.047-3.6c-1.1-1.128-2.869-.464-4.242-.837a3.16,3.16,0,0,1-1.657-1.071,4.638,4.638,0,0,1-.7-1.667,2.919,2.919,0,0,0-2.516-2.348,14.126,14.126,0,0,0-3.856.2,12.853,12.853,0,0,1-3.412.022c-2.337-.323-5.289-1.162-6.522-3.374-1.567-2.815.941-5.314,2.181-7.663A9.994,9.994,0,0,0,159.836,271.42Z" transform="translate(-148.868 -198.355)" fill="#080d28" opacity="0.2"/>
      <path id="Path_22" data-name="Path 22" d="M322.806,284.964a8.834,8.834,0,0,0-4.857-1.756c-4.189-.521-8.435.037-12.625.258-2.281.119-4.569.074-6.853.074h-7.794c-10.451,0-20.9.047-31.354-.069-10.544-.116-21.086-.361-31.628-.546-9.872-.175-19.746-.29-29.619-.209a16.268,16.268,0,0,1,1.53,4.386,37.808,37.808,0,0,1,.647,8.553H326.195a64.218,64.218,0,0,0-1.246-6.985A7.684,7.684,0,0,0,322.806,284.964Z" transform="translate(-127.144 -191.518)" fill="#080d28" opacity="0.2"/>
      <path id="Path_23" data-name="Path 23" d="M330.587,283.634H304.321a10.843,10.843,0,0,1,1.171,3.507,34.832,34.832,0,0,1,.038,8.065H330.6V284.472C330.6,284.191,330.593,283.914,330.587,283.634Z" transform="translate(-76.911 -191.071)" fill="#080d28" opacity="0.2"/>
      <path id="Path_24" data-name="Path 24" d="M359.827,264c-2.885,3.6-8.305,3.324-12.293,2.3-4.838-1.25-9.311-3.622-13.743-5.86a58.319,58.319,0,0,0-5.844-2.731,68.559,68.559,0,0,0-9.545-2.822,69.341,69.341,0,0,0-19.148-1.44c-2.941.184-5.906.458-8.837.778a41.547,41.547,0,0,0-7.934,1.451,7.48,7.48,0,0,0-4.7,3.731,18.744,18.744,0,0,0-1.359,6.362c-.429,3.907-.166,7.884-.452,11.807-.286,3.977-.714,8.632-3.078,11.99a7.063,7.063,0,0,1-1.292,1.406c-1.2-5.245-.194-10.865-.113-16.173a109.961,109.961,0,0,0-.52-11.288.406.406,0,0,0,.119-.3V254a.445.445,0,0,0,0-.617v-.074a.444.444,0,0,0-.857-.143c-3.844-.675-53.218,7.3-92.615-1.859,13.486-.109,20.235-.032,21.7-.032H311.8l46.721,9.424c.714.143,1.417.315,2.113.492A3.583,3.583,0,0,1,359.827,264Z" transform="translate(-136.815 -206.384)" fill="#080d28" opacity="0.1"/>
      <path id="Path_25" data-name="Path 25" d="M406.863,293.417a8.14,8.14,0,0,1-8.145,8.139H158.06a8.142,8.142,0,1,1,0-16.285H398.719A8.141,8.141,0,0,1,406.863,293.417Z" transform="translate(-149.914 -190.297)" fill="#9ab6e2"/>
      <path id="Path_26" data-name="Path 26" d="M218.575,299.487a24.129,24.129,0,0,1-.943,6.688h-46.1a23.982,23.982,0,0,1,21.027-30.588c.052-.006.108-.006.159-.012.246-.018.5-.034.748-.046.367-.018.738-.028,1.115-.028a23.969,23.969,0,0,1,24,23.986Z" transform="translate(-140.14 -194.916)" fill="#84a2ce"/>
      <path id="Path_27" data-name="Path 27" d="M324.85,299.487a23.912,23.912,0,0,1-.943,6.688h-46.1a23.985,23.985,0,0,1,16.977-29.9c.423-.113.851-.211,1.286-.3a24.016,24.016,0,0,1,2.764-.395c.663-.052,1.331-.085,2.022-.085a23.969,23.969,0,0,1,23.992,23.986Z" transform="translate(-89.892 -194.916)" fill="#84a2ce"/>
      <g id="Group_35" data-name="Group 35" transform="translate(189.4 82.616)">
        <path id="Path_28" data-name="Path 28" d="M282.281,296.818a16.169,16.169,0,0,0,14.813,16.118c.449.041.9.06,1.364.06a16.174,16.174,0,1,0,0-32.348c-.465,0-.915.021-1.364.06A16.166,16.166,0,0,0,282.281,296.818Z" transform="translate(-276.732 -275.099)"/>
        <path id="Path_29" data-name="Path 29" d="M278.513,298.6a21.715,21.715,0,0,0,19.9,21.647c.6.054,1.206.081,1.831.081a21.723,21.723,0,1,0,0-43.446c-.624,0-1.227.028-1.831.081A21.713,21.713,0,0,0,278.513,298.6Zm19.9,13.068a13.188,13.188,0,0,1,0-26.124,12.25,12.25,0,0,1,1.831-.134,13.195,13.195,0,0,1,0,26.39A12.641,12.641,0,0,1,298.409,311.666Z" transform="translate(-278.513 -276.88)" fill="#434343"/>
        <path id="Path_30" data-name="Path 30" d="M308.311,295.285a11.187,11.187,0,0,0-.308-2.623l-5.639.37,4.248-3.731a11.488,11.488,0,0,0-3.706-3.708l-3.722,4.24.358-5.629a11.348,11.348,0,0,0-5.251,0l.359,5.607-3.71-4.218a11.394,11.394,0,0,0-3.717,3.713l4.225,3.714-5.613-.359a11.389,11.389,0,0,0,0,5.248l5.619-.358-4.231,3.717a11.451,11.451,0,0,0,3.717,3.713l3.725-4.233-.365,5.622a11.292,11.292,0,0,0,5.237,0l-.367-5.648,3.735,4.255a11.431,11.431,0,0,0,3.706-3.7l-4.248-3.731L308,297.9A11.122,11.122,0,0,0,308.311,295.285Z" transform="translate(-275.195 -273.563)" fill="#434343"/>
        <path id="Path_31" data-name="Path 31" d="M291.182,292.613a3.066,3.066,0,0,0,2.809,3.056c.085.007.171.012.259.012a3.066,3.066,0,0,0,0-6.133c-.088,0-.174,0-.259.01A3.067,3.067,0,0,0,291.182,292.613Z" transform="translate(-272.523 -270.891)"/>
      </g>
      <g id="Group_36" data-name="Group 36" transform="translate(32.419 82.616)">
        <path id="Path_32" data-name="Path 32" d="M175.694,296.818a16.169,16.169,0,0,0,14.815,16.118c.449.041.9.06,1.362.06a16.174,16.174,0,1,0,0-32.348c-.464,0-.913.021-1.362.06A16.166,16.166,0,0,0,175.694,296.818Z" transform="translate(-170.145 -275.099)"/>
        <path id="Path_33" data-name="Path 33" d="M171.926,298.6a21.716,21.716,0,0,0,19.9,21.647c.6.054,1.208.081,1.831.081a21.723,21.723,0,1,0,0-43.446c-.623,0-1.227.028-1.831.081A21.715,21.715,0,0,0,171.926,298.6Zm19.9,13.068a13.188,13.188,0,0,1,0-26.124,12.28,12.28,0,0,1,1.831-.134,13.195,13.195,0,0,1,0,26.39A12.672,12.672,0,0,1,191.822,311.666Z" transform="translate(-171.926 -276.88)" fill="#434343"/>
        <path id="Path_34" data-name="Path 34" d="M201.724,295.285a11.264,11.264,0,0,0-.306-2.623l-5.639.37,4.246-3.731a11.474,11.474,0,0,0-3.706-3.708l-3.72,4.24.358-5.629a11.354,11.354,0,0,0-5.252,0l.359,5.607-3.708-4.218a11.4,11.4,0,0,0-3.717,3.713l4.225,3.714-5.614-.359a11.443,11.443,0,0,0,0,5.248l5.619-.358-4.23,3.717a11.437,11.437,0,0,0,3.717,3.713l3.723-4.233-.365,5.622a11.292,11.292,0,0,0,5.237,0l-.367-5.648,3.735,4.255a11.417,11.417,0,0,0,3.706-3.7l-4.246-3.731,5.639.362A11.2,11.2,0,0,0,201.724,295.285Z" transform="translate(-168.608 -273.563)" fill="#434343"/>
        <path id="Path_35" data-name="Path 35" d="M184.6,292.613a3.065,3.065,0,0,0,2.809,3.056c.084.007.169.012.258.012a3.066,3.066,0,0,0,0-6.133c-.088,0-.174,0-.258.01A3.066,3.066,0,0,0,184.6,292.613Z" transform="translate(-165.936 -270.891)"/>
      </g>
      <path id="Path_36" data-name="Path 36" d="M299.418,287.343c-.435.085-.863.183-1.286.3l-15.457-3.719-.057-.143-12.83-32.1.56-.212,12.772,31.955Z" transform="translate(-93.238 -206.278)" fill="#b9ccdb"/>
      <rect id="Rectangle_86" data-name="Rectangle 86" width="1.714" height="88.501" transform="translate(133.115 6.336)" fill="#b9ccdb"/>
      <rect id="Rectangle_87" data-name="Rectangle 87" width="1.714" height="38.753" transform="translate(90.222 6.336)" fill="#b9ccdb"/>
      <path id="Path_37" data-name="Path 37" d="M196.98,251.446v21.13l-.057.074L186.36,286.9c-.25.012-.5.028-.748.046l10.8-14.566V251.446Z" transform="translate(-133.036 -206.289)" fill="#b9ccdb"/>
      <g id="Group_37" data-name="Group 37" transform="translate(237.264 67.065)">
        <path id="Path_38" data-name="Path 38" d="M311.012,274.122c0,4.308.948,7.8,2.115,7.8s2.119-3.493,2.119-7.8-.947-7.8-2.119-7.8S311.012,269.814,311.012,274.122Z" transform="translate(-311.012 -266.321)"/>
        <path id="Path_39" data-name="Path 39" d="M311.715,273.8c0,3.757.947,6.8,2.116,6.8s2.116-3.047,2.116-6.8S315,267,313.831,267,311.715,270.043,311.715,273.8Z" transform="translate(-310.68 -266)" fill="#9ab6e2"/>
      </g>
      <g id="Group_39" data-name="Group 39" transform="translate(1.692 66.583)">
        <path id="Path_40" data-name="Path 40" d="M153.3,266.015s3.91-.271,5.946,1.153-3.664,12.623-5.293,12.556S153.3,266.015,153.3,266.015Z" transform="translate(-150.144 -265.994)" fill="#e4ecf4"/>
        <g id="Group_38" data-name="Group 38" transform="translate(0 0.021)">
          <path id="Path_41" data-name="Path 41" d="M156,272.954c0,3.837-.948,6.947-2.116,6.947s-2.118-3.111-2.118-6.947.947-6.946,2.118-6.946S156,269.119,156,272.954Z" transform="translate(-150.731 -266.008)"/>
          <path id="Path_42" data-name="Path 42" d="M155.294,272.669c0,3.345-.947,6.058-2.116,6.058s-2.115-2.713-2.115-6.058.948-6.058,2.115-6.058S155.294,269.322,155.294,272.669Z" transform="translate(-151.063 -265.723)" fill="#9ab6e2"/>
        </g>
      </g>
      <rect id="Rectangle_88" data-name="Rectangle 88" width="9.502" height="17.374" rx="3.226" transform="translate(170.723 32.941)" fill="#9ab6e2"/>
      <path id="Path_43" data-name="Path 43" d="M272.546,245.813c-.77-.561-2.19-1.146-2.922-.181-.589.778-.2,1.975.063,2.8.364,1.147.764,2.287,1.029,3.463a7.367,7.367,0,0,1-1.262,6.576,5.66,5.66,0,0,1-1.084,1.021,4.667,4.667,0,0,0,1.01.11h0a4.75,4.75,0,0,0,4.751-4.75v-7.907A14.382,14.382,0,0,1,272.546,245.813Z" transform="translate(-93.908 -209.282)" fill="#080d28" opacity="0.2"/>
      <g id="Group_40" data-name="Group 40" transform="translate(71.464 50.587)">
        <path id="Path_44" data-name="Path 44" d="M209.116,255.617s1.019,4.682-3.563,3.206a30.961,30.961,0,0,1-6.872-2.851C198.834,255.972,209.116,255.617,209.116,255.617Z" transform="translate(-198.325 -254.904)" opacity="0.1"/>
        <path id="Path_45" data-name="Path 45" d="M208.517,255.133H199.15a.712.712,0,1,0,0,1.424h9.367a.712.712,0,0,0,0-1.424Z" transform="translate(-198.437 -255.133)"/>
        <path id="Path_46" data-name="Path 46" d="M205.874,257.348a.764.764,0,1,1-.763-.764A.763.763,0,0,1,205.874,257.348Z" transform="translate(-195.643 -254.447)"/>
      </g>
      <g id="Group_41" data-name="Group 41" transform="translate(139.877 50.587)">
        <path id="Path_47" data-name="Path 47" d="M255.567,255.617s1.018,4.682-3.564,3.206a30.875,30.875,0,0,1-6.871-2.851C245.284,255.972,255.567,255.617,255.567,255.617Z" transform="translate(-244.776 -254.904)" opacity="0.1"/>
        <path id="Path_48" data-name="Path 48" d="M254.966,255.133H245.6a.712.712,0,1,0,0,1.424h9.366a.712.712,0,1,0,0-1.424Z" transform="translate(-244.888 -255.133)"/>
        <path id="Path_49" data-name="Path 49" d="M252.324,257.348a.763.763,0,1,1-.763-.764A.763.763,0,0,1,252.324,257.348Z" transform="translate(-242.094 -254.447)"/>
      </g>
    </g>
    <g id="Group_76" data-name="Group 76" transform="translate(183.974 157.255)">
      <path id="Path_119" data-name="Path 119" d="M278.9,160.086h-1.041a.9.9,0,0,1-.894-.9v-1.04a.9.9,0,0,0-.9-.9h0a.9.9,0,0,0-.9.9v1.04a.9.9,0,0,1-.894.9H273.24a.895.895,0,1,0,0,1.789h1.041a.9.9,0,0,1,.894.9v1.041a.9.9,0,0,0,.9.9h0a.9.9,0,0,0,.9-.9v-1.041a.9.9,0,0,1,.894-.9H278.9a.895.895,0,1,0,0-1.789Z" transform="translate(-126.089 -157.255)" fill="#4166f8" opacity="0.2"/>
      <path id="Path_121" data-name="Path 121" d="M212.536,166.487h-.978a.84.84,0,0,1-.839-.841v-.978a.84.84,0,0,0-.841-.84h0a.84.84,0,0,0-.841.84v.978a.84.84,0,0,1-.839.841h-.978a.84.84,0,0,0,0,1.68h.978a.839.839,0,0,1,.839.84v.978a.842.842,0,0,0,.841.841h0a.842.842,0,0,0,.841-.841v-.978a.839.839,0,0,1,.839-.84h.978a.84.84,0,0,0,0-1.68Z" transform="translate(-157.277 -154.147)" fill="#4166f8" opacity="0.5"/>
    </g>
    <g id="Group_20" data-name="Group 20" transform="translate(-198.327 28.175)">
      <g id="Group_18" data-name="Group 18" transform="translate(495.333 255.359)">
        <path id="Path_104" data-name="Path 104" d="M545.8,320.5a1.465,1.465,0,1,0,1.465,1.465A1.465,1.465,0,0,0,545.8,320.5" transform="translate(-518.995 -305.375)" fill="#fff"/>
        <path id="Path_105" data-name="Path 105" d="M496.884,351.667a1.551,1.551,0,1,0,1.551,1.551,1.552,1.552,0,0,0-1.551-1.551" transform="translate(-495.333 -320.426)" fill="#fff"/>
        <path id="Path_106" data-name="Path 106" d="M524.674,337.11a2.72,2.72,0,0,0-1.52-3.854,1.825,1.825,0,0,0,.117-2.168,2.51,2.51,0,0,0,.545-3.328,2.88,2.88,0,0,0-1.62-4.032,2.527,2.527,0,0,0-.977-1.626,2.3,2.3,0,0,0,.5-1.425,2.324,2.324,0,0,0-4.439-.964,3.347,3.347,0,0,0-1.249-.242c-.108,0-.215.006-.32.016a2.753,2.753,0,0,0-5.276,1.045,2.022,2.022,0,0,0-.265-.027,2.153,2.153,0,0,0-1.993,1.341,2.665,2.665,0,1,0-3.086,4.339,2.23,2.23,0,0,0-.217,1.958,2.928,2.928,0,0,0,.081,5.764,2.315,2.315,0,0,0,.371,2.153,2.3,2.3,0,0,0,1.117,4.31,2.257,2.257,0,0,0,.253-.026,2.373,2.373,0,0,0,.645,2.863,3.227,3.227,0,0,0,5.407,2.076,3.509,3.509,0,0,0,3.372-.093,2.7,2.7,0,0,0,4.655-1.462,3.132,3.132,0,0,0,2.322-1.079c.029,0,.057,0,.086,0a2.972,2.972,0,0,0,1.49-5.544" transform="translate(-498.794 -304.087)" fill="#fff"/>
        <path id="Path_107" data-name="Path 107" d="M527.235,341.9a2.074,2.074,0,0,0-1.159-2.938,1.39,1.39,0,0,0,.089-1.652,1.912,1.912,0,0,0,.416-2.536,2.193,2.193,0,0,0-1.234-3.073,1.925,1.925,0,0,0-.745-1.24,1.754,1.754,0,0,0,.381-1.086,1.771,1.771,0,0,0-3.384-.734,2.544,2.544,0,0,0-.952-.185c-.082,0-.163,0-.243.012a2.1,2.1,0,0,0-4.022.8,1.607,1.607,0,0,0-.2-.02,1.641,1.641,0,0,0-1.519,1.022,2.032,2.032,0,1,0-2.353,3.308,1.7,1.7,0,0,0-.165,1.491,2.231,2.231,0,0,0,.062,4.393,2.49,2.49,0,0,1-.623,3.169,1.757,1.757,0,0,0,1.757,1.758c.067,0,.129-.013.193-.019a1.807,1.807,0,0,0,.492,2.182,2.459,2.459,0,0,0,4.121,1.583,2.674,2.674,0,0,0,2.57-.071,2.056,2.056,0,0,0,3.548-1.114,2.388,2.388,0,0,0,1.77-.823c.023,0,.043,0,.066,0a2.265,2.265,0,0,0,1.135-4.226" transform="translate(-502.577 -308.614)" fill="#b8c9f1"/>
        <path id="Path_108" data-name="Path 108" d="M541.367,371.083a2.284,2.284,0,1,0,2.284,2.284,2.284,2.284,0,0,0-2.284-2.284" transform="translate(-516.46 -329.802)" fill="#fff"/>
        <path id="Path_109" data-name="Path 109" d="M557.431,291.25a1.681,1.681,0,1,0,1.681,1.681,1.68,1.68,0,0,0-1.681-1.681" transform="translate(-524.509 -291.25)" fill="#fff"/>
        <path id="Path_110" data-name="Path 110" d="M527.418,335.747c-1.224-7.754-.948-10.687-5.774-10.428s-7.412.948-7.929,3.275.69,3.188,1.207,6.549a19.091,19.091,0,0,1,.086,6.981c-.344,2.672,1.034,5.516,5.688,4.74s8.618-1.982,8.273-4.05-1.034-3.792-1.551-7.067" transform="translate(-504.149 -307.694)" fill="#3468b0"/>
      </g>
      <g id="Group_19" data-name="Group 19" transform="translate(509.096 216.928)">
        <path id="Path_111" data-name="Path 111" d="M537.864,339.383a4.038,4.038,0,0,1-1.724,5,17.3,17.3,0,0,1-8.489,2.844c-1.853.086-2.284-.948-2.068-1.551s3.577-1.638,3.534-2.456-.56-2.887-1.465-2.585a19.882,19.882,0,0,1-3.1.689c-1.293.216-2.628-1.551-.6-2.413a72.2,72.2,0,0,1,7.454-2.155l-.388-2.672s3.749,1.078,5.171,3.146,1.681,2.154,1.681,2.154" transform="translate(-522.411 -273.503)" fill="#ffdebb"/>
        <path id="Path_112" data-name="Path 112" d="M530.534,352.206a19.058,19.058,0,0,1-4.482,1.034c-2.8.345-2.715-1.9-.776-2.5a39.554,39.554,0,0,1,4.094-.991" transform="translate(-522.881 -281.069)" fill="#ffdebb"/>
        <path id="Path_113" data-name="Path 113" d="M528.267,346s-2.327.388-4.223.776-2.2.991-2.068,1.9,1.077.862,2.715.517,4.309-.862,4.309-.862" transform="translate(-521.95 -279.258)" fill="#ffdebb"/>
        <path id="Path_114" data-name="Path 114" d="M617.246,461.341s-.3,5.257-.129,5.559,8.618.474,11.764.517,2.758-.388,2.887-1.207.086-2.025-3.318-2.973-4.223-1.077-4.61-1.637-6.593-.259-6.593-.259" transform="translate(-567.881 -334.918)" fill="#2a313f"/>
        <path id="Path_115" data-name="Path 115" d="M640.482,467.554c.129-.819.086-2.025-3.318-2.973-.783-.218-1.424-.391-1.96-.538a21.185,21.185,0,0,1-.1,4.675c.973.02,1.842.034,2.487.043,3.146.043,2.758-.388,2.887-1.207" transform="translate(-576.595 -336.262)" fill="#3468b0"/>
        <path id="Path_116" data-name="Path 116" d="M631.768,470.5v0c-.14-.007-1.152-.007-7.111.091a33.942,33.942,0,0,1-7.593-.448,4.415,4.415,0,0,0,.052,1.051c.172.3,8.618.474,11.764.517s2.758-.388,2.887-1.207" transform="translate(-567.881 -339.203)" fill="#20222b"/>
        <path id="Path_117" data-name="Path 117" d="M584.872,461.341s.3,5.257.129,5.559-8.618.474-11.764.517-2.758-.388-2.887-1.207-.086-2.025,3.318-2.973,4.223-1.077,4.611-1.637,6.593-.259,6.593-.259" transform="translate(-545.305 -334.918)" fill="#2a313f"/>
        <path id="Path_118" data-name="Path 118" d="M570.35,467.554c-.129-.819-.086-2.025,3.318-2.973.783-.218,1.424-.391,1.96-.538a21.241,21.241,0,0,0,.1,4.675c-.972.02-1.841.034-2.486.043-3.146.043-2.758-.388-2.887-1.207" transform="translate(-545.305 -336.262)" fill="#3468b0"/>
        <path id="Path_119-2" data-name="Path 119" d="M570.383,470.5v0c.139-.007,1.152-.007,7.111.091a33.932,33.932,0,0,0,7.592-.448,4.437,4.437,0,0,1-.051,1.051c-.173.3-8.618.474-11.764.517s-2.758-.388-2.888-1.207" transform="translate(-545.338 -339.203)" fill="#20222b"/>
        <path id="Path_120" data-name="Path 120" d="M575.833,238.585s3.275,5.3,8.661,5.171,2.327-6.205,2.327-6.205A19.95,19.95,0,0,0,585.486,236c-.129-.043-9.653,2.585-9.653,2.585" transform="translate(-547.97 -226.138)" fill="#20222b"/>
        <rect id="Rectangle_35" data-name="Rectangle 35" width="5.473" height="7.369" transform="translate(44.927 28.434)" fill="#ffdebb"/>
        <path id="Path_121-2" data-name="Path 121" d="M604.348,232l-13.041,2.633a6.141,6.141,0,0,0-4.924,5.97l-.055,6.95-1.952,1.64,1.927,1.592-.019,2.3c-.041,5.233,4.669,7.28,9.49,5.245a46.4,46.4,0,0,0,8.661-5c1.358-1,2.8-4.405,2.512-6.07Z" transform="translate(-552.095 -224.206)" fill="#ffdebb"/>
        <path id="Path_122" data-name="Path 122" d="M593.788,239.1a29.168,29.168,0,0,0,6.874-1.708,41.571,41.571,0,0,0,6.2-1.992l-.578-3.4-13.041,2.633a6.137,6.137,0,0,0-4.854,5.132A19.5,19.5,0,0,1,593.788,239.1Z" transform="translate(-554.035 -224.206)" fill="#ffdebb"/>
        <path id="Path_123" data-name="Path 123" d="M609.429,267.41c-.02.032-.042.063-.062.1a22.8,22.8,0,0,1-3.4,4.873,18.212,18.212,0,0,1-5.438,3.794,9.559,9.559,0,0,0,3.044-.744,46.4,46.4,0,0,0,8.661-5,3.652,3.652,0,0,0,.652-.656A7.015,7.015,0,0,1,609.429,267.41Z" transform="translate(-559.897 -241.306)" fill="#ffdebb"/>
        <path id="Path_124" data-name="Path 124" d="M596.038,246.764c-.03.043-.4-.235-.941-.421a1.531,1.531,0,0,0-.42-.08.432.432,0,0,0-.323.159,3.7,3.7,0,0,0-.5.742c-.512,1.006-.556,1.064-.657,1.023-.074-.028-.177-.135.358-1.186a3.316,3.316,0,0,1,.586-.807,1.049,1.049,0,0,1,.246-.164.561.561,0,0,1,.311-.049,1.638,1.638,0,0,1,.489.137,1.869,1.869,0,0,1,.854.646" transform="translate(-556.325 -230.955)" fill="#20222b"/>
        <path id="Path_125" data-name="Path 125" d="M597.875,269.874a2.869,2.869,0,0,1-.713,1.148,3.7,3.7,0,0,1-.991.793,2.918,2.918,0,0,1-1.227.317,1.961,1.961,0,0,1-1.348-.343c-.17-.144-.15-.2-.117-.235s.068-.046.242.029a2.609,2.609,0,0,0,1.206.208,2.865,2.865,0,0,0,1.1-.258,3.878,3.878,0,0,0,.958-.679c.537-.516.845-1.006.886-.981" transform="translate(-556.481 -242.496)" fill="#20222b"/>
        <path id="Path_126" data-name="Path 126" d="M619.055,256.147a1.341,1.341,0,0,0-.069-.517,1.1,1.1,0,0,0-1.079-.51.982.982,0,0,0-.654.357,1.7,1.7,0,0,0-.315.766,1.743,1.743,0,0,0,.04.82,3.149,3.149,0,0,0,.358.718,1.034,1.034,0,0,1,.172.416.534.534,0,0,1-.193.415,2.7,2.7,0,0,1-.456.352,4.376,4.376,0,0,1-.6.324c-.277.116-.324.088-.345.047s-.013-.091.228-.258l.546-.373a2.8,2.8,0,0,0,.39-.322c.063-.064.115-.143.1-.157a.833.833,0,0,0-.126-.269,3.255,3.255,0,0,1-.385-.8,2.024,2.024,0,0,1-.029-.975,1.928,1.928,0,0,1,.409-.89,1.263,1.263,0,0,1,2.069.284.6.6,0,0,1-.053.569" transform="translate(-567.32 -235.254)" fill="#20222b"/>
        <path id="Path_127" data-name="Path 127" d="M595.333,253.962c0-.762.251-1.379.561-1.379s.56.617.56,1.379-.251,1.379-.56,1.379-.561-.617-.561-1.379" transform="translate(-557.387 -234.146)" fill="#20222b"/>
        <path id="Path_128" data-name="Path 128" d="M602.119,244.285a9.657,9.657,0,0,0,3.921,1.767s-3.361,1.853-5.99,1.767-2.973-2.37-3.792-5.128a3.192,3.192,0,0,0,3.49-.862c1.465-1.681,2.025-4.525.345-6.248s-3.965.6-3.965,1.594a9.721,9.721,0,0,1-.9-9.653,34.85,34.85,0,0,1-19.391,1.853,21.176,21.176,0,0,0,4.7-3.878s-1.293-1.163-4.439-1.25c0,0,8.058-5.86,15.341-7.11s11.333,3.4,11.98,5.774c0,0,1.81,1.336,1.9,1.766s-1.637-.215-2.068-.215c0,0,3.534.948,4.352,6.549s-3.361,12.281-5.472,13.272" transform="translate(-547.97 -216.928)" fill="#20222b"/>
        <path id="Path_129" data-name="Path 129" d="M611.585,283.917H609.2c-1.721,0-3.117.537-3.117,1.2v1.731H614.7v-1.731c0-.662-1.4-1.2-3.116-1.2" transform="translate(-562.578 -249.277)" fill="#d6e6ed"/>
        <path id="Path_130" data-name="Path 130" d="M620.083,288.487a38.114,38.114,0,0,1,5.9.043,7.01,7.01,0,0,1,5.214,6.464c.259,3.964-.215,14.134-.259,16.245s-.819,5.99-4.4,5-6.119-13.272-6.119-13.272Z" transform="translate(-569.339 -251.434)" fill="#eff6ff"/>
        <path id="Path_131" data-name="Path 131" d="M601.427,287.737c5.645.077,7.714,0,9.308.474s1.939,1.681,1.9,5.731-.948,29.087-.948,29.087l-23.183.086s.646-33.74,1.12-34.215,2.284-1.293,11.807-1.163" transform="translate(-554.087 -251.116)" fill="#fff"/>
        <path id="Path_132" data-name="Path 132" d="M610.255,352.75l-1.439,56.708a44.292,44.292,0,0,1-6.981,0l-.646-46.409h-5.214l-3.62,46.151a22.27,22.27,0,0,1-6.937-.043l1.629-56.406Z" transform="translate(-552.598 -282.517)" fill="#434343"/>
        <path id="Path_133" data-name="Path 133" d="M569.781,289.9c-.612.27-2.973,3.878-5.257,9.48s-3.275,8.144-4.05,9.049-13.057,6.981-13.057,6.981a9.608,9.608,0,0,0,2.628,5.516s12.927-5.947,15.039-7.455,6.421-12.884,7.2-14.564.129-10.17-2.5-9.006" transform="translate(-534.248 -252.113)" fill="#eff6ff"/>
        <path id="Path_134" data-name="Path 134" d="M588.393,355.9h23.219l.08-3.146H588.484Z" transform="translate(-554.035 -282.517)" fill="#d6e6ed"/>
        <path id="Path_135" data-name="Path 135" d="M610.261,303.155c.125-3.825.37-12.9-.078-15.047a16.721,16.721,0,0,0-2.832-.256,20.76,20.76,0,0,1,.368,4.272c.043,4.568-.043,6.55-.043,6.55H596.687V287.8c-1.187.034-2.176.089-3,.159.074,2.6.348,12.7.2,14.167-.167,1.622-2.3,5.64-5.046,5.725-.2,7.912-.341,15.3-.341,15.3l23.183-.086s.288-7.971.547-15.646a5.415,5.415,0,0,1-1.969-4.262" transform="translate(-554.087 -251.15)" fill="#3468b0"/>
        <path id="Path_136" data-name="Path 136" d="M588.535,352.75c-.023,1.116-.035,1.767-.035,1.767l23.183-.086s.023-.62.06-1.681Z" transform="translate(-554.087 -282.517)"/>
      </g>
    </g>
  </g>
</svg>
