<svg xmlns="http://www.w3.org/2000/svg" width="20" height="16" viewBox="0 0 20 16">
  <g id="_3844438_hamburger_menu_more_navigation_icon" data-name="3844438_hamburger_menu_more_navigation_icon" transform="translate(-6 -8)">
    <path id="XMLID_314_" d="M26,16a2,2,0,0,1-2,2H8a2,2,0,0,1,0-4H24A2,2,0,0,1,26,16Z"/>
    <path id="XMLID_315_" d="M26,8a2,2,0,0,1-2,2H8A2,2,0,0,1,8,6H24A2,2,0,0,1,26,8Z" transform="translate(0 2)"/>
    <path id="XMLID_316_" d="M26,24a2,2,0,0,1-2,2H8a2,2,0,0,1,0-4H24A2,2,0,0,1,26,24Z" transform="translate(0 -2)"/>
  </g>
</svg>
