<svg xmlns="http://www.w3.org/2000/svg" width="31.4" height="31.399" viewBox="0 0 31.4 31.399">
  <path id="Path_24" data-name="Path 24" d="M5.155,0C6.033,0,6.912,0,7.79.007A2.392,2.392,0,0,1,10.3,2.449a18.769,18.769,0,0,0,.809,5.126,2.656,2.656,0,0,1-.536,2.672c-.784.945-1.481,1.962-2.238,2.931a.566.566,0,0,0-.027.726,18.755,18.755,0,0,0,7.8,7.785.564.564,0,0,0,.724-.055c1.016-.791,2.056-1.552,3.073-2.342a2.4,2.4,0,0,1,2.257-.456,20.714,20.714,0,0,0,5.471.871,2.36,2.36,0,0,1,2.351,2.422c.022,1.8.019,3.592,0,5.388A2.383,2.383,0,0,1,27.454,30,27.14,27.14,0,0,1,7.891,21.7,26.857,26.857,0,0,1,.281,6.346,32.038,32.038,0,0,1,0,2.5,2.371,2.371,0,0,1,2.461.008c.9-.016,1.8,0,2.694,0" transform="translate(0.7 0.699)" fill="none" stroke="#0a84e1" stroke-width="1.4"/>
</svg>
