<svg id="Group_34" data-name="Group 34" xmlns="http://www.w3.org/2000/svg" xmlns:xlink="http://www.w3.org/1999/xlink" width="40.347" height="40.359" viewBox="0 0 40.347 40.359">
  <defs>
    <clipPath id="clip-path">
      <rect id="Rectangle_50" data-name="Rectangle 50" width="40.347" height="40.359" fill="#0a84e1"/>
    </clipPath>
  </defs>
  <g id="Group_33" data-name="Group 33" clip-path="url(#clip-path)">
    <path id="Path_35" data-name="Path 35" d="M30.431,40.359a15.6,15.6,0,0,1-4.331-.573,27.12,27.12,0,0,1-6.21-2.626A42.954,42.954,0,0,1,11.2,30.647,46.952,46.952,0,0,1,6,24.8,34.505,34.505,0,0,1,1.2,16.219,17.145,17.145,0,0,1,0,10.29,8.107,8.107,0,0,1,.842,6.465a6.157,6.157,0,0,1,1.11-1.55Q4.141,2.739,6.32.555c.739-.738,1.2-.741,1.942,0q3.961,3.955,7.918,7.913a2.378,2.378,0,0,1,.279.32.978.978,0,0,1-.045,1.257,4.313,4.313,0,0,1-.322.34c-1.254,1.254-2.5,2.512-3.768,3.756a.6.6,0,0,0-.166.749,24.059,24.059,0,0,0,3.486,5.916,26.21,26.21,0,0,0,3.328,3.52,19.01,19.01,0,0,0,6.383,3.9.691.691,0,0,0,.828-.178c1.251-1.277,2.523-2.534,3.787-3.8.08-.08.158-.163.243-.238a1.008,1.008,0,0,1,1.455-.03,3.185,3.185,0,0,1,.249.232q3.928,3.927,7.855,7.855c.763.764.766,1.215.009,1.976q-2.207,2.217-4.424,4.425a6.321,6.321,0,0,1-3.372,1.686c-.61.115-1.234.164-1.554.205" transform="translate(0 0)" fill="#0a84e1"/>
  </g>
</svg>
