<svg xmlns="http://www.w3.org/2000/svg" xmlns:xlink="http://www.w3.org/1999/xlink" width="57.51" height="57.489" viewBox="0 0 57.51 57.489">
  <defs>
    <clipPath id="clip-path">
      <rect id="Rectangle_66" data-name="Rectangle 66" width="57.51" height="57.489" fill="#1aa9a0"/>
    </clipPath>
  </defs>
  <g id="Group_56" data-name="Group 56" clip-path="url(#clip-path)">
    <path id="Path_62" data-name="Path 62" d="M22.472,127.475l2.23-1.563a6.393,6.393,0,0,1-2.238-5.51,6.094,6.094,0,0,1,2.117-4.114,6.269,6.269,0,0,1,8.442.13,6.07,6.07,0,0,1,2.031,4.806,6.457,6.457,0,0,1-2.277,4.7l2.193,1.49a11.882,11.882,0,0,1,6.686-7.269,6.953,6.953,0,0,1-.434-10.416,6.909,6.909,0,1,1,9.078,10.4c.19.112.357.218.531.31a11.716,11.716,0,0,1,6.634,10.646c.084,3.328.028,6.659.013,9.989a3.433,3.433,0,0,1-3.625,3.517c-5.6-.009-11.208.015-16.811.014q-16.6,0-33.2-.021A3.482,3.482,0,0,1,0,140.77c0-3.042-.009-6.085,0-9.127a11.858,11.858,0,0,1,6.882-11.287c.1-.051.193-.119.35-.217a6.916,6.916,0,0,1-2.609-5.91,6.675,6.675,0,0,1,2.278-4.653,6.871,6.871,0,0,1,9.487.309,6.974,6.974,0,0,1-.646,10.277,11.835,11.835,0,0,1,6.725,7.312M19.55,142.324v-.847c0-2.3.01-4.6,0-6.9a9.99,9.99,0,0,1,.917-4.315,1.536,1.536,0,0,0,.113-.813,9.223,9.223,0,0,0-9.559-7.852A9.448,9.448,0,0,0,2.3,130.38c-.111,3.566-.036,7.137-.026,10.707a1.143,1.143,0,0,0,1.273,1.233c.79.016,1.581,0,2.371,0H19.55m18.385-.079a2.115,2.115,0,0,0,.318.068c5.2,0,10.392.008,15.588-.01.943,0,1.327-.446,1.329-1.406q.009-5.03,0-10.059a8.726,8.726,0,0,0-.115-1.213,9.447,9.447,0,0,0-8.629-8A9.305,9.305,0,0,0,37.05,128.7a2.5,2.5,0,0,0,.145,2,4.112,4.112,0,0,1,.452,1.355,16.483,16.483,0,0,1,.275,2.488c.035,2.558.013,5.116.013,7.708m-2.331.031c0-2.924.112-5.754-.029-8.573a6.8,6.8,0,0,0-6.488-6.33,6.661,6.661,0,0,0-7.1,5.678c-.319,3.008-.123,6.071-.151,9.11,0,.038.049.076.077.115ZM16.1,114.727a4.615,4.615,0,1,0-4.619,4.6,4.608,4.608,0,0,0,4.619-4.6M45.988,119.3a4.594,4.594,0,1,0-4.6-4.548,4.609,4.609,0,0,0,4.6,4.548m-21.3,1.758a4.029,4.029,0,1,0,3.973-4.068,4.011,4.011,0,0,0-3.973,4.068" transform="translate(0 -87.122)" fill="#1aa9a0"/>
    <path id="Path_63" data-name="Path 63" d="M86.883,2.831A10.394,10.394,0,0,1,91.027.4C96.8-1.309,101,2.694,101.665,7.469c.564,4.039-.84,7.5-3.352,10.554A23.783,23.783,0,0,1,87.246,25.18a1.143,1.143,0,0,1-.7.015c-4.6-1.6-8.73-3.929-11.7-7.925A13.148,13.148,0,0,1,71.98,8.513,8.708,8.708,0,0,1,76.423.933c2.845-1.605,6.793-1.084,9.618,1.188.26.21.512.43.843.709M74.2,8.824a11.8,11.8,0,0,0,2.232,6.792c2.536,3.585,6.135,5.692,10.148,7.2a1.2,1.2,0,0,0,.755-.057,24.011,24.011,0,0,0,5.961-3.113,15.045,15.045,0,0,0,5.469-6.692,8.634,8.634,0,0,0-.309-7.882,5.423,5.423,0,0,0-5.917-2.7,7.511,7.511,0,0,0-4.607,2.693c-.717.86-1.36.863-2.073.042a10.174,10.174,0,0,0-.835-.89C81.895,1.387,76.078.975,74.437,7.207A12.238,12.238,0,0,0,74.2,8.824" transform="translate(-58.145 0)" fill="#1aa9a0"/>
  </g>
</svg>
