<svg id="Group_52" data-name="Group 52" xmlns="http://www.w3.org/2000/svg" xmlns:xlink="http://www.w3.org/1999/xlink" width="63.993" height="57.489" viewBox="0 0 63.993 57.489">
  <defs>
    <clipPath id="clip-path">
      <rect id="Rectangle_63" data-name="Rectangle 63" width="63.993" height="57.489" fill="#1aa9a0"/>
    </clipPath>
  </defs>
  <g id="Group_51" data-name="Group 51" clip-path="url(#clip-path)">
    <path id="Path_54" data-name="Path 54" d="M0,43.611c.189-1.209.331-2.428.576-3.625a54.93,54.93,0,0,1,6.5-16.326q.481-.839,1-1.659a1.251,1.251,0,0,1,1.8-.549,1.266,1.266,0,0,1,.323,1.855,62.533,62.533,0,0,0-4.635,9.039,37.84,37.84,0,0,0-3,11.416,12.328,12.328,0,0,0,1.733,8.2c1.863,2.753,3.926,3.56,7.143,2.692a21.435,21.435,0,0,0,3-1.03,22.988,22.988,0,0,1,6.093-1.752,2.982,2.982,0,0,0,2.758-2.522,29.847,29.847,0,0,0,.854-6.735c.047-6.2.016-12.406.016-18.7-.168.11-.333.2-.481.317a21.76,21.76,0,0,0-6.846,9.282,1.015,1.015,0,0,0,.038.808,20.844,20.844,0,0,0,1.719,2.346c.542.617.7,1.275.242,1.831a1.247,1.247,0,0,1-1.879.078c-.467-.379-.914-.782-1.4-1.2-.174.942-.436,1.982-.544,3.038-.182,1.778-.277,3.566-.386,5.351-.052.859-.52,1.4-1.271,1.392a1.238,1.238,0,0,1-1.225-1.424c.07-1.807.182-3.612.286-5.585-.837.569-1.634,1.1-2.419,1.651a5.412,5.412,0,0,0-.549.509,1.29,1.29,0,0,1-1.887.12,1.239,1.239,0,0,1,.172-1.913c1-.81,2.052-1.549,3.122-2.26a6.423,6.423,0,0,1,1.534-.682A1.17,1.17,0,0,0,13.2,36.7c.679-2.025,1.438-4.023,2.168-6.031.042-.114.093-.225.161-.388-.719.092-1.387.186-2.057.259a6.385,6.385,0,0,1-1,.045,1.266,1.266,0,0,1-1.309-1.237A1.243,1.243,0,0,1,12.509,28.1a10.849,10.849,0,0,0,4.806-1.172,2.5,2.5,0,0,0,.811-.645,24.266,24.266,0,0,1,5.524-5.112.793.793,0,0,0,.338-.57,20.309,20.309,0,0,0-1.135-5.983c-.887-2.306-2.043-2.68-4.12-1.332A20.049,20.049,0,0,0,17.1,14.535a1.289,1.289,0,0,1-1.847,0,1.256,1.256,0,0,1,.188-1.875,11.2,11.2,0,0,1,3.6-2.319,4.146,4.146,0,0,1,5.279,1.7c.45.689.773,1.463,1.186,2.26.83-.475,1.7-.951,2.542-1.478.135-.085.178-.4.178-.6.011-3.144.006-6.288.008-9.432A2.526,2.526,0,0,1,31.013,0c.708,0,1.416-.008,2.124,0a2.488,2.488,0,0,1,2.591,2.6q.016,4.778-.006,9.557a.835.835,0,0,0,.506.876c.755.388,1.478.839,2.267,1.294.207-.472.381-.906.585-1.326a4.746,4.746,0,0,1,3.4-2.943,5.161,5.161,0,0,1,3.417.71,14.214,14.214,0,0,1,4,3.255A57.853,57.853,0,0,1,63.385,40.054a20.306,20.306,0,0,1,.088,9.468,12.437,12.437,0,0,1-2.688,5.083,7.876,7.876,0,0,1-8.515,2.552,18.979,18.979,0,0,1-3.027-.956,27.33,27.33,0,0,0-6.615-1.965,5,5,0,0,1-4.273-3.923,32.456,32.456,0,0,1-1.088-8.584c-.045-6.328.016-12.658.05-18.986a.67.67,0,0,0-.39-.684c-1.537-.874-3.059-1.773-4.6-2.636a.8.8,0,0,0-.662-.009q-2.369,1.323-4.7,2.714a.785.785,0,0,0-.3.583c.015,5.933.086,11.867.067,17.8a37.674,37.674,0,0,1-.988,9.289c-.005.02-.008.041-.012.061a5.259,5.259,0,0,1-4.788,4.474,26.019,26.019,0,0,0-5.789,1.684,26.173,26.173,0,0,1-4.659,1.328,7.476,7.476,0,0,1-7.458-2.9A12.669,12.669,0,0,1,.121,47.466c-.021-.2-.08-.4-.121-.607V43.611M39.919,23.856l-.162.135c-.006.083-.018.165-.018.248,0,5.829-.028,11.658.029,17.486a34.814,34.814,0,0,0,.845,7.428,3.132,3.132,0,0,0,2.923,2.74,22.419,22.419,0,0,1,6.029,1.743,23.48,23.48,0,0,0,3.491,1.133,5.4,5.4,0,0,0,5.89-1.845,10.192,10.192,0,0,0,2.29-4.913,21.417,21.417,0,0,0-.6-8.842A57.13,57.13,0,0,0,49.657,17.531a18.638,18.638,0,0,0-4.441-4.264C43.13,11.935,42,12.31,41.1,14.626a21.663,21.663,0,0,0-1.142,5.794.754.754,0,0,0,.4.8,23.752,23.752,0,0,1,5.366,4.914,3.536,3.536,0,0,0,1.155.892A10.641,10.641,0,0,0,51.525,28.1a1.218,1.218,0,0,1,1.263,1.2,1.238,1.238,0,0,1-1.194,1.275,5.968,5.968,0,0,1-1.121-.036c-.671-.07-1.339-.167-1.905-.24.654,1.818,1.422,3.623,1.931,5.5a2.683,2.683,0,0,0,1.869,2.13,10.428,10.428,0,0,1,3.909,2.623,1.259,1.259,0,1,1-1.762,1.771,5.012,5.012,0,0,0-.5-.468c-.8-.564-1.611-1.113-2.473-1.706.106,1.983.22,3.787.291,5.594a1.241,1.241,0,0,1-1.227,1.425c-.749.011-1.217-.532-1.269-1.39-.107-1.764-.2-3.531-.381-5.288-.111-1.078-.375-2.139-.556-3.133-.5.442-.955.869-1.438,1.259a1.227,1.227,0,0,1-1.828-.1,1.329,1.329,0,0,1,.231-1.831,17.963,17.963,0,0,0,1.692-2.29,1.247,1.247,0,0,0,.026-.979,21.413,21.413,0,0,0-4.407-6.972c-.867-.909-1.835-1.721-2.758-2.577M37.51,19.511c.119-.793.205-1.471.327-2.144a.6.6,0,0,0-.361-.744c-.933-.5-1.812-1.114-2.767-1.567a2.134,2.134,0,0,1-1.5-2.416c0-.029-.041-.065-.057-.09H30.681c.348,1.352-.4,1.994-1.446,2.515-.947.473-1.848,1.039-2.758,1.584-.156.093-.37.3-.357.431.075.795.208,1.584.331,2.438C28,18.62,29.5,17.8,30.947,16.9a1.779,1.779,0,0,1,2.079.007c1.45.888,2.939,1.71,4.483,2.6M33.2,2.548H30.779V4.976H33.2Zm-2.45,7.4h2.443v-2.4H30.746Z" transform="translate(0 0)" fill="#1aa9a0"/>
    <path id="Path_55" data-name="Path 55" d="M69.4,100.92a1.223,1.223,0,0,1-1.229,1.229,1.245,1.245,0,1,1,.029-2.49,1.227,1.227,0,0,1,1.2,1.262" transform="translate(-55.755 -83.024)" fill="#1aa9a0"/>
  </g>
</svg>
