<svg xmlns="http://www.w3.org/2000/svg"
  xmlns:xlink="http://www.w3.org/1999/xlink" width="39.78" height="49.549" viewBox="0 0 39.78 49.549">
  <defs>
    <clipPath id="clip-path">
      <rect id="Rectangle_76" data-name="Rectangle 76" width="39.78" height="49.549" fill="#1aa9a0"/>
    </clipPath>
  </defs>
  <g id="Group_76" data-name="Group 76" clip-path="url(#clip-path)">
    <path id="Path_111" data-name="Path 111" d="M17.654,0a9.311,9.311,0,0,1,1.2.589A2.988,2.988,0,0,1,20.1,2.741a3.1,3.1,0,0,1,4.475,1.811,3.448,3.448,0,0,1,2.265-.406,2.913,2.913,0,0,1,2.431,2.539c.137,1.736.235,3.476.275,5.217a99.261,99.261,0,0,0,1.135,12.125c.091.618.162,1.239.247,1.9h1.039c1.968,0,3.936,0,5.9,0a1.714,1.714,0,0,1,1.894,1.884c.009.726,0,1.452,0,2.178,0,1.239,0,1.239-.89,2.084,0,.029,0,.079.011.087a1.917,1.917,0,0,1,.893,1.974c-.039,2.4-.012,4.806-.014,7.209,0,1.435-.626,2.056-2.066,2.058-.71,0-1.419.006-2.129,0-.541-.007-.861-.271-.875-.7s.327-.739.882-.748c.742-.013,1.484-.016,2.226,0,.372.008.517-.128.515-.507-.01-2.516,0-5.032-.018-7.549a1.048,1.048,0,0,0-.29-.545,2.8,2.8,0,0,0-.419-.324,1.043,1.043,0,0,1-.055-1.709,1.89,1.89,0,0,0,.785-1.952c-.043-.512-.013-1.031-.008-1.548,0-.289-.091-.449-.419-.447-2.242.01-4.484.009-6.726.013a.447.447,0,0,0-.111.038.667.667,0,0,0-.034.168A30.352,30.352,0,0,1,29.6,37.547a12.425,12.425,0,0,0-.258,2.672c-.035.545-.007,1.094-.007,1.73h.677c.742,0,1.484-.011,2.226.006a.721.721,0,0,1,.8.719.728.728,0,0,1-.8.719c-.774.017-1.548.007-2.322.008h-.58v.572q0,2.226,0,4.452c0,.129.007.259-.006.387a.734.734,0,0,1-.742.737.722.722,0,0,1-.7-.775c-.015-1.065-.007-2.129-.008-3.194v-.568L14.734,42.963v1.2q0,2.153,0,4.307a2.2,2.2,0,0,1-.026.481.713.713,0,0,1-1.415-.069,4.144,4.144,0,0,1-.011-.484c0-2.484-.01-4.968.007-7.451a1.624,1.624,0,0,0-.531-1.282q-3.4-3.265-6.773-6.568a6.22,6.22,0,0,1-1.022-1.333Q2.667,27.755.425,23.72a3.071,3.071,0,0,1,1.422-4.394,3.025,3.025,0,0,1,3.431.663C6.547,21.254,7.8,22.53,9.06,23.8c.122.124.221.27.332.406l.132-.061V16.295c0-.113,0-.226,0-.339.011-.535.271-.852.707-.86s.738.322.743.88c.007.839,0,1.677,0,2.516v.535l17.452-.761c-.055-.967-.115-1.893-.16-2.821q-.184-3.769-.359-7.539c-.015-.322-.019-.646-.062-.965a1.558,1.558,0,0,0-1.584-1.4,1.586,1.586,0,0,0-1.6,1.443,4.759,4.759,0,0,0-.013.532q0,3.944,0,7.887a4.5,4.5,0,0,1-.012.483.669.669,0,0,1-.667.643A.655.655,0,0,1,23.253,16a2.46,2.46,0,0,1-.056-.621c0-3.307,0-6.613-.006-9.92a1.542,1.542,0,0,0-2-1.578,1.662,1.662,0,0,0-1.1,1.7q0,4.887,0,9.774c0,.145.006.291,0,.435a.732.732,0,0,1-.677.745.75.75,0,0,1-.757-.674,3.178,3.178,0,0,1-.015-.483q0-6.121,0-12.242a1.557,1.557,0,0,0-1.54-1.686,1.6,1.6,0,0,0-1.562,1.685c0,.13,0,.259,0,.387q0,5.541,0,11.082a3.256,3.256,0,0,1-.01.483.673.673,0,0,1-.682.628.68.68,0,0,1-.735-.569,2.236,2.236,0,0,1-.024-.529c0-3.065,0-6.129,0-9.194a1.559,1.559,0,0,0-2.068-1.553A1.493,1.493,0,0,0,10.976,5.4q-.005,3.484,0,6.967a2.639,2.639,0,0,1-.012.435.72.72,0,0,1-1.432-.025,2.871,2.871,0,0,1-.008-.386q0-3.435,0-6.871A2.97,2.97,0,0,1,13.89,2.674a1.692,1.692,0,0,0,.169.048c.054-.2.1-.4.16-.6A3.168,3.168,0,0,1,16.589,0ZM10.975,20.485c0,1.209.012,2.369-.008,3.527a.529.529,0,0,0,.377.571c2.15.949,4.291,1.921,6.444,2.86a.98.98,0,0,0,.707-.017c.987-.434,1.956-.91,2.931-1.369.685-.324,1.08-.271,1.3.171.232.461.017.817-.693,1.152q-6.4,3.017-12.8,6.035c-.171.08-.336.173-.513.266a.975.975,0,0,0,.1.148c1.526,1.483,3.057,2.961,4.576,4.452.2.193.339.155.543.04q7.646-4.293,15.3-8.572a.548.548,0,0,0,.345-.558c-.029-.774,0-1.55-.052-2.32-.068-.941-.2-1.876-.309-2.87-.255.115-.43.191-.6.272-1.107.521-2.21,1.05-3.322,1.561a.731.731,0,0,1-1.127-.6.825.825,0,0,1,.586-.749c1.284-.6,2.556-1.223,3.848-1.8a.516.516,0,0,0,.352-.663,14.445,14.445,0,0,1-.239-1.771c-.02-.465-.207-.539-.622-.52q-7.15.328-14.3.626c-.93.041-1.86.086-2.822.131m5.337,7.968c-.043-.052-.057-.083-.08-.093q-2.732-1.226-5.467-2.444a.421.421,0,0,0-.312-.035c-.782.434-1.328.079-1.869-.479-1.4-1.448-2.83-2.871-4.246-4.306a1.643,1.643,0,0,0-2.607,1.991c1.441,2.572,2.876,5.146,4.347,7.7A16.118,16.118,0,0,0,7.24,32.314c.2.274.408.255.7.117,2.645-1.261,5.3-2.506,7.947-3.757.142-.067.278-.144.426-.221M14.782,41.5l13.068,2.038c.153-2.1-.169-4.164.218-6.2a.41.41,0,0,0-.1-.04q-3.926-.326-7.853-.646a.679.679,0,0,0-.368.074c-1.729.961-3.454,1.93-5.135,2.873.056.653.109,1.256.165,1.9M28.6,35.89,29.51,31.4l-.13-.075-7.019,3.937c.013.037.025.074.037.111l6.2.516" transform="translate(0 0)" fill="#1aa9a0"/>
  </g>
</svg>
