<svg id="Group_31" data-name="Group 31" xmlns="http://www.w3.org/2000/svg" width="26.995" height="32.39" viewBox="0 0 26.995 32.39">
  <path id="Path_25" data-name="Path 25" d="M12.138,2.7c0-.447-.016-.878,0-1.307a1.358,1.358,0,1,1,2.715-.025c.029.446-.1,1.007.126,1.306.207.271.809.244,1.23.368a9.275,9.275,0,0,1,6.737,8.823c.016,1.05.03,2.1,0,3.151a8.9,8.9,0,0,0,3.192,7.292,2.226,2.226,0,0,1-.258,3.687,2.865,2.865,0,0,1-1.373.356q-11,.032-22,.013A2.333,2.333,0,0,1,.175,24.9,2.22,2.22,0,0,1,.88,22.28,8.954,8.954,0,0,0,4.058,15.1a27.833,27.833,0,0,1,.213-4.986,9.119,9.119,0,0,1,7.343-7.281c.161-.033.319-.082.524-.136" transform="translate(0 0)" fill="#0a84e1"/>
  <path id="Path_26" data-name="Path 26" d="M78.011,215.906a5.652,5.652,0,0,1-11.3,0" transform="translate(-58.84 -189.168)" fill="#0a84e1"/>
</svg>
