<svg xmlns="http://www.w3.org/2000/svg" xmlns:xlink="http://www.w3.org/1999/xlink" width="59.108" height="58.629" viewBox="0 0 59.108 58.629">
  <defs>
    <clipPath id="clip-path">
      <rect id="Rectangle_65" data-name="Rectangle 65" width="59.108" height="58.629" fill="#1aa9a0"/>
    </clipPath>
  </defs>
  <g id="Brain" transform="translate(3.793)">
    <g id="Group_55" data-name="Group 55" transform="translate(-3.793)">
      <g id="Group_55-2" data-name="Group 55" clip-path="url(#clip-path)">
        <path id="Path_61" data-name="Path 61" d="M59.108,14.785c-.193.936-.321,1.891-.591,2.8a13,13,0,0,1-6.543,8.319,8.936,8.936,0,0,1-6.121.751,5.742,5.742,0,0,1-3.393-9.042c.214-.294.322-.512-.1-.765a7.119,7.119,0,0,0-3.569,4.816,6.778,6.778,0,0,0,.408,4.07c.6,1.5,1.255,2.971,1.92,4.44a15.114,15.114,0,0,1-.065,13.154,1.113,1.113,0,0,0-.138.433c-.007,2.416-1.287,4.217-2.872,5.844a12.652,12.652,0,0,1-5.075,3.2.68.68,0,0,0-.547.791c.03.71.021,1.423,0,2.134a2.865,2.865,0,1,1-5.73.047c-.029-.73-.031-1.463,0-2.192a.69.69,0,0,0-.558-.784,12.971,12.971,0,0,1-6.972-5.657,6.286,6.286,0,0,1-.969-3.276,1.5,1.5,0,0,0-.165-.6,15.023,15.023,0,0,1-.188-12.731c.7-1.622,1.481-3.213,2.091-4.868a6.971,6.971,0,0,0-2.632-8.49c-.174-.117-.359-.217-.571-.344l-.342.389c.071.1.123.181.179.257a5.527,5.527,0,0,1,.693,5.924,5.652,5.652,0,0,1-5.031,3.407c-4.5.331-7.653-1.854-9.96-5.462A14.9,14.9,0,0,1,3.706,3.611a9.784,9.784,0,0,1,9.119-3.5,5.775,5.775,0,0,1,3.85,9.141c-.089.123-.177.247-.242.336.292.493.552.963.845,1.411a.964.964,0,0,0,.421.341,12.436,12.436,0,0,1,8.112,10.41,12,12,0,0,1-.934,6.2c-.566,1.406-1.207,2.782-1.83,4.165a.869.869,0,1,1-1.569-.713c.675-1.59,1.444-3.146,2.025-4.769a10.665,10.665,0,0,0-5.053-13.065c-.184-.1-.375-.18-.571-.273-.107.607-.229,1.179-.293,1.758a.586.586,0,0,0,.275.416A8.81,8.81,0,0,1,21.4,26.733c-.62,1.489-1.292,2.955-1.939,4.433a13.187,13.187,0,0,0-.371,10.113c.479-.4.959-.781,1.4-1.2.1-.091.095-.327.08-.491-.111-1.181-.276-2.359-.344-3.542-.042-.738.32-1.1.89-1.091s.823.387.834,1.135c.011.766.068,1.533.128,2.3a5.211,5.211,0,0,0,.179.761,19.826,19.826,0,0,1,7.331-1.215,19.743,19.743,0,0,1,7.267,1.211,8.216,8.216,0,0,0-.091-5.135c-.539-1.516-1.215-2.985-1.865-4.459a15.992,15.992,0,0,1-1.65-6.425c0-.708.271-1.075.816-1.1.568-.022.906.36.911,1.076a14.665,14.665,0,0,0,1.463,5.648c.75,1.763,1.521,3.527,2.124,5.342a9.028,9.028,0,0,1,0,5.345.655.655,0,0,0,.309.845A14.32,14.32,0,0,1,40.03,41.3a13.587,13.587,0,0,0,.79-5.78,17.912,17.912,0,0,0-1.714-5.65A41.761,41.761,0,0,1,37.323,25.5a8.635,8.635,0,0,1,3.832-9.932.6.6,0,0,0,.33-.819,9.848,9.848,0,0,1-.209-1.447c-.194.089-.394.167-.582.269a10.8,10.8,0,0,0-4.782,5.141c-.072.157-.133.319-.208.475a.871.871,0,0,1-1.175.515.862.862,0,0,1-.414-1.176,12.6,12.6,0,0,1,7.253-7.158,1.258,1.258,0,0,0,.527-.462c.284-.408.524-.847.714-1.159a16.441,16.441,0,0,1-1.124-2.674A5.818,5.818,0,0,1,47.034.018C51.506-.193,54.6,2,56.9,5.583a14.046,14.046,0,0,1,2.1,6.1,3.668,3.668,0,0,0,.105.444Zm-47.794,10.3c.307,0,.617.023.922,0a3.952,3.952,0,0,0,3.513-2.5A3.855,3.855,0,0,0,15.1,18.42c-.763-.948-.768-1.425.018-2.383a4.04,4.04,0,0,0,.012-5.2c-.806-1-.807-1.441,0-2.426A4.031,4.031,0,0,0,12.7,1.851,7.817,7.817,0,0,0,6.057,3.725,13.161,13.161,0,0,0,4.493,21.508c1.744,2.184,3.9,3.632,6.82,3.575m36.477.152a8.6,8.6,0,0,0,5.726-2.494A13.193,13.193,0,0,0,54.06,4.678,8.265,8.265,0,0,0,47.1,1.754,4.062,4.062,0,0,0,43.415,4.2,3.843,3.843,0,0,0,44,8.416c.789.99.8,1.43-.013,2.428A4.04,4.04,0,0,0,43.971,16c.834,1.03.835,1.446.007,2.47A4,4,0,0,0,45.465,24.7a12.764,12.764,0,0,0,2.327.535M29.551,39.716c-.557,0-1.117-.034-1.672.006a14.282,14.282,0,0,0-5.672,1.372c-2.413,1.253-2.895,2.874-1.518,5.207a11.094,11.094,0,0,0,5.961,4.845,2.181,2.181,0,0,1,1.773,2.526c0,.673-.018,1.347.009,2.019a1.179,1.179,0,0,0,1.15,1.2A1.165,1.165,0,0,0,30.7,55.666c.017-.634,0-1.269,0-1.9,0-1.621.342-2.076,1.851-2.639a11.11,11.11,0,0,0,5.777-4.645c1.549-2.524.995-4.287-1.692-5.524a16.243,16.243,0,0,0-7.089-1.238" transform="translate(0 0)" fill="#1aa9a0"/>
      </g>
    </g>
  </g>
</svg>
