<svg xmlns="http://www.w3.org/2000/svg" xmlns:xlink="http://www.w3.org/1999/xlink" width="29.926" height="30" viewBox="0 0 29.926 30">
  <defs>
    <clipPath id="clip-path">
      <rect id="Rectangle_212" data-name="Rectangle 212" width="29.926" height="30" fill="#8bd3cf"/>
    </clipPath>
  </defs>
  <g id="Group_300" data-name="Group 300" transform="translate(0 0)">
    <g id="Group_299" data-name="Group 299" transform="translate(0 0)" clip-path="url(#clip-path)">
      <path id="Path_536" data-name="Path 536" d="M0,30l2.151-8.023a14.852,14.852,0,1,1,5.916,5.863Zm8.467-5.166.507.3a12.062,12.062,0,1,0-4.124-4.087l.311.512-1.2,4.479Z" transform="translate(0 0.001)" fill="#8bd3cf"/>
      <path id="Path_537" data-name="Path 537" d="M18.125,14.35A2.493,2.493,0,0,0,16,13.871c-.551.226-.9,1.089-1.26,1.53a.528.528,0,0,1-.684.147,9.6,9.6,0,0,1-4.8-4.108.589.589,0,0,1,.073-.8,3.247,3.247,0,0,0,.872-1.414,3.1,3.1,0,0,0-.389-1.675A3.958,3.958,0,0,0,8.583,5.685a1.694,1.694,0,0,0-1.839.273A3.734,3.734,0,0,0,5.449,8.916a4.15,4.15,0,0,0,.117.939,7.779,7.779,0,0,0,.9,2.075,16.334,16.334,0,0,0,.941,1.43,14.485,14.485,0,0,0,4.078,3.785,12.325,12.325,0,0,0,2.543,1.21,5.662,5.662,0,0,0,2.96.467,3.585,3.585,0,0,0,2.684-2,1.741,1.741,0,0,0,.124-1.019c-.153-.7-1.1-1.118-1.671-1.458" transform="translate(2.496 2.529)" fill="#8bd3cf" fill-rule="evenodd"/>
    </g>
  </g>
</svg>
