<svg width="101" height="103" viewBox="0 0 101 103" fill="none" xmlns="http://www.w3.org/2000/svg">
<path d="M46.6796 28.8812H35.9246C34.3127 28.8812 33.001 30.1985 33.001 31.8171V59.8823C33.001 60.6306 33.3693 60.91 33.678 61.0123C33.7885 61.0492 33.8919 61.065 33.9899 61.065C34.4984 61.065 34.8346 60.6117 35.1128 60.2356C35.2805 60.0098 35.7256 59.4078 35.9246 59.3559H40.6842C42.2961 59.3559 43.6079 58.0386 43.6079 56.42V40.6916C43.6079 40.0519 44.1258 39.5318 44.7629 39.5318H46.6796C48.2915 39.5318 49.6032 38.2145 49.6032 36.5959V31.8171C49.6032 30.1985 48.2915 28.8812 46.6796 28.8812Z" fill="url(#paint0_linear_2_108)"/>
<path d="M33 0V10.6002C33 11.6475 33.5611 12.6233 34.463 13.145L79.934 39.5058C80.3838 39.767 80.8893 39.8984 81.3955 39.8984C81.9009 39.8984 82.4063 39.7678 82.8577 39.5065L92 34.2061L33 0Z" fill="url(#paint1_linear_2_108)"/>
<path d="M81.3947 28.0581L33 56.1154V63.3257C33 63.9623 33.1975 64.5658 33.5712 65.0718C34.1441 65.8445 35.028 66.2616 35.9275 66.2616C36.4251 66.2616 36.9282 66.1333 37.3858 65.8681L92 34.2061L81.3947 28.0581Z" fill="url(#paint2_linear_2_108)"/>
<path d="M7.315 96.045C6.10167 96.045 4.99333 95.695 3.99 94.995C3.01 94.3183 2.22833 93.3383 1.645 92.055C1.06167 90.7483 0.77 89.185 0.77 87.365C0.77 85.5683 1.05 83.7483 1.61 81.905C2.17 80.0617 2.92833 78.3 3.885 76.62C4.865 74.94 5.97333 73.4467 7.21 72.14C8.44667 70.81 9.74167 69.76 11.095 68.99C12.4717 68.22 13.825 67.835 15.155 67.835C16.0417 67.835 16.7533 68.0217 17.29 68.395C17.8267 68.7683 18.2117 69.2583 18.445 69.865C18.6783 70.4483 18.795 71.09 18.795 71.79C18.795 72.6067 18.655 73.4117 18.375 74.205C18.095 74.975 17.7217 75.6167 17.255 76.13C16.7883 76.6433 16.275 76.9 15.715 76.9C15.5283 76.9 15.33 76.8417 15.12 76.725C14.9333 76.6083 14.77 76.3983 14.63 76.095C14.9567 75.8617 15.33 75.4417 15.75 74.835C16.1933 74.2283 16.5667 73.5517 16.87 72.805C17.1967 72.0583 17.36 71.37 17.36 70.74C17.36 70.2033 17.1967 69.76 16.87 69.41C16.5667 69.06 16.03 68.885 15.26 68.885C14.2567 68.885 13.2067 69.2933 12.11 70.11C11.0367 70.9267 9.98667 72.0233 8.96 73.4C7.95667 74.7533 7.04667 76.27 6.23 77.95C5.41333 79.63 4.76 81.345 4.27 83.095C3.80333 84.845 3.57 86.5017 3.57 88.065C3.57 90.1883 4.01333 91.845 4.9 93.035C5.78667 94.2483 6.90667 94.855 8.26 94.855C9.17 94.855 10.0333 94.5167 10.85 93.84C11.6667 93.1867 12.39 92.335 13.02 91.285C13.65 90.2117 14.1517 89.0567 14.525 87.82C14.9217 86.5833 15.1667 85.3933 15.26 84.25C14.3967 84.0633 13.6967 83.9467 13.16 83.9C12.6233 83.83 12.1217 83.795 11.655 83.795C11.3517 83.795 11.025 83.8067 10.675 83.83C10.3483 83.83 9.96333 83.83 9.52 83.83C9.68333 83.1533 9.96333 82.6867 10.36 82.43C10.78 82.15 11.2933 82.01 11.9 82.01C12.5533 82.01 13.23 82.1267 13.93 82.36C14.6533 82.57 15.3533 82.8033 16.03 83.06C16.7067 83.3167 17.3017 83.515 17.815 83.655L17.57 84.775C17.1267 85.9417 16.765 86.9683 16.485 87.855C16.205 88.7183 15.9833 89.4883 15.82 90.165C15.68 90.8183 15.575 91.4017 15.505 91.915C15.4583 92.4283 15.435 92.895 15.435 93.315C15.435 93.7817 15.4467 94.2367 15.47 94.68C15.5167 95.1233 15.5517 95.5783 15.575 96.045C15.2017 95.8817 14.8633 95.6833 14.56 95.45C14.28 95.24 14.0583 94.9717 13.895 94.645C13.755 94.3183 13.685 93.945 13.685 93.525C13.685 93.2683 13.6967 93.0117 13.72 92.755C13.7667 92.4983 13.8367 92.2183 13.93 91.915C13.09 93.0817 12.1217 94.0617 11.025 94.855C9.92833 95.6483 8.69167 96.045 7.315 96.045Z" fill="#D59900"/>
<path d="M21.07 92.96C20.21 92.96 19.6 92.69 19.24 92.15C18.88 91.63 18.7 90.99 18.7 90.23C18.7 89.61 18.8 88.97 19 88.31C19.2 87.65 19.46 87.03 19.78 86.45C20.12 85.87 20.49 85.4 20.89 85.04C21.31 84.68 21.73 84.5 22.15 84.5C22.25 84.5 22.35 84.52 22.45 84.56C22.57 84.58 22.68 84.61 22.78 84.65C22.6 84.81 22.38 85.11 22.12 85.55C21.88 85.97 21.65 86.46 21.43 87.02C21.21 87.56 21.02 88.1 20.86 88.64C20.72 89.18 20.65 89.64 20.65 90.02C20.65 90.62 20.75 91.06 20.95 91.34C21.15 91.6 21.41 91.73 21.73 91.73C22.15 91.73 22.65 91.51 23.23 91.07C23.81 90.61 24.38 90.03 24.94 89.33C24.38 88.87 23.94 88.27 23.62 87.53C23.32 86.77 23.17 86 23.17 85.22C23.17 84.56 23.28 83.94 23.5 83.36C23.74 82.78 24.08 82.32 24.52 81.98C24.96 81.62 25.49 81.44 26.11 81.44C26.93 81.44 27.48 81.66 27.76 82.1C28.04 82.54 28.18 83.09 28.18 83.75C28.18 84.53 27.99 85.4 27.61 86.36C27.23 87.3 26.75 88.21 26.17 89.09C26.53 89.29 26.91 89.39 27.31 89.39C27.63 89.39 27.99 89.33 28.39 89.21C28.79 89.07 29.18 88.84 29.56 88.52C29.96 88.2 30.28 87.77 30.52 87.23L30.88 87.53C30.48 88.47 29.91 89.14 29.17 89.54C28.45 89.92 27.76 90.11 27.1 90.11C26.84 90.11 26.59 90.09 26.35 90.05C26.11 89.99 25.88 89.91 25.66 89.81C24.98 90.71 24.23 91.46 23.41 92.06C22.61 92.66 21.83 92.96 21.07 92.96ZM25.48 88.55C25.98 87.81 26.39 87.04 26.71 86.24C27.05 85.42 27.22 84.65 27.22 83.93C27.22 83.35 27.13 82.93 26.95 82.67C26.79 82.39 26.58 82.25 26.32 82.25C25.92 82.25 25.51 82.54 25.09 83.12C24.67 83.7 24.46 84.43 24.46 85.31C24.46 85.89 24.54 86.48 24.7 87.08C24.88 87.66 25.14 88.15 25.48 88.55ZM32.447 92.9C31.587 92.9 30.967 92.6 30.587 92C30.227 91.42 30.047 90.69 30.047 89.81C30.047 88.85 30.227 87.71 30.587 86.39C30.947 85.07 31.417 83.68 31.997 82.22C32.597 80.76 33.247 79.34 33.947 77.96C34.647 76.56 35.347 75.29 36.047 74.15C36.747 73.01 37.387 72.1 37.967 71.42C38.567 70.74 39.037 70.4 39.377 70.4C39.597 70.4 39.777 70.53 39.917 70.79C40.057 71.03 40.167 71.33 40.247 71.69C40.327 72.03 40.367 72.34 40.367 72.62C40.367 73.16 40.227 73.87 39.947 74.75C39.687 75.61 39.307 76.58 38.807 77.66C38.327 78.72 37.747 79.8 37.067 80.9C36.407 81.98 35.677 83.02 34.877 84.02C34.097 85.02 33.267 85.88 32.387 86.6C32.267 87.14 32.167 87.67 32.087 88.19C32.027 88.69 31.997 89.17 31.997 89.63C31.997 90.41 32.107 90.99 32.327 91.37C32.547 91.75 32.877 91.94 33.317 91.94C33.857 91.94 34.387 91.7 34.907 91.22C35.447 90.74 35.947 90.14 36.407 89.42C36.887 88.68 37.297 87.92 37.637 87.14L38.087 87.38C37.287 89.08 36.417 90.43 35.477 91.43C34.537 92.41 33.527 92.9 32.447 92.9ZM32.657 85.58C33.357 84.88 34.037 84.08 34.697 83.18C35.357 82.26 35.967 81.31 36.527 80.33C37.107 79.35 37.617 78.4 38.057 77.48C38.497 76.56 38.837 75.74 39.077 75.02C39.317 74.28 39.437 73.71 39.437 73.31C39.437 73.11 39.407 72.98 39.347 72.92C39.307 72.86 39.267 72.83 39.227 72.83C39.067 72.83 38.787 73.09 38.387 73.61C38.007 74.11 37.557 74.79 37.037 75.65C36.517 76.51 35.987 77.49 35.447 78.59C34.907 79.69 34.387 80.84 33.887 82.04C33.407 83.24 32.997 84.42 32.657 85.58ZM38.8169 92.9C38.4769 92.9 38.1269 92.81 37.7669 92.63C37.4269 92.47 37.1469 92.2 36.9269 91.82C36.6869 91.44 36.5669 90.96 36.5669 90.38C36.5669 89.72 36.7269 88.98 37.0469 88.16C37.3669 87.34 37.7969 86.53 38.3369 85.73C38.8769 84.91 39.4969 84.16 40.1969 83.48C40.8969 82.78 41.6269 82.23 42.3869 81.83C43.1469 81.41 43.8969 81.2 44.6369 81.2C45.0569 81.2 45.3769 81.28 45.5969 81.44C45.8369 81.58 45.9569 81.81 45.9569 82.13C45.9569 82.21 45.9469 82.28 45.9269 82.34C45.9269 82.4 45.9169 82.47 45.8969 82.55C45.7969 82.39 45.6469 82.28 45.4469 82.22C45.2669 82.14 45.0369 82.1 44.7569 82.1C44.1169 82.1 43.4869 82.3 42.8669 82.7C42.2669 83.08 41.7069 83.59 41.1869 84.23C40.6869 84.85 40.2469 85.52 39.8669 86.24C39.4869 86.96 39.1869 87.66 38.9669 88.34C38.7669 89 38.6669 89.56 38.6669 90.02C38.6669 90.46 38.7669 90.81 38.9669 91.07C39.1669 91.33 39.4269 91.46 39.7469 91.46C40.2869 91.46 40.9369 91.12 41.6969 90.44C42.4769 89.76 43.2669 88.8 44.0669 87.56C44.8669 86.32 45.5869 84.87 46.2269 83.21C46.6669 82.05 47.1169 80.87 47.5769 79.67C48.0569 78.47 48.5369 77.32 49.0169 76.22C49.4969 75.1 49.9569 74.11 50.3969 73.25C50.8569 72.37 51.2869 71.68 51.6869 71.18C52.1069 70.66 52.4769 70.4 52.7969 70.4C52.9569 70.4 53.0969 70.47 53.2169 70.61C53.3369 70.73 53.3969 70.89 53.3969 71.09C53.3969 71.41 53.2269 71.96 52.8869 72.74C52.5669 73.5 52.1369 74.42 51.5969 75.5C51.0769 76.56 50.5269 77.72 49.9469 78.98C49.3669 80.24 48.8069 81.52 48.2669 82.82C47.7469 84.12 47.3169 85.38 46.9769 86.6C46.6569 87.8 46.4969 88.9 46.4969 89.9C46.4969 90.46 46.5269 90.88 46.5869 91.16C46.6469 91.44 46.8469 91.58 47.1869 91.58C47.6069 91.58 48.0969 91.4 48.6569 91.04C49.2169 90.68 49.7769 90.17 50.3369 89.51C50.8969 88.85 51.3869 88.06 51.8069 87.14L52.1669 87.41C51.7869 88.43 51.2669 89.35 50.6069 90.17C49.9469 90.97 49.2369 91.6 48.4769 92.06C47.7369 92.54 47.0269 92.78 46.3469 92.78C45.6069 92.78 45.0869 92.53 44.7869 92.03C44.5069 91.55 44.3669 91.05 44.3669 90.53C44.3669 90.19 44.4169 89.74 44.5169 89.18C44.6169 88.62 44.7569 88 44.9369 87.32C44.2969 88.38 43.6169 89.34 42.8969 90.2C42.1769 91.04 41.4669 91.7 40.7669 92.18C40.0869 92.66 39.4369 92.9 38.8169 92.9ZM52.3666 100.4C51.9266 100.4 51.5266 100.26 51.1666 99.98C50.8066 99.72 50.6266 99.28 50.6266 98.66C50.6266 98.06 50.8166 97.5 51.1966 96.98C51.5566 96.48 52.0266 96.01 52.6066 95.57C53.1866 95.15 53.8166 94.76 54.4966 94.4C55.1966 94.04 55.8566 93.7 56.4766 93.38C56.7566 92.68 57.0166 91.93 57.2566 91.13C57.5166 90.31 57.7666 89.41 58.0066 88.43C57.2466 89.53 56.4466 90.45 55.6066 91.19C54.7866 91.91 53.9566 92.27 53.1166 92.27C52.3966 92.27 51.8366 92 51.4366 91.46C51.0566 90.92 50.8666 90.22 50.8666 89.36C50.8666 88.32 51.1166 87.33 51.6166 86.39C52.1366 85.45 52.8066 84.62 53.6266 83.9C54.4466 83.18 55.3166 82.62 56.2366 82.22C57.1566 81.8 58.0166 81.59 58.8166 81.59C59.3966 81.59 59.8066 81.69 60.0466 81.89C60.3066 82.07 60.4366 82.29 60.4366 82.55C60.4366 82.73 60.3866 82.87 60.2866 82.97C60.1866 83.07 60.1166 83.13 60.0766 83.15C59.9766 82.99 59.8266 82.88 59.6266 82.82C59.4266 82.74 59.1766 82.7 58.8766 82.7C58.0966 82.7 57.3366 82.93 56.5966 83.39C55.8766 83.85 55.2366 84.44 54.6766 85.16C54.1166 85.88 53.6666 86.63 53.3266 87.41C53.0066 88.17 52.8466 88.87 52.8466 89.51C52.8466 89.99 52.9366 90.36 53.1166 90.62C53.3166 90.86 53.5766 90.98 53.8966 90.98C54.4766 90.98 55.1666 90.6 55.9666 89.84C56.7866 89.06 57.5766 88.12 58.3366 87.02C58.3966 86.74 58.4466 86.49 58.4866 86.27C58.5466 86.05 58.6166 85.77 58.6966 85.43C58.7566 85.15 58.8966 84.83 59.1166 84.47C59.3566 84.09 59.7266 83.9 60.2266 83.9C60.3266 83.9 60.4266 83.91 60.5266 83.93C60.6266 83.93 60.7366 83.95 60.8566 83.99C60.8566 84.31 60.7566 84.9 60.5566 85.76C60.3766 86.6 60.1066 87.59 59.7466 88.73C59.4066 89.85 59.0066 91.01 58.5466 92.21C59.2066 91.89 59.8466 91.48 60.4666 90.98C61.1066 90.48 61.6866 89.91 62.2066 89.27C62.7266 88.61 63.1366 87.9 63.4366 87.14L63.8266 87.44C63.5266 88.34 63.0466 89.16 62.3866 89.9C61.7266 90.64 61.0166 91.28 60.2566 91.82C59.5166 92.36 58.8366 92.78 58.2166 93.08C57.6566 94.42 57.0666 95.64 56.4466 96.74C55.8266 97.86 55.1766 98.75 54.4966 99.41C53.8366 100.07 53.1266 100.4 52.3666 100.4ZM52.2766 99.44C52.6766 99.44 53.2166 99.04 53.8966 98.24C54.5966 97.46 55.3466 96.11 56.1466 94.19C55.3466 94.59 54.5966 95 53.8966 95.42C53.2166 95.86 52.6566 96.32 52.2166 96.8C51.7766 97.28 51.5566 97.81 51.5566 98.39C51.5566 98.71 51.6266 98.96 51.7666 99.14C51.9066 99.34 52.0766 99.44 52.2766 99.44ZM64.9567 92.96C64.0967 92.96 63.4867 92.69 63.1267 92.15C62.7667 91.63 62.5867 90.99 62.5867 90.23C62.5867 89.61 62.6867 88.97 62.8867 88.31C63.0867 87.65 63.3467 87.03 63.6667 86.45C64.0067 85.87 64.3767 85.4 64.7767 85.04C65.1967 84.68 65.6167 84.5 66.0367 84.5C66.1367 84.5 66.2367 84.52 66.3367 84.56C66.4567 84.58 66.5667 84.61 66.6667 84.65C66.4867 84.81 66.2667 85.11 66.0067 85.55C65.7667 85.97 65.5367 86.46 65.3167 87.02C65.0967 87.56 64.9067 88.1 64.7467 88.64C64.6067 89.18 64.5367 89.64 64.5367 90.02C64.5367 90.62 64.6367 91.06 64.8367 91.34C65.0367 91.6 65.2967 91.73 65.6167 91.73C66.0367 91.73 66.5367 91.51 67.1167 91.07C67.6967 90.61 68.2667 90.03 68.8267 89.33C68.2667 88.87 67.8267 88.27 67.5067 87.53C67.2067 86.77 67.0567 86 67.0567 85.22C67.0567 84.56 67.1667 83.94 67.3867 83.36C67.6267 82.78 67.9667 82.32 68.4067 81.98C68.8467 81.62 69.3767 81.44 69.9967 81.44C70.8167 81.44 71.3667 81.66 71.6467 82.1C71.9267 82.54 72.0667 83.09 72.0667 83.75C72.0667 84.53 71.8767 85.4 71.4967 86.36C71.1167 87.3 70.6367 88.21 70.0567 89.09C70.4167 89.29 70.7967 89.39 71.1967 89.39C71.5167 89.39 71.8767 89.33 72.2767 89.21C72.6767 89.07 73.0667 88.84 73.4467 88.52C73.8467 88.2 74.1667 87.77 74.4067 87.23L74.7667 87.53C74.3667 88.47 73.7967 89.14 73.0567 89.54C72.3367 89.92 71.6467 90.11 70.9867 90.11C70.7267 90.11 70.4767 90.09 70.2367 90.05C69.9967 89.99 69.7667 89.91 69.5467 89.81C68.8667 90.71 68.1167 91.46 67.2967 92.06C66.4967 92.66 65.7167 92.96 64.9567 92.96ZM69.3667 88.55C69.8667 87.81 70.2767 87.04 70.5967 86.24C70.9367 85.42 71.1067 84.65 71.1067 83.93C71.1067 83.35 71.0167 82.93 70.8367 82.67C70.6767 82.39 70.4667 82.25 70.2067 82.25C69.8067 82.25 69.3967 82.54 68.9767 83.12C68.5567 83.7 68.3467 84.43 68.3467 85.31C68.3467 85.89 68.4267 86.48 68.5867 87.08C68.7667 87.66 69.0267 88.15 69.3667 88.55ZM76.3338 92.9C75.4738 92.9 74.8538 92.6 74.4738 92C74.1138 91.42 73.9338 90.69 73.9338 89.81C73.9338 88.85 74.1138 87.71 74.4738 86.39C74.8338 85.07 75.3038 83.68 75.8838 82.22C76.4838 80.76 77.1338 79.34 77.8338 77.96C78.5338 76.56 79.2338 75.29 79.9338 74.15C80.6338 73.01 81.2738 72.1 81.8538 71.42C82.4538 70.74 82.9238 70.4 83.2638 70.4C83.4838 70.4 83.6638 70.53 83.8038 70.79C83.9438 71.03 84.0538 71.33 84.1338 71.69C84.2138 72.03 84.2538 72.34 84.2538 72.62C84.2538 73.16 84.1138 73.87 83.8338 74.75C83.5738 75.61 83.1938 76.58 82.6938 77.66C82.2138 78.72 81.6338 79.8 80.9538 80.9C80.2938 81.98 79.5638 83.02 78.7638 84.02C77.9838 85.02 77.1538 85.88 76.2738 86.6C76.1538 87.14 76.0538 87.67 75.9738 88.19C75.9138 88.69 75.8838 89.17 75.8838 89.63C75.8838 90.41 75.9938 90.99 76.2138 91.37C76.4338 91.75 76.7638 91.94 77.2038 91.94C77.7438 91.94 78.2738 91.7 78.7938 91.22C79.3338 90.74 79.8338 90.14 80.2938 89.42C80.7738 88.68 81.1838 87.92 81.5238 87.14L81.9738 87.38C81.1738 89.08 80.3038 90.43 79.3638 91.43C78.4238 92.41 77.4138 92.9 76.3338 92.9ZM76.5438 85.58C77.2438 84.88 77.9238 84.08 78.5838 83.18C79.2438 82.26 79.8538 81.31 80.4138 80.33C80.9938 79.35 81.5038 78.4 81.9438 77.48C82.3838 76.56 82.7238 75.74 82.9638 75.02C83.2038 74.28 83.3238 73.71 83.3238 73.31C83.3238 73.11 83.2938 72.98 83.2338 72.92C83.1938 72.86 83.1538 72.83 83.1138 72.83C82.9538 72.83 82.6738 73.09 82.2738 73.61C81.8938 74.11 81.4438 74.79 80.9238 75.65C80.4038 76.51 79.8738 77.49 79.3338 78.59C78.7938 79.69 78.2738 80.84 77.7738 82.04C77.2938 83.24 76.8838 84.42 76.5438 85.58ZM83.0936 92.78C82.3136 92.78 81.7336 92.53 81.3536 92.03C80.9736 91.55 80.7836 90.96 80.7836 90.26C80.7836 89.8 80.8636 89.22 81.0236 88.52C81.2036 87.82 81.4336 87.09 81.7136 86.33C81.9936 85.55 82.3136 84.82 82.6736 84.14C83.0536 83.46 83.4536 82.91 83.8736 82.49C84.2936 82.05 84.7036 81.83 85.1036 81.83C85.2836 81.83 85.4336 81.89 85.5536 82.01C85.6936 82.11 85.7636 82.27 85.7636 82.49C85.7636 82.73 85.6036 83.12 85.2836 83.66C84.9836 84.2 84.6236 84.82 84.2036 85.52C83.7836 86.22 83.4136 86.96 83.0936 87.74C82.7936 88.5 82.6436 89.23 82.6436 89.93C82.6436 90.65 82.7636 91.13 83.0036 91.37C83.2436 91.61 83.6136 91.73 84.1136 91.73C84.7936 91.73 85.5136 91.39 86.2736 90.71C87.0536 90.03 87.8736 88.84 88.7336 87.14L89.0036 87.44C88.4236 89.16 87.5836 90.48 86.4836 91.4C85.4036 92.32 84.2736 92.78 83.0936 92.78ZM86.6936 79.04C86.3736 79.04 86.0836 78.96 85.8236 78.8C85.5836 78.64 85.4636 78.39 85.4636 78.05C85.4636 77.63 85.7036 77.27 86.1836 76.97C86.6836 76.65 87.1736 76.49 87.6536 76.49C87.9536 76.49 88.1936 76.56 88.3736 76.7C88.5536 76.84 88.6436 77.08 88.6436 77.42C88.6436 77.8 88.4336 78.17 88.0136 78.53C87.6136 78.87 87.1736 79.04 86.6936 79.04ZM90.2399 92.96C89.3799 92.96 88.7699 92.69 88.4099 92.15C88.0499 91.63 87.8699 90.99 87.8699 90.23C87.8699 89.61 87.9699 88.97 88.1699 88.31C88.3699 87.65 88.6299 87.03 88.9499 86.45C89.2899 85.87 89.6599 85.4 90.0599 85.04C90.4799 84.68 90.8999 84.5 91.3199 84.5C91.4199 84.5 91.5199 84.52 91.6199 84.56C91.7399 84.58 91.8499 84.61 91.9499 84.65C91.7699 84.81 91.5499 85.11 91.2899 85.55C91.0499 85.97 90.8199 86.46 90.5999 87.02C90.3799 87.56 90.1899 88.1 90.0299 88.64C89.8899 89.18 89.8199 89.64 89.8199 90.02C89.8199 90.62 89.9199 91.06 90.1199 91.34C90.3199 91.6 90.5799 91.73 90.8999 91.73C91.3199 91.73 91.8199 91.51 92.3999 91.07C92.9799 90.61 93.5499 90.03 94.1099 89.33C93.5499 88.87 93.1099 88.27 92.7899 87.53C92.4899 86.77 92.3399 86 92.3399 85.22C92.3399 84.56 92.4499 83.94 92.6699 83.36C92.9099 82.78 93.2499 82.32 93.6899 81.98C94.1299 81.62 94.6599 81.44 95.2799 81.44C96.0999 81.44 96.6499 81.66 96.9299 82.1C97.2099 82.54 97.3499 83.09 97.3499 83.75C97.3499 84.53 97.1599 85.4 96.7799 86.36C96.3999 87.3 95.9199 88.21 95.3399 89.09C95.6999 89.29 96.0799 89.39 96.4799 89.39C96.7999 89.39 97.1599 89.33 97.5599 89.21C97.9599 89.07 98.3499 88.84 98.7299 88.52C99.1299 88.2 99.4499 87.77 99.6899 87.23L100.05 87.53C99.6499 88.47 99.0799 89.14 98.3399 89.54C97.6199 89.92 96.9299 90.11 96.2699 90.11C96.0099 90.11 95.7599 90.09 95.5199 90.05C95.2799 89.99 95.0499 89.91 94.8299 89.81C94.1499 90.71 93.3999 91.46 92.5799 92.06C91.7799 92.66 90.9999 92.96 90.2399 92.96ZM94.6499 88.55C95.1499 87.81 95.5599 87.04 95.8799 86.24C96.2199 85.42 96.3899 84.65 96.3899 83.93C96.3899 83.35 96.2999 82.93 96.1199 82.67C95.9599 82.39 95.7499 82.25 95.4899 82.25C95.0899 82.25 94.6799 82.54 94.2599 83.12C93.8399 83.7 93.6299 84.43 93.6299 85.31C93.6299 85.89 93.7099 86.48 93.8699 87.08C94.0499 87.66 94.3099 88.15 94.6499 88.55Z" fill="#EAA900"/>
<defs>
<linearGradient id="paint0_linear_2_108" x1="41.3021" y1="61.0658" x2="41.3021" y2="28.8812" gradientUnits="userSpaceOnUse">
<stop stop-color="#E0A500"/>
<stop offset="1" stop-color="#97691B"/>
</linearGradient>
<linearGradient id="paint1_linear_2_108" x1="33" y1="19.9491" x2="91.9999" y2="19.9491" gradientUnits="userSpaceOnUse">
<stop stop-color="#E0A500"/>
<stop offset="1" stop-color="#97691B"/>
</linearGradient>
<linearGradient id="paint2_linear_2_108" x1="33" y1="47.1596" x2="91.9999" y2="47.1596" gradientUnits="userSpaceOnUse">
<stop stop-color="#97691B"/>
<stop offset="1" stop-color="#E0A500"/>
</linearGradient>
</defs>
</svg>
