<svg xmlns="http://www.w3.org/2000/svg" viewBox="0 0 32 32"><path d="M31,16A15,15,0,0,0,1,16c0,.43,0,.88.07,1.36A3.39,3.39,0,0,0,1,18v6a3,3,0,0,0,6,0V18a3,3,0,0,0-3-3,2.51,2.51,0,0,0-.55.06l-.22,0a1.52,1.52,0,0,0-.2.06,13,13,0,0,1,25.94,0,1.52,1.52,0,0,0-.2-.06l-.22,0A2.51,2.51,0,0,0,28,15a3,3,0,0,0-3,3v6a3,3,0,0,0,1.25,2.43,3,3,0,0,1-1.71.57H18.73a3,3,0,1,0,0,2h5.81a5,5,0,0,0,4-2.06A3,3,0,0,0,31,24V18a3.39,3.39,0,0,0-.07-.64C31,16.88,31,16.43,31,16ZM5,18v6a1,1,0,0,1-2,0V18a.94.94,0,0,1,.06-.3,1.21,1.21,0,0,1,.09-.2,1,1,0,0,1,.08-.11l.13-.15.15-.09.14-.08A1,1,0,0,1,4,17,1,1,0,0,1,5,18ZM15.92,29a1,1,0,1,1,1-1A1,1,0,0,1,15.92,29ZM29,24a1,1,0,0,1-2,0V18a1,1,0,0,1,1-1,1,1,0,0,1,.35.07l.14.08.15.09.13.15a1,1,0,0,1,.08.11,1.21,1.21,0,0,1,.09.2A.94.94,0,0,1,29,18Z"/></svg>