<svg id="Brain" xmlns="http://www.w3.org/2000/svg" xmlns:xlink="http://www.w3.org/1999/xlink" width="51.522" height="57.489" viewBox="0 0 51.522 57.489">
  <defs>
    <clipPath id="clip-path">
      <rect id="Rectangle_58" data-name="Rectangle 58" width="51.522" height="57.489" fill="#1aa9a0"/>
    </clipPath>
  </defs>
  <g id="Group_46" data-name="Group 46" clip-path="url(#clip-path)">
    <path id="Path_41" data-name="Path 41" d="M17,57.489a28.972,28.972,0,0,1-3.09-.945,8.059,8.059,0,0,1-3.442-2.961,1.835,1.835,0,0,0-.781-.652A8.911,8.911,0,0,1,4,44.29a1.084,1.084,0,0,0-.559-1.127A7.817,7.817,0,0,1,1.03,32.845a1,1,0,0,0,.043-1.2,7.752,7.752,0,0,1,.884-9.077.974.974,0,0,0,.256-.994A7.836,7.836,0,0,1,7.832,12.19c.16-.043.319-.09.377-.106a21.534,21.534,0,0,1-.2-2.747,5.314,5.314,0,0,1,2.4-4.236c1.582-1.091,3.2-2.14,4.851-3.119a14.709,14.709,0,0,1,4.8-1.8,5.335,5.335,0,0,1,5.665,1.76c.035-.008.084,0,.1-.027,1.793-2.183,4.1-2.186,6.549-1.528a20.743,20.743,0,0,1,6.451,3.184c.689.48,1.4.92,2.1,1.394a5.822,5.822,0,0,1,2.376,6.586c-.046.158-.077.32-.122.511A7.913,7.913,0,0,1,49.3,21.63a.894.894,0,0,0,.235.9,7.785,7.785,0,0,1,.9,9.174.84.84,0,0,0-.024,1,7.8,7.8,0,0,1-2.46,10.56.793.793,0,0,0-.429.806,8.894,8.894,0,0,1-5.789,8.9,1.135,1.135,0,0,0-.521.379,8.846,8.846,0,0,1-6.531,4.079.694.694,0,0,0-.156.061H32.948a1.559,1.559,0,0,0-.265-.079,8.394,8.394,0,0,1-5.217-2.545c-.637-.662-1.161-1.433-1.753-2.175-.072.108-.168.238-.249.377a8.921,8.921,0,0,1-3.545,3.4,11.008,11.008,0,0,1-3.344,1.023Zm9.68-44.513a5.335,5.335,0,0,1,2.807-1.049.975.975,0,0,1,1.1.589c.242.595-.147,1.138-.865,1.272a5.151,5.151,0,0,0-1.294.315,3.133,3.133,0,0,0-1.749,3.128q.009,14.9.006,29.806c0,.784,0,1.574.073,2.353a6.976,6.976,0,0,0,12.848,2.963A2.562,2.562,0,0,1,41.037,51.2a6.97,6.97,0,0,0,4.55-7.737c-.12-.732.03-.961.668-1.372a10.449,10.449,0,0,0,1.786-1.332,5.862,5.862,0,0,0,.777-7.049c-.149.113-.3.226-.446.336a7.614,7.614,0,0,1-4.7,1.567.9.9,0,0,1-.949-.9.927.927,0,0,1,.875-.922c.148-.019.3-.018.448-.033a5.849,5.849,0,0,0,5.236-3.964,5.589,5.589,0,0,0-1.344-6.208,1.841,1.841,0,0,1-.537-2.123,5.987,5.987,0,0,0-11.328-3.847,10.266,10.266,0,0,0-.428,2.128c-.116.811-.8,1.229-1.432.828a1.1,1.1,0,0,1-.429-1.137,7.873,7.873,0,0,1,6.97-7.46.891.891,0,0,0,.574-.42,4.016,4.016,0,0,0-2.381-5.5,3.955,3.955,0,0,0-4.8,1.888c-.392.646-.87.841-1.377.563-.524-.288-.643-.855-.219-1.5a6.241,6.241,0,0,1,1.235-1.5,23.745,23.745,0,0,1,2.326-1.47c-.388-.216-.848-.5-1.334-.735a11.8,11.8,0,0,0-4.914-1.417,2.932,2.932,0,0,0-3.114,2.679c-.111,1.188-.061,2.391-.068,3.587-.009,1.567,0,3.134,0,4.836m-24.01,20.7a6.043,6.043,0,0,0,2.537,8.4c.691.36.841.64.75,1.275a6.949,6.949,0,0,0,4.735,7.93,2.1,2.1,0,0,1,1.13.931,6.818,6.818,0,0,0,5.843,3.394A6.987,6.987,0,0,0,24.4,51.023a6.9,6.9,0,0,0-2.156-7.784A15.052,15.052,0,0,0,19.7,41.873c-.611-.3-.878-.749-.662-1.28.2-.5.672-.674,1.328-.474a8.753,8.753,0,0,1,4.062,2.589,2.178,2.178,0,0,1,.235.421l.16-.137a2.027,2.027,0,0,0,.021-.209q0-10.918-.014-21.836a3.667,3.667,0,0,0-.349-1.51,3.024,3.024,0,0,0-2.708-1.7.915.915,0,0,1-.9-.953.888.888,0,0,1,1.034-.859,10.637,10.637,0,0,1,1.845.406,6.115,6.115,0,0,1,1.023.529c.033-.063.063-.093.063-.124,0-3.948.045-7.9-.017-11.844a2.964,2.964,0,0,0-3.323-3A13.766,13.766,0,0,0,15.32,4.072c.048.053.067.091.1.1.1.041.212.071.316.109a5.911,5.911,0,0,1,3.325,2.853.93.93,0,1,1-1.593.947c-.082-.125-.149-.259-.229-.386a4.031,4.031,0,0,0-7.1,3.755.761.761,0,0,0,.687.545,7.391,7.391,0,0,1,4.276,1.916A7.782,7.782,0,0,1,17.748,19.6c.02.463-.109.916-.588,1.028a1.231,1.231,0,0,1-.958-.2,1.43,1.43,0,0,1-.314-.909,5.946,5.946,0,0,0-3.252-5.044,5.844,5.844,0,0,0-6.607.724,5.788,5.788,0,0,0-1.874,6.369A1.654,1.654,0,0,1,3.662,23.5a5.646,5.646,0,0,0-1.578,5.814,5.832,5.832,0,0,0,4.182,4.224,10.827,10.827,0,0,0,1.659.25.934.934,0,0,1,.876.923.9.9,0,0,1-.948.9,7.19,7.19,0,0,1-1.118-.07,7.971,7.971,0,0,1-4.061-1.869" transform="translate(0 0)" fill="#1aa9a0"/>
    <path id="Path_42" data-name="Path 42" d="M205.05,123.793a3.931,3.931,0,0,0,3.423,3.111,4.44,4.44,0,0,1,.61.083.905.905,0,0,1,.766,1,.924.924,0,0,1-.987.809,5.645,5.645,0,0,1-4.609-2.375,10.127,10.127,0,0,1-1.027-2.212c-.116-.3-.217-.437-.553-.49a7.611,7.611,0,0,1-4.105-2.032c-.539-.509-.626-1.039-.254-1.468.387-.445.943-.408,1.522.1a6.031,6.031,0,0,0,10.156-4.2c.037-.739.47-1.165,1.064-1.068.528.086.8.468.784,1.113a7.864,7.864,0,0,1-5.713,7.362c-.357.1-.718.178-1.076.265" transform="translate(-167.28 -97.149)" fill="#1aa9a0"/>
    <path id="Path_43" data-name="Path 43" d="M194.092,218.77c.329,0,.588,0,.848,0,.665-.007,1.067.3,1.1.855s-.322.939-.983.976a6.089,6.089,0,0,0-3.84,1.488A5.858,5.858,0,0,0,189.151,226c-.023.223-.035.448-.067.67a.914.914,0,1,1-1.824-.119,7.707,7.707,0,0,1,1.542-4.595,7.469,7.469,0,0,1,2.959-2.423.659.659,0,0,0,.451-.668,6.041,6.041,0,0,0-5.587-6.173c-.149-.01-.3-.017-.446-.041a.949.949,0,0,1-.911-1,.97.97,0,0,1,1.075-.842,7.91,7.91,0,0,1,7.674,7.034c.025.3.048.594.075.928" transform="translate(-156.451 -178.024)" fill="#1aa9a0"/>
    <path id="Path_44" data-name="Path 44" d="M64.286,130.182c-.6-.175-1.2-.31-1.774-.525a7.9,7.9,0,0,1-5.053-7.062,1.017,1.017,0,0,1,.62-1.136c.621-.237,1.159.182,1.255.947a10.228,10.228,0,0,0,.271,1.709,6.017,6.017,0,0,0,9.778,2.656c.083-.076.161-.157.249-.227a.948.948,0,0,1,1.358.024.89.89,0,0,1-.121,1.345,7.39,7.39,0,0,1-1.6,1.207c-.848.41-1.778.65-2.662.99-.187.072-.439.242-.472.406a5.933,5.933,0,0,1-5.394,4.627c-.713.044-1.2-.221-1.271-.787-.077-.59.339-1.022,1.086-1.067a4.011,4.011,0,0,0,2.616-1.13,3.824,3.824,0,0,0,1.118-1.976" transform="translate(-48.522 -102.513)" fill="#1aa9a0"/>
    <path id="Path_45" data-name="Path 45" d="M59.458,231.673a7.832,7.832,0,0,1,2.078-5.438,7.628,7.628,0,0,1,5.546-2.556c.726-.024,1.13.268,1.17.831.044.6-.33.95-1.072,1.007a6.069,6.069,0,0,0-5.728,4.825c-.031.146-.042.3-.07.442a1.561,1.561,0,0,0,.945,1.93,7.559,7.559,0,0,1,3.959,6.667.947.947,0,0,1-.891,1.031.959.959,0,0,1-.966-1.021,6.093,6.093,0,0,0-5.7-5.914c-.112-.008-.225,0-.336-.016a.965.965,0,0,1-.917-.955.953.953,0,0,1,1.031-.891c.3,0,.592.035.948.058" transform="translate(-48.54 -188.891)" fill="#1aa9a0"/>
  </g>
</svg>
