<svg xmlns="http://www.w3.org/2000/svg" width="68" height="28.535" viewBox="0 0 68 28.535">
  <path id="_4047299_automobile_car_hatch_hatchback_side_icon" data-name="4047299_automobile_car_hatch_hatchback_side_icon" d="M215.777,376.53h-4.822a6.49,6.49,0,0,1-12.8,0H168.763a6.49,6.49,0,0,1-12.8,0h-4.2a2.368,2.368,0,0,1-2.237-1.816l-.131-.481a2.729,2.729,0,0,1-.1-.722,2.679,2.679,0,0,1,.541-1.627,2.686,2.686,0,0,0,.54-1.626v-2.292l.216-1.209a8.584,8.584,0,0,1,1.86-4.02l4.809-5.718a1.666,1.666,0,0,0,.383-1.072,1.719,1.719,0,0,0-.047-.4,1.55,1.55,0,0,1,1.545-1.979l3.838.38,12.222-.5a39.766,39.766,0,0,1,4.158.049l8.729.562a6.489,6.489,0,0,1,2.572.712l9.458,4.871a6.517,6.517,0,0,0,1.779.613l8.992,1.7a4.3,4.3,0,0,1,3.229,2.977l.638,1.981a4.607,4.607,0,0,0,1.079,1.808l.456.467a1.69,1.69,0,0,1,.43.8l.572,2.454v2.437A1.587,1.587,0,0,1,215.777,376.53Zm-59.621-12.219-2.837.6a.607.607,0,0,0-.435.359l-.807,1.925a.608.608,0,0,0,.088.617l.28.346a.607.607,0,0,0,.764.15l2.43-1.333a.607.607,0,0,0,.227-.217l.934-1.534A.607.607,0,0,0,156.157,364.311Zm19.271,3.053h2.109a.827.827,0,1,0,0-1.655h-2.109a.827.827,0,1,0,0,1.655Zm-9.6,10.7a4.3,4.3,0,0,0,.736-1.536,4.2,4.2,0,0,0,.092-.458,2.69,2.69,0,0,1-.593.064,2.5,2.5,0,0,1-.826-.131,2.93,2.93,0,0,1-.457,1.107,2.516,2.516,0,0,1,.676.492A2.642,2.642,0,0,1,165.825,378.066ZM162.9,372.59a2.916,2.916,0,0,1,1.107.458,2.474,2.474,0,0,1,.491-.676,2.691,2.691,0,0,1,.463-.373,4.3,4.3,0,0,0-1.993-.827,2.686,2.686,0,0,1,.064.593A2.51,2.51,0,0,1,162.9,372.59Zm1.873,1.224a2.892,2.892,0,0,1,.457,1.107,2.52,2.52,0,0,1,.826-.131,2.69,2.69,0,0,1,.593.064,4.309,4.309,0,0,0-.827-1.993,2.693,2.693,0,0,1-.373.463A2.485,2.485,0,0,1,164.776,373.814Zm-1.806,5.94a4.32,4.32,0,0,0,1.993-.827,2.692,2.692,0,0,1-.463-.373,2.492,2.492,0,0,1-.491-.677,2.917,2.917,0,0,1-1.107.458,2.519,2.519,0,0,1,.131.826A2.678,2.678,0,0,1,162.97,379.755Zm-.609-3.12a1.158,1.158,0,0,0,.482-.1,1.172,1.172,0,1,0-.964,0A1.159,1.159,0,0,0,162.361,376.634Zm-.608,3.12a2.69,2.69,0,0,1-.065-.593,2.493,2.493,0,0,1,.132-.826,2.915,2.915,0,0,1-1.108-.458,2.491,2.491,0,0,1-.491.677,2.688,2.688,0,0,1-.463.373A4.317,4.317,0,0,0,161.753,379.755Zm-3.592-3.225a4.317,4.317,0,0,0,.736,1.536,2.656,2.656,0,0,1,.373-.463,2.528,2.528,0,0,1,.676-.492,2.827,2.827,0,0,1-.307-.581,2.863,2.863,0,0,1-.151-.526,2.493,2.493,0,0,1-.826.131,2.691,2.691,0,0,1-.593-.064A4.191,4.191,0,0,0,158.161,376.53Zm.736-3.669a4.32,4.32,0,0,0-.827,1.993,2.693,2.693,0,0,1,.593-.064,2.52,2.52,0,0,1,.826.131,2.894,2.894,0,0,1,.457-1.107,2.5,2.5,0,0,1-.676-.491A2.7,2.7,0,0,1,158.9,372.86Zm1.325-.489a2.473,2.473,0,0,1,.491.676,2.915,2.915,0,0,1,1.108-.458,2.48,2.48,0,0,1-.132-.825,2.691,2.691,0,0,1,.065-.593,4.3,4.3,0,0,0-1.994.827A2.687,2.687,0,0,1,160.222,372.372Zm10.323-16.3-7.467.305-.1,0c-.08,0-.16,0-.24-.012l-1.175-.116a.26.26,0,0,0-.279.319l.444,1.887a4.093,4.093,0,0,0,3.367,3.109l3.544.392a.261.261,0,0,0,.284-.312v0a4.733,4.733,0,0,1,.776-3.628l1.071-1.533A.261.261,0,0,0,170.545,356.074Zm28.506,5.755-.047-.024-9.458-4.871a4.041,4.041,0,0,0-1.609-.447l-8.734-.562c-.793-.051-1.6-.076-2.389-.076-.5,0-1.012.01-1.513.031a2.37,2.37,0,0,0-1.846,1.01l-1.761,2.52a2.337,2.337,0,0,0,.628,3.29l.666.44a2.337,2.337,0,0,0,1.263.386l24.352.249a1.024,1.024,0,0,0,.9-.52A1.038,1.038,0,0,0,199.051,361.83Zm8.967,16.236a4.316,4.316,0,0,0,.736-1.536,4.233,4.233,0,0,0,.092-.458,2.691,2.691,0,0,1-.593.064,2.5,2.5,0,0,1-.826-.131,2.861,2.861,0,0,1-.151.526,2.83,2.83,0,0,1-.307.581,2.529,2.529,0,0,1,.676.492A2.652,2.652,0,0,1,208.018,378.066Zm-2.856,1.689a4.324,4.324,0,0,0,1.994-.827,2.688,2.688,0,0,1-.463-.373,2.492,2.492,0,0,1-.491-.677,2.915,2.915,0,0,1-1.108.458,2.491,2.491,0,0,1,.132.826A2.684,2.684,0,0,1,205.162,379.755Zm-1.218,0a2.687,2.687,0,0,1-.064-.593,2.519,2.519,0,0,1,.131-.826,2.917,2.917,0,0,1-1.107-.458,2.492,2.492,0,0,1-.491.677,2.692,2.692,0,0,1-.463.373A4.318,4.318,0,0,0,203.945,379.755Zm-3.591-3.225a4.3,4.3,0,0,0,.736,1.536,2.657,2.657,0,0,1,.373-.463,2.515,2.515,0,0,1,.676-.492,2.824,2.824,0,0,1-.307-.581,2.854,2.854,0,0,1-.151-.526,2.494,2.494,0,0,1-.826.131,2.69,2.69,0,0,1-.593-.064A4.173,4.173,0,0,0,200.354,376.53Zm1.109-3.206a2.693,2.693,0,0,1-.373-.463,4.309,4.309,0,0,0-.827,1.993,2.692,2.692,0,0,1,.593-.064,2.52,2.52,0,0,1,.826.131,2.894,2.894,0,0,1,.457-1.107A2.489,2.489,0,0,1,201.462,373.324Zm2.482-2.152a4.3,4.3,0,0,0-1.993.827,2.692,2.692,0,0,1,.463.373,2.473,2.473,0,0,1,.491.676,2.916,2.916,0,0,1,1.107-.458,2.509,2.509,0,0,1-.131-.825A2.688,2.688,0,0,1,203.945,371.172Zm-.563,4.292a1.171,1.171,0,0,0,.69,1.067,1.166,1.166,0,0,0,.964,0,1.171,1.171,0,1,0-1.654-1.067Zm1.78-4.292a2.691,2.691,0,0,1,.065.593,2.483,2.483,0,0,1-.132.825,2.914,2.914,0,0,1,1.108.458,2.473,2.473,0,0,1,.491-.676,2.69,2.69,0,0,1,.463-.373A4.306,4.306,0,0,0,205.162,371.172Zm2.483,2.152a2.5,2.5,0,0,1-.676.491,2.892,2.892,0,0,1,.457,1.107,2.52,2.52,0,0,1,.826-.131,2.693,2.693,0,0,1,.593.064,4.32,4.32,0,0,0-.827-1.993A2.7,2.7,0,0,1,207.645,373.324Zm5.7-6.132-.807-1.925a.607.607,0,0,0-.435-.359l-2.837-.6a.607.607,0,0,0-.644.91l.934,1.534a.607.607,0,0,0,.227.217l2.43,1.333a.607.607,0,0,0,.764-.15l.28-.346A.608.608,0,0,0,213.345,367.192Z" transform="translate(-149.293 -353.416)" fill="#3468b0"/>
</svg>
