<svg id="Group_63" data-name="Group 63" xmlns="http://www.w3.org/2000/svg" xmlns:xlink="http://www.w3.org/1999/xlink" width="60.479" height="57.489" viewBox="0 0 60.479 57.489">
  <defs>
    <clipPath id="clip-path">
      <rect id="Rectangle_69" data-name="Rectangle 69" width="60.479" height="57.489" fill="#1aa9a0"/>
    </clipPath>
  </defs>
  <g id="Group_62" data-name="Group 62" clip-path="url(#clip-path)">
    <path id="Path_71" data-name="Path 71" d="M0,15.381a1.247,1.247,0,0,1,1.236-.609c3.779.017,7.558-.006,11.336.014a13.1,13.1,0,0,0,6.869-1.81c1.336-.789,2.723-1.514,3.968-2.429A11.948,11.948,0,0,0,27.633,4.5c.341-1.025.682-2.051,1.041-3.07A2.044,2.044,0,0,1,31.321.114c.749.237,1.5.483,2.234.749a1.992,1.992,0,0,1,1.33,2.343C33.868,6.559,32.8,9.89,30.5,12.659a19.267,19.267,0,0,1-5.057,4.385c-1.383.813-2.791,1.581-4.357,2.464h.727q4.074,0,8.148,0c.536,0,.928.176,1.037.743a.866.866,0,0,1-.755,1.016,3.314,3.314,0,0,1-.53.016q-14.2,0-28.4.008A1.349,1.349,0,0,1,0,20.7v-.591A1.243,1.243,0,0,1,1.235,19.5c3.857.017,7.715.044,11.572-.01a20.282,20.282,0,0,0,3.859-.422c3.6-.755,6.661-2.665,9.593-4.762a17.342,17.342,0,0,0,2.822-2.75c2.145-2.449,3.044-5.508,4.027-8.52.107-.329-.028-.47-.32-.563-.6-.192-1.2-.38-1.786-.606-.406-.156-.613-.061-.745.357-.306.974-.642,1.939-.969,2.907a14.017,14.017,0,0,1-5.575,7.4c-1.24.827-2.569,1.525-3.877,2.245a14.56,14.56,0,0,1-7.19,1.778q-5.7-.016-11.4.006A1.311,1.311,0,0,1,0,15.972Z" transform="translate(0 0)" fill="#1aa9a0"/>
    <path id="Path_72" data-name="Path 72" d="M0,210.265c.463-.652.659-.723,1.444-.5,2.3.662,4.613,1.312,6.912,2a11.267,11.267,0,0,0,6.342.087c1.838-.507,3.69-.959,5.535-1.441a13.738,13.738,0,0,1,7.113.155c2,.528,4.018.949,6.014,1.471A12.955,12.955,0,0,0,40,211.758c2.17-.559,4.359-1.041,6.54-1.558a13.987,13.987,0,0,1,6.087.092c2.216.449,4.442.851,6.663,1.274.154.029.31.057.461.1a.874.874,0,1,1-.361,1.71c-1.433-.252-2.861-.534-4.292-.8q-2.291-.424-4.584-.835c-.268-.048-.545-.046-.9-.073,0,1.051.059,2.072-.017,3.083a2.848,2.848,0,0,0,.881,2.418c.917.916,1.727,1.94,2.577,2.924.475.549.491,1.089.061,1.448-.412.344-.923.248-1.381-.273-.973-1.108-1.941-2.22-2.973-3.4-.582.738-1.11,1.462-1.7,2.129a1.412,1.412,0,0,1-.874.483.853.853,0,0,1-.6-1.431c.621-.838,1.3-1.633,1.91-2.479a1.815,1.815,0,0,0,.328-.951c.037-1.256.015-2.514.015-3.887-.923.212-1.776.4-2.628.6-2.047.483-4.1.963-6.139,1.459a14.141,14.141,0,0,1-7.058-.261c-2-.526-4.008-.989-6.016-1.465a11.253,11.253,0,0,0-5.6.126c-1.936.52-3.879,1.015-5.823,1.5a12.27,12.27,0,0,1-6.528-.188c-2.32-.679-4.649-1.329-6.964-2.027A5.348,5.348,0,0,1,0,210.856v-.591" transform="translate(0 -176.568)" fill="#1aa9a0"/>
    <path id="Path_73" data-name="Path 73" d="M0,353.6a1.227,1.227,0,0,1,1.244-.695q29,.014,58.006.011c.232,0,.545-.025.679.106.24.236.536.6.505.877s-.405.549-.681.753c-.13.1-.382.033-.578.033q-28.914,0-57.829.01A1.363,1.363,0,0,1,0,354.076Z" transform="translate(0 -297.219)" fill="#1aa9a0"/>
    <path id="Path_74" data-name="Path 74" d="M0,161.587a1.191,1.191,0,0,1,1.171-.614q22.555.016,45.11.009a2.809,2.809,0,0,1,.413.013.742.742,0,0,1,.724.785,1.48,1.48,0,0,1-.547.866c-.178.144-.525.1-.8.1q-22.348.006-44.7.011A1.43,1.43,0,0,1,0,162.178Z" transform="translate(0 -135.571)" fill="#1aa9a0"/>
    <path id="Path_75" data-name="Path 75" d="M0,321.4a1.226,1.226,0,0,1,1.243-.7q9.443.019,18.887.011c.213,0,.5-.025.622.095a1.707,1.707,0,0,1,.548.869.734.734,0,0,1-.717.788,3.674,3.674,0,0,1-.53.017q-9.384,0-18.768.011A1.318,1.318,0,0,1,0,321.875Z" transform="translate(0 -270.099)" fill="#1aa9a0"/>
    <path id="Path_76" data-name="Path 76" d="M98.845,252.466l1.878-4.965c.083-.221.154-.447.252-.661a.878.878,0,1,1,1.647.61c-.092.32-.228.628-.345.941-.608,1.619-1.239,3.23-1.813,4.862a5.9,5.9,0,0,0-.308,1.654c-.048,1-.014,2-.014,3.1h.765q16.39,0,32.78,0a3.018,3.018,0,0,1,.816.075.787.787,0,0,1,.6.9.814.814,0,0,1-.756.778,3.96,3.96,0,0,1-.531.016H99.675c-1.077,0-1.3-.232-1.305-1.318,0-1.221.019-2.442-.016-3.662a1.08,1.08,0,0,0-.351-.721c-1.252-1.018-2.54-1.991-3.8-3a5.993,5.993,0,0,0-4.04-1.384,3.926,3.926,0,0,1-.766-.019.875.875,0,0,1,.09-1.746,8.009,8.009,0,0,1,5.7,1.67c1.186.942,2.388,1.865,3.667,2.862" transform="translate(-74.627 -207.394)" fill="#1aa9a0"/>
    <path id="Path_77" data-name="Path 77" d="M218.623,102.757h18.484c.413,0,.827-.009,1.24,0a.9.9,0,0,1,.976.883.914.914,0,0,1-.988.881c-.787.016-1.575,0-2.362,0H213.826c-.157,0-.315,0-.472,0-.5-.015-.9-.189-.974-.743a.881.881,0,0,1,.673-1.029c1.5-.537,2.99-1.093,4.486-1.635A37.251,37.251,0,0,1,230.6,98.848c2.52.019,5.04,0,7.56,0,.742,0,1.16.32,1.159.875s-.43.893-1.159.895c-2.933.008-5.867-.021-8.8.024a34.2,34.2,0,0,0-10.521,1.9,2.1,2.1,0,0,0-.249.122l.03.089" transform="translate(-178.855 -83.249)" fill="#1aa9a0"/>
    <path id="Path_78" data-name="Path 78" d="M321.623,161.023c1.4,0,2.8,0,4.193,0,.686,0,1.1.345,1.087.888a.932.932,0,0,1-1.054.879q-4.222.012-8.444,0c-.649,0-1.038-.347-1.047-.876-.01-.557.38-.888,1.074-.891,1.4,0,2.8,0,4.193,0" transform="translate(-266.435 -135.612)" fill="#1aa9a0"/>
    <path id="Path_79" data-name="Path 79" d="M228.068,286.317a.885.885,0,0,1-.865.859.906.906,0,0,1-.872-.861.881.881,0,0,1,.9-.878.868.868,0,0,1,.835.881" transform="translate(-190.615 -240.394)" fill="#1aa9a0"/>
    <path id="Path_80" data-name="Path 80" d="M38.091,276.93a.843.843,0,0,1-.87-.848.855.855,0,1,1,1.71-.031.85.85,0,0,1-.84.879" transform="translate(-31.347 -231.77)" fill="#1aa9a0"/>
  </g>
</svg>
