<svg id="_1904654_cancel_close_cross_delete_reject_icon" data-name="1904654_cancel_close_cross_delete_reject_icon" xmlns="http://www.w3.org/2000/svg" width="17.59" height="17.59" viewBox="0 0 17.59 17.59">
  <path id="Path_59609" data-name="Path 59609" d="M8.8,0a8.8,8.8,0,1,0,8.8,8.8A8.8,8.8,0,0,0,8.8,0Zm0,16.766A7.971,7.971,0,1,1,16.766,8.8,7.971,7.971,0,0,1,8.8,16.766Z" fill="#df0000"/>
  <path id="Path_59610" data-name="Path 59610" d="M42.849,35a.412.412,0,0,0-.583,0l-3.282,3.293-3.28-3.3a.413.413,0,1,0-.584.584l3.282,3.3-3.282,3.3a.412.412,0,1,0,.584.583l3.28-3.3,3.282,3.3a.413.413,0,0,0,.584-.584l-3.283-3.3,3.283-3.3A.412.412,0,0,0,42.849,35Z" transform="translate(-30.19 -30.078)" fill="#df0000"/>
</svg>
