<svg id="Group_131" data-name="Group 131" xmlns="http://www.w3.org/2000/svg" xmlns:xlink="http://www.w3.org/1999/xlink" width="66.261" height="60.707" viewBox="0 0 66.261 60.707">
  <defs>
    <clipPath id="clip-path">
      <rect id="Rectangle_109" data-name="Rectangle 109" width="66.261" height="60.707" fill="#1aa9a0"/>
    </clipPath>
  </defs>
  <g id="Group_130" data-name="Group 130" clip-path="url(#clip-path)">
    <path id="Path_255" data-name="Path 255" d="M13.01,36.424c.644-.751,1.228-1.521,1.9-2.2a14.318,14.318,0,0,1,14.6-4.167,28,28,0,0,0,5.719.727c3.054.117,6.117.075,9.174.017,2.126-.04,3.955.467,5.249,2.325.217-.205.4-.374.58-.55q3.336-3.3,6.671-6.6a5.717,5.717,0,0,1,5.724-1.511,4.921,4.921,0,0,1,2.512,7.868c-3.588,4.342-7.256,8.619-10.943,12.877a7.788,7.788,0,0,1-5.882,2.781c-5.815.106-11.632.085-17.446.172-1.9.028-3.8.232-5.778.36.05.306.075.5.115.686a4.365,4.365,0,0,1-1,4.118c-2.206,2.343-4.465,4.637-6.723,6.931a1.248,1.248,0,0,1-1.9.02c-.779-.715-1.547-1.443-2.3-2.19a1.29,1.29,0,0,1-.088-1.852,1.3,1.3,0,0,1,1.858-.029c.48.422.931.878,1.321,1.247.953-.9,1.887-1.743,2.783-2.626.966-.953,1.9-1.936,2.843-2.913a2.068,2.068,0,0,0-.017-3.212q-5.015-4.888-10.051-9.752a1.951,1.951,0,0,0-2.845-.195C7.085,40.744,5.143,42.8,3.219,44.778c1.153,1.2,2.261,2.357,3.375,3.511.319.33.667.634.976.974a1.313,1.313,0,0,1,0,1.859A1.286,1.286,0,0,1,5.763,51.1c-1.1-1.046-2.168-2.124-3.249-3.19-.637-.63-1.278-1.258-1.912-1.892a1.337,1.337,0,0,1-.045-2.2q3.176-3.311,6.364-6.609a4.628,4.628,0,0,1,5.849-.9c.078.041.16.076.24.114m2.023,1.808c2.707,2.61,5.382,5.2,8.077,7.766a.971.971,0,0,0,.684.141c1.532-.149,3.059-.436,4.592-.47,4.228-.095,8.458-.087,12.687-.119,2.069-.016,4.138-.023,6.207-.045a7.138,7.138,0,0,0,5.764-2.863c2.162-2.684,4.448-5.269,6.681-7.9,1.1-1.3,2.225-2.575,3.3-3.894a2.371,2.371,0,0,0-1.281-3.937,3.344,3.344,0,0,0-3.041.923c-2.6,2.6-5.229,5.175-7.832,7.774a1.453,1.453,0,0,0-.387.758,5.173,5.173,0,0,1-5.523,4.753c-2.735.008-5.471,0-8.207,0a4.27,4.27,0,0,1-.62-.025,1.24,1.24,0,0,1-1.066-1.173,1.214,1.214,0,0,1,.957-1.324,3.822,3.822,0,0,1,.822-.061q4.035-.006,8.07,0a2.974,2.974,0,0,0,2.007-.572,2.6,2.6,0,0,0,.834-2.857A2.576,2.576,0,0,0,45.182,33.4c-3.172-.011-6.345-.03-9.518.005a26.425,26.425,0,0,1-7.224-.9c-5.881-1.589-10.675,1.56-13.407,5.722" fill="#1aa9a0"/>
    <path id="Path_256" data-name="Path 256" d="M51.695,13.755A13.725,13.725,0,1,1,37.995,0a13.709,13.709,0,0,1,13.7,13.755M37.969,24.861A11.129,11.129,0,1,0,26.835,13.778,11.148,11.148,0,0,0,37.969,24.861" fill="#1aa9a0"/>
    <path id="Path_257" data-name="Path 257" d="M10.3,48a3.511,3.511,0,1,1,3.536-3.48A3.52,3.52,0,0,1,10.3,48m.923-3.41a.913.913,0,0,0-.822-1,.9.9,0,0,0-.977.846.842.842,0,0,0,.786.952.878.878,0,0,0,1.013-.8" fill="#1aa9a0"/>
    <path id="Path_258" data-name="Path 258" d="M10.424,52.426a1.329,1.329,0,0,1,1.332,1.3,1.346,1.346,0,0,1-1.33,1.307,1.283,1.283,0,0,1-1.315-1.291,1.317,1.317,0,0,1,1.313-1.312" fill="#1aa9a0"/>
    <path id="Path_259" data-name="Path 259" d="M32.418,39.967a1.307,1.307,0,0,1-1.3,1.318,1.285,1.285,0,0,1-1.354-1.251,1.3,1.3,0,0,1,1.3-1.317,1.278,1.278,0,0,1,1.354,1.25" fill="#1aa9a0"/>
    <path id="Path_260" data-name="Path 260" d="M41.917,9.846c.012,1.1-.458,1.687-1.221,1.726a1.273,1.273,0,0,1-1.349-1.26c-.071-.859-.381-1.258-1.1-1.422a1.959,1.959,0,0,0-1.932.916,1.355,1.355,0,0,0,.753,2.113,4.651,4.651,0,0,0,1.07.232,4.972,4.972,0,0,1,4.292,3.729,4.221,4.221,0,0,1-2.744,4.9,1.4,1.4,0,0,0-.814.708,1.818,1.818,0,0,1-1.118.735c-.53.119-.929-.242-1.207-.731a1.554,1.554,0,0,0-.624-.621,4.856,4.856,0,0,1-2.676-4.478,1.282,1.282,0,0,1,2.558-.107c.023.159.033.32.06.479a1.945,1.945,0,0,0,1.249,1.753,2.465,2.465,0,0,0,2.261-.529,1.6,1.6,0,0,0,.213-2.233,2.717,2.717,0,0,0-1.806-1.022,7.2,7.2,0,0,1-1.791-.454,3.654,3.654,0,0,1-2.5-3.469,4.133,4.133,0,0,1,2.363-3.972,1.008,1.008,0,0,0,.675-.756A1.111,1.111,0,0,1,37.634,5.2a1.323,1.323,0,0,1,1.29.743A1.84,1.84,0,0,0,39.6,6.6c1.4.732,2.373,1.731,2.316,3.244" fill="#1aa9a0"/>
  </g>
</svg>
