<svg height="44.455" viewBox="0 0 55.484 44.455" width="55.484" xmlns="http://www.w3.org/2000/svg" xmlns:xlink="http://www.w3.org/1999/xlink"><linearGradient id="a" gradientUnits="objectBoundingBox" x1=".463" x2=".483" y1=".553" y2="1.796"><stop offset="0" stop-color="#97aaaa"/><stop offset="1" stop-color="#e8efee"/></linearGradient><linearGradient id="b" gradientUnits="objectBoundingBox" x1=".453" x2=".481" y1=".258" y2=".099"><stop offset="0" stop-color="#363f3e" stop-opacity="0"/><stop offset="1" stop-color="#303033"/></linearGradient><linearGradient id="c" x1=".76" x2=".871" xlink:href="#a" y1=".077" y2="-.077"/><linearGradient id="d" gradientUnits="objectBoundingBox" x1=".458" x2=".458" y1=".994"><stop offset="0" stop-color="#fff"/><stop offset="1" stop-color="#e8efee"/></linearGradient><linearGradient id="e" gradientUnits="objectBoundingBox" x1=".451" x2=".451" y1=".703" y2="-.15"><stop offset="0" stop-color="#3fa9f5"/><stop offset="1" stop-color="#0071e2"/></linearGradient><linearGradient id="f" gradientUnits="objectBoundingBox" x1=".458" x2=".458" y1="-5.846" y2="-6.533"><stop offset="0" stop-color="#c2cece" stop-opacity="0"/><stop offset=".179" stop-color="#afbcbc" stop-opacity=".18"/><stop offset="1" stop-color="#5b6a6a"/></linearGradient><linearGradient id="g" gradientUnits="objectBoundingBox" x1=".438" x2=".091" y1="-.393" y2=".352"><stop offset="0" stop-color="#008bf2" stop-opacity="0"/><stop offset="1" stop-color="#0046e2"/></linearGradient><linearGradient id="h" gradientUnits="objectBoundingBox" x1=".424" x2=".424" y1=".207" y2="-.973"><stop offset="0" stop-color="#c2d600"/><stop offset="1" stop-color="#7bd101"/></linearGradient><linearGradient id="i" gradientUnits="objectBoundingBox" x1=".543" x2="-.12" y1="-.817" y2=".098"><stop offset="0" stop-color="#1aceb8" stop-opacity="0"/><stop offset="1" stop-color="#04959c"/></linearGradient><linearGradient id="j" x1=".162" x2=".162" xlink:href="#d" y1=".202" y2="-.738"/><linearGradient id="k" x1=".13" x2="-.235" xlink:href="#f" y1="-.646" y2=".325"/><linearGradient id="l" x1=".44" x2=".44" xlink:href="#h" y1=".571" y2="-.608"/><linearGradient id="m" x1=".307" x2=".307" xlink:href="#d" y1="2.02" y2="1.261"/><linearGradient id="n" x1="-.081" x2=".287" xlink:href="#d" y1="-1.114" y2="-1.521"/><linearGradient id="o" x1=".88" x2="-.291" xlink:href="#g" y1=".379" y2="1.151"/><linearGradient id="p" gradientUnits="objectBoundingBox" x1=".235" x2=".235" y1="2.571" y2=".903"><stop offset="0" stop-color="#ffcf95"/><stop offset=".427" stop-color="#ffc954"/><stop offset="1" stop-color="#ffc200"/></linearGradient><g transform="translate(0 -50.886)"><path d="m49.418 53.014 6.015 30.446a2.64 2.64 0 0 1 -2.078 3.1l-44.189 8.73a2.64 2.64 0 0 1 -3.1-2.078l-6.015-30.445a2.64 2.64 0 0 1 2.078-3.1l44.189-8.73a2.64 2.64 0 0 1 3.1 2.077z" fill="url(#a)"/><path d="m100 104.066-44.191 8.734a2.64 2.64 0 0 1 -3.1-2.077l-.4-2.007a2.811 2.811 0 0 0 1.386.074l42.365-38.271 6.016 30.446a2.642 2.642 0 0 1 -2.076 3.101z" fill="url(#b)" transform="translate(-46.643 -17.505)"/><path d="m79.591 105.623v31.034a2.64 2.64 0 0 1 -2.639 2.639h-45.044a2.64 2.64 0 0 1 -2.639-2.639v-31.034a2.64 2.64 0 0 1 2.639-2.639h45.043a2.64 2.64 0 0 1 2.64 2.639z" fill="url(#c)" transform="translate(-26.097 -46.452)"/><path d="m66.3 139.3h-34.4a2.639 2.639 0 0 1 -2.639-2.639v-31.038a2.639 2.639 0 0 1 2.639-2.639h45.051a2.639 2.639 0 0 1 2.639 2.639v21.077a1.538 1.538 0 0 1 -.442 1.079l-10.3 10.449a3.578 3.578 0 0 1 -2.548 1.072z" fill="url(#d)" transform="translate(-26.097 -46.452)"/><path d="m107.252 130.7v23.234l-5.241 5.319h-35.189a2.239 2.239 0 0 1 -2.238-2.238v-26.315a2.239 2.239 0 0 1 2.238-2.238h38.192a2.239 2.239 0 0 1 2.238 2.238z" fill="url(#e)" transform="translate(-57.585 -69.168)"/><path d="m79.591 394.235v2.111a2.64 2.64 0 0 1 -2.639 2.639h-45.044a2.64 2.64 0 0 1 -2.639-2.639v-2.111z" fill="url(#f)" transform="translate(-26.097 -306.142)"/><path d="m64.6 251.491c.007.066.017.13.03.194l.007.035q.02.094.048.185l.01.032c.02.062.042.123.067.182l.007.016c.024.057.051.112.08.167l.013.025c.03.054.062.106.1.157l.023.034c.034.049.069.1.106.142l.028.034c.038.045.078.09.12.132l.027.026q.059.058.122.111l.024.021a2.228 2.228 0 0 0 1.417.506h35.181l4.059-4.119-11.889-10.907a2.4 2.4 0 0 0 -3.249 0l-5.276 4.84-8.295-8.29a2.4 2.4 0 0 0 -3.759.094l-9.017 11.933v4.212a1.331 1.331 0 0 0 .016.238z" fill="url(#g)" transform="translate(-57.585 -163.408)"/><path d="m188.34 279.635-4.053 4.112-10.7-.009-16.733-.014 9.876-9.06 6.472-5.937a2.4 2.4 0 0 1 3.249 0z" fill="url(#h)" transform="translate(-139.854 -193.671)"/><path d="m257.705 268.726a2.4 2.4 0 0 0 -3.249 0l-6.472 5.937 6.858 9.074 10.7.009c1.1-1.113 2.607-2.646 4.053-4.112z" fill="url(#i)" transform="translate(-221.111 -193.67)"/><path d="m296.227 270.694a.914.914 0 0 1 -1.35-.232.911.911 0 0 0 -1.551 0 .912.912 0 0 1 -1.552 0 .912.912 0 0 0 -1.552 0 .911.911 0 0 1 -1.441.145l2.052-1.882a2.4 2.4 0 0 1 3.248 0z" fill="url(#j)" transform="translate(-257.485 -193.667)"/><path d="m296.227 270.694a.914.914 0 0 1 -1.35-.232.911.911 0 0 0 -1.551 0 .912.912 0 0 1 -1.552 0 .912.912 0 0 0 -1.552 0 .911.911 0 0 1 -1.441.145l2.052-1.882a2.4 2.4 0 0 1 3.248 0z" fill="url(#k)" transform="translate(-257.485 -193.667)"/><path d="m87.288 240.257h-.045a3.424 3.424 0 0 0 -6.541-1.777 1.064 1.064 0 0 0 -1.337 1.483 1.985 1.985 0 0 0 .7 3.845h7.228a1.776 1.776 0 0 0 0-3.552z" fill="#008bf2" transform="translate(-69.614 -165.425)"/><path d="m91.327 253.489-24.865-.029a2.239 2.239 0 0 1 -1.878-2.209v-4.212l9.016-11.932a2.4 2.4 0 0 1 3.835 0l7.022 9.293 6.858 9.074z" fill="url(#l)" transform="translate(-57.585 -163.406)"/><path d="m138.294 237.549a.913.913 0 0 1 -1.435-.152.913.913 0 0 0 -1.552 0 .912.912 0 0 1 -1.552 0 .912.912 0 0 0 -1.552 0 .911.911 0 0 1 -1.433.154l1.845-2.443a2.4 2.4 0 0 1 3.835 0z" fill="url(#m)" transform="translate(-116.597 -163.405)"/><path d="m383.473 327.665a1.627 1.627 0 0 1 -.385.528c-.114.114-10.157 10.309-10.157 10.309a3.784 3.784 0 0 1 -2.695 1.128 1.584 1.584 0 0 0 1.584-1.584v-7.746a2.639 2.639 0 0 1 2.639-2.639z" fill="url(#n)" transform="translate(-330.115 -246.785)"/><path d="m261.425 175.046h-.045a3.424 3.424 0 0 0 -6.541-1.777 1.064 1.064 0 0 0 -1.337 1.483 1.985 1.985 0 0 0 .7 3.845h7.228a1.776 1.776 0 0 0 0-3.552z" fill="#008bf2" transform="translate(-224.881 -107.28)"/><path d="m336.957 162.845-5.479-5.479a5.376 5.376 0 1 0 -7.6 7.6l13.079 13.079z" fill="url(#o)" transform="translate(-287.291 -93.451)"/><circle cx="5.377" cy="5.377" fill="url(#p)" r="5.377" transform="translate(34.917 62.243)"/></g></svg>