<svg xmlns="http://www.w3.org/2000/svg" width="68" height="67.206" viewBox="0 0 68 67.206">
  <g id="_4116804" data-name="4116804" transform="translate(-0.007 -0.008)">
    <path id="Path_17178" data-name="Path 17178" d="M650.072,1054.37c4.4.284,8.517,1.54,12.637,2.725,1.268.362,2.545.725,3.8,1.152a5.488,5.488,0,0,1,3.791,6.67c-.858,2.964-3.612,4.44-6.8,3.625-2.3-.589-4.581-1.23-6.877-1.824-1.586-.411-2.773.115-3.143,1.347a2.315,2.315,0,0,0,1.973,3.026q8,1.848,16.028,3.571a2.974,2.974,0,0,0,1.553-.293c4.844-1.888,9.654-3.867,14.534-5.661a6.49,6.49,0,0,1,3.557-.15,3.618,3.618,0,0,1,2.609,3.624,3.7,3.7,0,0,1-2.349,3.7c-5.869,2.4-11.748,4.769-17.669,7.027a5.96,5.96,0,0,1-3.081-.009c-5.727-1.136-11.433-2.379-17.158-3.534a45.863,45.863,0,0,0-4.747-.634,12.522,12.522,0,0,0-8.283,1.714c-1.262.815-2.655,1.418-3.97,2.149a1.268,1.268,0,0,1-2.015-.6q-4.232-8.289-8.476-16.573a1.412,1.412,0,0,1,.81-2.2c5.682-2.488,11.312-5.1,17.049-7.455A37.38,37.38,0,0,1,650.072,1054.37Z" transform="translate(-625.72 -1015.891)" fill="#3468b0"/>
    <path id="Path_17179" data-name="Path 17179" d="M925.516,655.332a11.943,11.943,0,0,1-11.775,11.35c-6.394-.021-11.839-5.255-11.593-11.535a18.686,18.686,0,0,1,1.781-6.818c2.718-5.918,5.7-11.715,8.615-17.538.641-1.278,1.585-1.336,2.231-.158,3.706,6.753,7.494,13.473,9.867,20.855C925.044,652.731,925.234,654.048,925.516,655.332Zm-5.753-.13a26.9,26.9,0,0,0-.756-3.3c-.123-.351-.965-.8-1.211-.679a1.879,1.879,0,0,0-.807,1.3,5.84,5.84,0,0,0,.347,1.582c.534,3.062-.5,4.545-3.45,5.165-.436.091-.767.681-1.147,1.038.453.336.894.941,1.364.965C917.393,661.436,919.63,658.934,919.764,655.2Z" transform="translate(-877.089 -629.78)" fill="#3468b0"/>
    <path id="Path_17180" data-name="Path 17180" d="M1089.11,1131.035c3.411-3.534,6.733-7.1,10.209-10.511a3.983,3.983,0,0,1,5.573.287,4.024,4.024,0,0,1,.181,5.476,7.471,7.471,0,0,1-2.473,1.82c-2.281,1.027-4.67,1.812-6.948,2.846a6.141,6.141,0,0,1-4.976.432A9,9,0,0,0,1089.11,1131.035Z" transform="translate(-1047.116 -1075.136)" fill="#3468b0"/>
    <path id="Path_17181" data-name="Path 17181" d="M1026.152,870.128c-.133,3.731-2.37,6.233-5.658,6.071-.469-.023-.906-.629-1.364-.965.38-.362.711-.948,1.147-1.038,2.947-.616,3.987-2.1,3.45-5.165a5.947,5.947,0,0,1-.347-1.582,1.883,1.883,0,0,1,.806-1.3c.247-.124,1.087.327,1.212.679A27.667,27.667,0,0,1,1026.152,870.128Z" transform="translate(-983.477 -844.705)" fill="#fff"/>
  </g>
</svg>
