<svg xmlns="http://www.w3.org/2000/svg" xmlns:xlink="http://www.w3.org/1999/xlink" width="209" height="227.832" viewBox="0 0 209 227.832">
  <defs>
    <clipPath id="clip-path"/>
  </defs>
  <g id="Group_1" data-name="Group 1" transform="translate(0 0)" clip-path="url(#clip-path)">
    <path id="Path_1" data-name="Path 1" d="M332.322,33.847c6.791,4.687,12.116,9.782,15.37,16.572,9.559,19.953,6.534,38.667-5.977,56.3-9.752,13.748-23.286,22.952-37.781,30.864-10.769,5.879-21.862,11.168-32.62,17.066-11.715,6.422-22.839,13.652-28.944,26.44-.456-2.506.631-4.561,1.593-6.587,4.536-9.548,11.926-16.65,20.191-22.876,9.113-6.865,18.919-12.694,28.64-18.653,13.935-8.542,27.244-17.922,37.168-31.23,8.438-11.315,12.044-23.87,8.483-37.854-1.64-6.438-4.888-12.114-10.381-16.117-9.883-7.2-20.376-5.707-30.729-1.422a56.043,56.043,0,0,0-19.689,14.17c-2.182,2.37-3.507,2.731-5.908.213-5.711-5.989-5.85-5.878.125-11.9,9.113-9.182,19.74-15.7,32.476-18.59,3.724-.845,7.466-.671,11.217-.743.85-.017,2.066.064,2.466-.427.789-.97-.395-1.783-.885-2.583-5.233-8.549-3.685-18.052,3.833-23.367,5.467-3.865,13.589-4.247,19.179-.59,5.887,3.851,8.521,9.525,7.544,16.456-1.016,7.207-5.1,12.1-12.309,14.069-.715.2-1.436.368-3.063.783" transform="translate(-144.321 0)" fill="#1aa9a0"/>
    <path id="Path_2" data-name="Path 2" d="M114.313,127.835c-3.829-14.966.679-27.019,9.886-37.846-.736-1.409-2.042-.879-3.038-1.012-9.9-1.321-16.276-10.423-14.341-20.558,1.744-9.136,11.043-14.926,20.581-12.813a16.74,16.74,0,0,1,12.427,21.051c-1.077,3.841-1.057,3.916,2.752,2.91,12.762-3.373,24.008-.268,34.065,7.9a86.359,86.359,0,0,1,11.563,10.678c1.38,1.616,1.643,2.738.325,4.521-5.2,7.033-5.771,7.009-11.487.575a62.761,62.761,0,0,0-14.051-12.337c-12.659-7.725-29.57-2.122-37.907,7.313a38.339,38.339,0,0,0-10,26.414,16.841,16.841,0,0,1-.091,1.873,7.017,7.017,0,0,1-.687,1.327" transform="translate(-63.429 -32.867)" fill="#d74b7f"/>
    <path id="Path_3" data-name="Path 3" d="M173.72,305.572c-.284-13.137-6.6-23.042-15.359-32.139-7.952-8.262-16.093-16.564-20.225-27.72a45.526,45.526,0,0,1-1.39-28.764c.314-1.123.269-2.5,2.03-3.526,0,3.519-.121,6.714.023,9.9a50.79,50.79,0,0,0,7.809,25.188c.517.822.913,2.029,2.026,2.03,1.341,0,1.163-1.4,1.51-2.27,2.222-5.549,6.844-8.2,12.512-7.158,5.342.984,8.671,5.3,8.57,11.11-.1,5.477-3.735,9.54-9.362,10.492-.923.156-2.252-.312-2.579.962-.273,1.066.749,1.78,1.412,2.5a77.289,77.289,0,0,1,10.159,13.468,31.766,31.766,0,0,1,2.864,25.924" transform="translate(-80.45 -127.141)" fill="#31ade0"/>
    <path id="Path_4" data-name="Path 4" d="M235.077,216.442l4.3-4.136c.133-.128.258-.262.4-.386,2.2-1.964,4.289-2.162,7.083-.669.249.133.49.276.717.428a16.439,16.439,0,0,0,10.012,2.616c5.326-.159,10.671.039,16-.06,3.965-.073,7.927-.169,11.893-.141,1.719.013,1.774.052,1.8,1.31.036,1.77.036,1.772-2.344,1.776-8.73.015-17.461.089-26.189.008a32.011,32.011,0,0,1-8.095-.686,26.305,26.305,0,0,1-5.282-1.963c-1.808-.942-2.653-.847-3.93.5-1.429,1.509-2.808,3.043-4.217,4.562a4.434,4.434,0,0,1-.813.757,3.906,3.906,0,0,1-3.328.809,2.234,2.234,0,0,1-1.673-2.148c-.441-3.588-.769-7.181-.86-10.786-.1-3.958-.318-7.914-.488-11.871-.008-.186.043-.389-.211-.568-.409.08-.41.361-.482.589-2.413,7.622-4.8,15.248-7.239,22.866-.762,2.382-1.615,4.749-2.5,7.107a6.591,6.591,0,0,1-1.162,1.833,2.841,2.841,0,0,1-4.422-.107c-1.064-1.466-1.355-3.122-1.928-4.706-.507-1.4-.9-2.823-1.361-4.232-.344-1.049-1-1.229-2.3-.644-.637.288-1.264.589-1.886.894a19.056,19.056,0,0,1-8.553,1.654c-6.128-.01-12.257-.024-18.386.017-1.333.008-1.772-.309-1.736-1.283.068-1.815,0-1.818,2.507-1.818,5.908,0,11.818-.063,17.724.028a12.186,12.186,0,0,0,7.3-2.055,10.405,10.405,0,0,1,2.92-1.473c2.345-.693,3.938-.272,5.2,1.355a9.424,9.424,0,0,1,1.278,2.836,26.645,26.645,0,0,1,1.29,4.537,1.167,1.167,0,0,0,.526.923c.515-1.776.966-3.462,1.495-5.135q2.3-7.291,4.66-14.574c1.443-4.445,2.927-8.884,4.4-13.325a6.926,6.926,0,0,1,1.673-2.817,2.676,2.676,0,0,1,1.64-.714,1.965,1.965,0,0,1,2.306,1.024,5.476,5.476,0,0,1,.691,2.35c.189,3.377.514,6.747.622,10.129.15,4.7.467,9.393.5,14.093a1.873,1.873,0,0,0,.444,1.289" transform="translate(-105.977 -111.708)" fill="#ec1c24"/>
    <text id="home_Cure" data-name="home Cure" transform="translate(0 215.832)" fill="#d74b7f" font-size="43" font-family="Oswald-SemiBold, Oswald" font-weight="600"><tspan x="0" y="0">home Cure</tspan></text>
  </g>
</svg>
