<svg xmlns="http://www.w3.org/2000/svg" xmlns:xlink="http://www.w3.org/1999/xlink" width="37.801" height="29.696" viewBox="0 0 37.801 29.696">
  <defs>
    <clipPath id="clip-path">
      <rect id="Rectangle_206" data-name="Rectangle 206" width="37.801" height="29.696" fill="#8bd3cf"/>
    </clipPath>
  </defs>
  <g id="Group_286" data-name="Group 286" clip-path="url(#clip-path)">
    <path id="Path_531" data-name="Path 531" d="M32.343,0H5.457A5.463,5.463,0,0,0,0,5.458v18.78A5.464,5.464,0,0,0,5.457,29.7H32.343A5.465,5.465,0,0,0,37.8,24.238V5.458A5.464,5.464,0,0,0,32.343,0m0,2.609a2.843,2.843,0,0,1,.649.077L21.649,15.556a3.663,3.663,0,0,1-5.5,0L4.809,2.686a2.841,2.841,0,0,1,.648-.077Zm2.849,21.629a2.852,2.852,0,0,1-2.849,2.849H5.457a2.852,2.852,0,0,1-2.849-2.849V5.458a2.846,2.846,0,0,1,.214-1.08l11.373,12.9a6.274,6.274,0,0,0,9.411,0l11.372-12.9a2.819,2.819,0,0,1,.214,1.079Z" transform="translate(0 0)" fill="#8bd3cf"/>
  </g>
</svg>
