<svg id="Group_208" data-name="Group 208" xmlns="http://www.w3.org/2000/svg" xmlns:xlink="http://www.w3.org/1999/xlink" width="36.175" height="32.658" viewBox="0 0 36.175 32.658">
  <defs>
    <clipPath id="clip-path">
      <rect id="Rectangle_162" data-name="Rectangle 162" width="36.175" height="32.658" fill="#fff"/>
    </clipPath>
  </defs>
  <g id="Group_207" data-name="Group 207" clip-path="url(#clip-path)">
    <path id="Path_487" data-name="Path 487" d="M36.176,9.26a.936.936,0,0,1-.9.414c-1.73-.013-3.461-.006-5.192-.006h-.421v.482q0,8.67,0,17.341A4.911,4.911,0,0,1,26.768,32.2a5.756,5.756,0,0,1-2.649.453c-6.381-.006-12.762.025-19.142-.016A4.935,4.935,0,0,1,.011,27.778c-.018-.93-.008-1.86,0-2.79,0-.54.214-.751.747-.752q1.978,0,3.956,0h.44c0-.171,0-.319,0-.467q.072-9.995.145-19.989A3.659,3.659,0,0,1,8.456.04,4.342,4.342,0,0,1,9.159,0q11.5,0,22.992,0a3.823,3.823,0,0,1,3.972,3.238.316.316,0,0,0,.053.087ZM6.309,24.235h13.76c.7,0,.87.174.871.878,0,.789.005,1.577,0,2.366a3.9,3.9,0,0,0,1.548,3.247,3.749,3.749,0,0,0,5.015-.5,4.1,4.1,0,0,0,.986-2.754q-.014-11.671-.009-23.342a4.1,4.1,0,0,1,.611-2.281c.137-.214.292-.417.482-.686H16.037c-2.272,0-4.544,0-6.815,0A2.651,2.651,0,0,0,6.963,2.174a2.776,2.776,0,0,0-.508,1.76Q6.383,13.892,6.31,23.85c0,.115,0,.229,0,.385M1.226,25.426a23.626,23.626,0,0,0,.02,2.861,3.809,3.809,0,0,0,3.916,3.206c5.31-.032,10.62-.01,15.93-.011.114,0,.228-.011.4-.019-.1-.106-.157-.173-.219-.235a4.538,4.538,0,0,1-1.414-2.775c-.088-.863-.057-1.738-.078-2.608,0-.136,0-.273,0-.419ZM34.961,8.467c0-1.712.1-3.411-.029-5.093a2.58,2.58,0,0,0-3.284-2.1,2.685,2.685,0,0,0-1.981,2.686c-.01,1.413,0,2.825,0,4.238a2.668,2.668,0,0,0,.026.267Z" transform="translate(0 0)" fill="#fff"/>
    <path id="Path_488" data-name="Path 488" d="M173.051,58.884a24.438,24.438,0,0,1-.125,2.6,4.152,4.152,0,0,1-1.792,2.845c-.933.656-1.883,1.287-2.818,1.939a.711.711,0,0,1-.906,0c-.937-.65-1.9-1.27-2.819-1.937a4.358,4.358,0,0,1-1.886-3.608c-.026-1.317,0-2.635-.01-3.952a.739.739,0,0,1,.47-.745q2.139-1.039,4.269-2.1a.881.881,0,0,1,.84,0q2.146,1.065,4.3,2.116a.713.713,0,0,1,.449.722c-.014.705,0,1.411,0,2.117h.035m-9.181.219c0,.518-.007,1.035,0,1.553a3.268,3.268,0,0,0,1.47,2.781c.763.529,1.535,1.047,2.294,1.582a.316.316,0,0,0,.432,0c.77-.54,1.553-1.061,2.325-1.6a3.226,3.226,0,0,0,1.451-2.719c.02-1.141,0-2.282.009-3.423a.386.386,0,0,0-.258-.4c-1.172-.57-2.337-1.157-3.512-1.722a.583.583,0,0,0-.445,0c-1.176.564-2.339,1.152-3.513,1.719a.4.4,0,0,0-.258.436c.012.6,0,1.2,0,1.8" transform="translate(-150.756 -49.873)" fill="#fff"/>
    <path id="Path_489" data-name="Path 489" d="M140.533,285.47H133.86c-.106,0-.212.006-.318,0a.588.588,0,1,1,0-1.175,2.439,2.439,0,0,1,.247,0h13.487c.059,0,.118,0,.177,0,.439.019.69.236.69.592s-.253.585-.692.587c-1.141.007-2.283,0-3.425,0h-3.5" transform="translate(-123.185 -263.43)" fill="#fff"/>
    <path id="Path_490" data-name="Path 490" d="M140.615,247.487q3.424,0,6.849,0c.455,0,.709.195.72.549a.526.526,0,0,1-.445.586,2.187,2.187,0,0,1-.456.032q-6.69,0-13.38,0a2.586,2.586,0,0,1-.456-.03.523.523,0,0,1-.461-.541.543.543,0,0,1,.465-.578,1.732,1.732,0,0,1,.387-.019h6.778" transform="translate(-123.228 -229.329)" fill="#fff"/>
    <path id="Path_491" data-name="Path 491" d="M203.058,118.011c.618-.62,1.188-1.194,1.762-1.764a1.386,1.386,0,0,1,.327-.263.571.571,0,0,1,.742.806,1.533,1.533,0,0,1-.224.27q-1.019,1.025-2.042,2.045c-.414.412-.695.409-1.109,0q-.462-.46-.917-.927c-.341-.35-.377-.694-.108-.954s.605-.209.954.142c.2.2.387.408.615.649" transform="translate(-186.541 -107.411)" fill="#fff"/>
  </g>
</svg>
