<svg xmlns="http://www.w3.org/2000/svg" xmlns:xlink="http://www.w3.org/1999/xlink" width="40.362" height="57.489" viewBox="0 0 40.362 57.489">
  <defs>
    <clipPath id="clip-path">
      <rect id="Rectangle_73" data-name="Rectangle 73" width="40.362" height="57.489" fill="#1aa9a0"/>
    </clipPath>
  </defs>
  <g id="Group_71" data-name="Group 71" transform="translate(0 0)">
    <g id="Group_70" data-name="Group 70" transform="translate(0 0)" clip-path="url(#clip-path)">
      <path id="Path_102" data-name="Path 102" d="M14.624,36.979A25.03,25.03,0,0,1,4.813,33.7a1.1,1.1,0,0,1-.653-1.059c.031-5.194-.074-10.392.124-15.58A13.843,13.843,0,0,1,9.256,6.536.6.6,0,0,0,9.435,5.8c-.409-1.5-.818-3-1.218-4.5-.225-.848.1-1.3.977-1.3Q20.141,0,31.088,0c.876,0,1.185.432.962,1.305-.385,1.505-.794,3-1.153,4.516a.852.852,0,0,0,.2.706,14.2,14.2,0,0,1,4.89,10.027c.209,2.735.129,5.492.15,8.239.021,2.567-.012,5.134.016,7.7a1.331,1.331,0,0,1-.814,1.336,26.014,26.014,0,0,1-9.533,3.171c-.036,0-.069.037-.134.073.09.5.466.5.857.522a14.419,14.419,0,0,1,7.143,2.032A13.609,13.609,0,0,1,40.1,49.457a53.264,53.264,0,0,1,.264,7.072c.013.653-.373.954-1.064.956-2,.005-4,0-6,0H1.4c-1.189,0-1.41-.213-1.4-1.418.025-2.08-.06-4.172.128-6.238A13.7,13.7,0,0,1,11.221,37.839c.851-.153,1.728-.158,2.586-.279a4.207,4.207,0,0,0,.9-.345l-.087-.236M9.738,19.539a57.669,57.669,0,0,0,.359,6.436,10.277,10.277,0,0,0,20.194-.141,48.316,48.316,0,0,0,.213-6.287c0-.128-.253-.335-.421-.379a8.292,8.292,0,0,1-4.365-2.8c-.554-.662-1.094-1.336-1.662-2.029-4.1,3.449-9.006,4.62-14.318,5.2M38.7,55.757a49.046,49.046,0,0,0-.227-6.06,12.087,12.087,0,0,0-10.239-10.23,1.017,1.017,0,0,0-.974.275c-2.878,2.631-5.775,5.242-8.647,7.88a1.25,1.25,0,0,0-.366.816c-.029,2.263-.017,4.526-.015,6.788,0,.175.023.349.036.53Zm-22.168.061v-.7c0-2.363.011-4.727-.008-7.09a1.553,1.553,0,0,1,.579-1.319c.6-.5,1.15-1.063,1.71-1.588a.679.679,0,0,0-.076-.152c-1.972-1.795-3.942-3.593-5.928-5.372a.823.823,0,0,0-.6-.136,12.285,12.285,0,0,0-7.938,4.567c-2.847,3.493-2.767,7.6-2.561,11.791Zm-6.5-47.759c-2.89,2.759-3.968,6.133-4.154,9.934a40.475,40.475,0,0,0,7.5-.678,19.228,19.228,0,0,0,10.046-4.733c.564-.542,1.006-.43,1.516.193a36.165,36.165,0,0,0,2.718,3.162c1.855,1.8,4.21,2.129,6.729,2.044-.213-3.811-1.274-7.191-4.159-9.913-.227.8-.426,1.5-.622,2.2-.286,1.021-.649,1.205-1.634.8a21.714,21.714,0,0,0-6.153-1.5,19.946,19.946,0,0,0-9.648,1.553c-.828.34-1.244.128-1.49-.735-.209-.737-.411-1.475-.648-2.325m2.09,1.264A23.082,23.082,0,0,1,20.11,7.828,22.863,22.863,0,0,1,28.14,9.32l2.028-7.592H10.1l2.028,7.6m8.008,34.542,5.286-4.758c-1.69-.8-1.528-2.291-1.516-3.764a12.27,12.27,0,0,1-7.469.018c-.046.767-.034,1.476-.145,2.165a2.258,2.258,0,0,1-1.375,1.6l5.219,4.735m-5.512-8.459c.082-.746.079-.741-.389-1.015a11.363,11.363,0,0,1-5.849-8.325,48.881,48.881,0,0,1-.244-5.676c-.008-.233,0-.465,0-.657H5.919a1.668,1.668,0,0,0-.052.252c0,4-.011,8,.014,12a.842.842,0,0,0,.437.6c1.584.7,3.162,1.428,4.793,2a31.557,31.557,0,0,0,3.513.816M32.158,19.6v.7c0,1.273.034,2.547-.012,3.817a11.706,11.706,0,0,1-6.091,10.226c-.4.235-.564.466-.364.919.168-.017.327-.028.486-.049a24.455,24.455,0,0,0,7.775-2.58.787.787,0,0,0,.505-.829c-.016-3.818-.01-7.637-.01-11.454v-.62L32.158,19.6" transform="translate(0 0)" fill="#1aa9a0"/>
      <path id="Path_103" data-name="Path 103" d="M42.982,73.532c.686,0,1.372-.01,2.059,0a.9.9,0,0,1,.971.864.861.861,0,0,1-.956.863q-2.089.021-4.178,0a.881.881,0,0,1-.973-.854c0-.515.395-.867,1.018-.876.686-.01,1.372,0,2.059,0" transform="translate(-14.047 -25.883)" fill="#1aa9a0"/>
      <path id="Path_104" data-name="Path 104" d="M10.773,65.408c.183.155.524.309.619.557a1.014,1.014,0,0,1-.121.873c-.7.78-1.451,1.509-2.208,2.231a.714.714,0,0,1-1.083-.009c-.192-.23-.35-.8-.221-.938.818-.9,1.72-1.734,2.6-2.58.065-.062.187-.063.414-.134" transform="translate(-2.715 -23.024)" fill="#1aa9a0"/>
      <path id="Path_105" data-name="Path 105" d="M28.951,6.666C27.767,6.491,27.48,6.3,27.5,5.736c.018-.55.315-.753,1.334-.883.082-.637.011-1.5,1-1.437.845.052.829.791.823,1.439.636.111,1.444-.081,1.466.9.012.562-.345.793-1.326.885-.1.624,0,1.5-1,1.439-.862-.051-.8-.807-.842-1.411" transform="translate(-9.68 -1.201)" fill="#1aa9a0"/>
    </g>
  </g>
</svg>
