<svg id="Group_215" data-name="Group 215" xmlns="http://www.w3.org/2000/svg" xmlns:xlink="http://www.w3.org/1999/xlink" width="48.508" height="46.496" viewBox="0 0 48.508 46.496">
  <defs>
    <clipPath id="clip-path">
      <rect id="Rectangle_165" data-name="Rectangle 165" width="48.508" height="46.496" fill="#1aa9a0"/>
    </clipPath>
  </defs>
  <g id="Group_214" data-name="Group 214" clip-path="url(#clip-path)">
    <path id="Path_493" data-name="Path 493" d="M33.928,31.833c-.7.981.219,1.661.373,2.55.2-.117.342-.2.482-.284a6.685,6.685,0,1,1,2.891,12.35,6.345,6.345,0,0,1-5.252-3.483c-.457-.873-.76-1.827-1.132-2.745-.1-.238-.188-.478-.319-.812-.106.217-.179.344-.233.479-.356.888-.679,1.79-1.068,2.663a6.688,6.688,0,1,1-2.578-8.444c.131.079.259.16.433.268.243-.561.475-1.081.688-1.607a.779.779,0,0,0,0-.352.827.827,0,0,0-.076-.193L25.356,25.1c-.109.226-.179.394-.268.552q-1.569,2.8-3.142,5.592a1.146,1.146,0,0,1-1.125.593q-9.849-.016-19.7-.008C.274,31.832.008,31.56.007,30.7c0-.958,0-1.917,0-2.875,0-.673.254-.941.921-1.014A1.673,1.673,0,0,0,.935,23.47C.266,23.4.013,23.129.008,22.462c-.006-.749-.01-1.5,0-2.248a.839.839,0,0,1,.845-.928,1.674,1.674,0,0,0,0-3.348.829.829,0,0,1-.841-.878c-.016-.8-.014-1.6,0-2.4a.83.83,0,0,1,.821-.9,1.675,1.675,0,1,0-.01-3.35.847.847,0,0,1-.814-.959C0,6.473,0,5.5.007,4.521c0-.86.266-1.129,1.117-1.129q4.441,0,8.883,0c2.891,0,5.783-.006,8.674.007a.776.776,0,0,0,.814-.455A6.338,6.338,0,0,1,22.618.133a.862.862,0,0,1,1.323.546c.306.777.61,1.555.893,2.34a.469.469,0,0,0,.517.38q5.539-.018,11.077,0a.483.483,0,0,0,.525-.374c.3-.778.624-1.549.947-2.318.3-.716.688-.867,1.406-.549a6.4,6.4,0,0,1,3.112,2.828.7.7,0,0,0,.734.413c1.428-.016,2.856-.009,4.285-.006.781,0,1.063.288,1.065,1.076,0,.976.005,1.952,0,2.927,0,.674-.256.944-.919,1.016a1.673,1.673,0,0,0-.011,3.341c.673.074.925.339.931,1q.01,1.1,0,2.2a.86.86,0,0,1-.9.986,1.673,1.673,0,0,0-.005,3.344.858.858,0,0,1,.9.98q.012,1.124,0,2.248a.85.85,0,0,1-.872.956,1.673,1.673,0,0,0,0,3.346.848.848,0,0,1,.872.956c.009,1.01.007,2.021,0,3.032,0,.741-.3,1.03-1.059,1.031q-6.479,0-12.959,0h-.556M1.679,30.16h17.7c1.383,0,1.385,0,2.075-1.2a108.42,108.42,0,0,0,5.207-10.808c1.187-2.727,2.324-5.475,3.479-8.216.169-.4.41-.7.881-.681a.874.874,0,0,1,.821.751c.028.1.06.2.091.3l.949,2.975L36.145,5.1H1.709V6.829c.09.041.152.073.216.1a3.355,3.355,0,0,1,2.254,3.091A3.4,3.4,0,0,1,2,13.228a.68.68,0,0,0-.312.429,3.036,3.036,0,0,0-.013.694c.2.083.35.136.491.2a3.208,3.208,0,0,1,2,3A3.089,3.089,0,0,1,2.274,20.6a.827.827,0,0,0-.6,1c.012.085.011.173.016.264a7.9,7.9,0,0,1,.848.405A3.208,3.208,0,0,1,4.163,25.34,3.273,3.273,0,0,1,2.1,28.246c-.161.074-.385.23-.4.366-.048.5-.019,1-.019,1.548M39.211,2.012c-.052.105-.095.178-.126.255Q33.871,15.3,28.668,28.332a.968.968,0,0,0,.018.635c.385,1.044.818,2.071,1.191,3.119a1.414,1.414,0,0,1,.044.9c-.4,1.055-.853,2.094-1.32,3.123a.809.809,0,0,1-1.347.257c-.107-.089-.2-.193-.3-.287a5.016,5.016,0,1,0,1.386,5.331q5.071-13,10.13-26.008c.959-2.463,1.943-4.917,2.863-7.395a4.945,4.945,0,0,0-2.118-5.992M43.23,5.091A7.741,7.741,0,0,1,42.738,9.1Q39.15,18.234,35.6,27.38c-.353.9-.7,1.809-1.07,2.752h12.3c0-.529.016-1.031-.012-1.531a.469.469,0,0,0-.266-.306,3.227,3.227,0,0,1-2.206-3.173,3.163,3.163,0,0,1,2.2-3.113c.327-.126.3-.338.282-.574s.126-.534-.271-.687a3.166,3.166,0,0,1-2.21-3.158,3.16,3.16,0,0,1,2.2-3.111c.364-.139.279-.387.278-.629s.091-.492-.274-.632a3.165,3.165,0,0,1-2.206-3.16,3.219,3.219,0,0,1,2.2-3.124c.11-.045.266-.161.27-.25.025-.531.013-1.064.013-1.591ZM32.725,34.836c-.312.791-.58,1.445-.821,2.108a.645.645,0,0,0,.061.4c.562,1.459,1.106,2.925,1.7,4.369a4.983,4.983,0,0,0,5.744,2.982,5.014,5.014,0,0,0-1.761-9.862,5.146,5.146,0,0,0-2.9,1.418c-.624.593-1.2.469-1.552-.321-.142-.316-.278-.635-.478-1.092M28.7,17.692c-.79,1.778-1.538,3.458-2.281,5.139a.371.371,0,0,0-.039.246c.407,1.054.823,2.1,1.277,3.254.748-1.869,1.452-3.624,2.146-5.383a.6.6,0,0,0-.006-.392c-.345-.926-.705-1.847-1.1-2.863m2.1.8c.375-.938.71-1.774,1.04-2.612a.416.416,0,0,0,.037-.25c-.317-.991-.643-1.98-1.011-3.106-.426,1.023-.8,1.9-1.151,2.78a.607.607,0,0,0,.014.4c.334.893.682,1.781,1.071,2.788M22.618,1.916l-1.5,1.436h2.062l-.558-1.436" transform="translate(0 0)" fill="#1aa9a0"/>
    <path id="Path_494" data-name="Path 494" d="M71.62,99.48l-1.355-.98,8.907-12.455,1.361.969L71.62,99.48" transform="translate(-60.454 -74.031)" fill="#1aa9a0"/>
    <path id="Path_495" data-name="Path 495" d="M109.408,141.789a3.077,3.077,0,1,1-3.061,3.045,3.078,3.078,0,0,1,3.061-3.045m-1.387,3.067a1.46,1.46,0,0,0,1.484,1.431,1.426,1.426,0,0,0,1.325-1.41,1.4,1.4,0,0,0-2.809-.021" transform="translate(-91.498 -121.992)" fill="#1aa9a0"/>
    <path id="Path_496" data-name="Path 496" d="M68.5,88.533a3.069,3.069,0,1,1,3.062-3.045A3.043,3.043,0,0,1,68.5,88.533m-.019-1.678a1.391,1.391,0,0,0,.057-2.781,1.391,1.391,0,1,0-.057,2.781" transform="translate(-56.278 -70.89)" fill="#1aa9a0"/>
    <path id="Path_497" data-name="Path 497" d="M143.175,263.5a4.178,4.178,0,0,1,0-8.357,4.178,4.178,0,1,1,0,8.357m.018-1.679a2.483,2.483,0,0,0,2.491-2.481,2.5,2.5,0,1,0-5-.033,2.479,2.479,0,0,0,2.506,2.514" transform="translate(-119.606 -219.523)" fill="#1aa9a0"/>
    <path id="Path_498" data-name="Path 498" d="M248.336,263.5a4.175,4.175,0,1,1,4.164-4.137,4.181,4.181,0,0,1-4.164,4.137m2.51-4.193a2.5,2.5,0,0,0-2.489-2.491,2.54,2.54,0,0,0-2.516,2.533,2.509,2.509,0,0,0,2.558,2.476,2.47,2.47,0,0,0,2.446-2.518" transform="translate(-210.056 -219.525)" fill="#1aa9a0"/>
  </g>
</svg>
