<svg xmlns="http://www.w3.org/2000/svg" width="30.718" height="31.446" viewBox="0 0 30.718 31.446">
  <path id="Path_27" data-name="Path 27" d="M11.458,0H17.8a1.525,1.525,0,0,1,1.076,1.38c.11,1,.285,1.992.423,2.989a.42.42,0,0,0,.245.354c.523.284,1.037.585,1.544.9a.416.416,0,0,0,.428.038c.966-.4,1.936-.785,2.907-1.17a1.343,1.343,0,0,1,1.841.642Q27.636,7.5,29,9.875a1.373,1.373,0,0,1-.391,1.962C27.8,12.469,27,13.1,26.183,13.729a.419.419,0,0,0-.18.392c.014.6.016,1.191,0,1.787a.441.441,0,0,0,.191.416c.822.631,1.637,1.271,2.452,1.912a1.355,1.355,0,0,1,.379,1.894q-1.379,2.4-2.772,4.8a1.34,1.34,0,0,1-1.846.627c-.961-.383-1.923-.765-2.881-1.157a.44.44,0,0,0-.455.033c-.505.314-1.022.611-1.543.9a.4.4,0,0,0-.232.33c-.141,1.026-.3,2.05-.44,3.075a1.353,1.353,0,0,1-1.47,1.312q-2.758,0-5.516,0A1.357,1.357,0,0,1,10.4,28.734c-.14-1.026-.3-2.05-.439-3.076a.4.4,0,0,0-.232-.331c-.53-.292-1.044-.612-1.575-.9a.526.526,0,0,0-.391-.033c-.974.376-1.941.773-2.911,1.159a1.337,1.337,0,0,1-1.845-.626Q1.621,22.545.248,20.157a1.367,1.367,0,0,1,.385-1.939c.809-.632,1.615-1.268,2.43-1.893a.441.441,0,0,0,.19-.416c-.017-.6-.015-1.191,0-1.787a.418.418,0,0,0-.18-.392c-.806-.619-1.6-1.249-2.406-1.875a1.382,1.382,0,0,1-.4-2Q1.619,7.5,2.979,5.158A1.368,1.368,0,0,1,4.865,4.5c.961.383,1.924.764,2.881,1.157a.416.416,0,0,0,.428-.035c.507-.312,1.021-.613,1.544-.9a.422.422,0,0,0,.245-.354c.122-.891.243-1.781.384-2.669A4.919,4.919,0,0,1,10.605.66c.145-.365.515-.507.853-.659m8.17,15.036a5,5,0,1,0-5.006,4.987,5,5,0,0,0,5.006-4.987" transform="translate(0.727 0.699)" fill="none" stroke="#409ce6" stroke-width="1.4"/>
</svg>
