<svg xmlns="http://www.w3.org/2000/svg" xmlns:xlink="http://www.w3.org/1999/xlink" width="36.449" height="30" viewBox="0 0 36.449 30">
  <defs>
    <clipPath id="clip-path">
      <rect id="Rectangle_211" data-name="Rectangle 211" width="36.449" height="30" fill="#8bd3cf"/>
    </clipPath>
  </defs>
  <g id="Group_298" data-name="Group 298" transform="translate(0 0)">
    <g id="Group_297" data-name="Group 297" transform="translate(0 0)" clip-path="url(#clip-path)">
      <path id="Path_535" data-name="Path 535" d="M36.3,3.6a15.05,15.05,0,0,1-3.687,1.051c.593-.1,1.463-1.173,1.813-1.607A6.768,6.768,0,0,0,35.649.809c.032-.064.055-.143-.008-.192a.209.209,0,0,0-.2.016,18.79,18.79,0,0,1-4.371,1.672.291.291,0,0,1-.3-.08,3.549,3.549,0,0,0-.382-.39,7.716,7.716,0,0,0-2.118-1.3A7.367,7.367,0,0,0,25.027.015a7.758,7.758,0,0,0-3.08.87,7.938,7.938,0,0,0-2.485,2.03,7.631,7.631,0,0,0-1.484,2.973A8.045,8.045,0,0,0,17.9,9.026c.024.176.008.2-.151.176-6-.894-10.978-3.041-15.017-7.644-.176-.2-.27-.2-.414.015-1.768,2.649-.911,6.905,1.3,9,.3.279.6.558.923.812a7.656,7.656,0,0,1-2.9-.812c-.175-.111-.263-.047-.279.152a4.54,4.54,0,0,0,.048.86A7.7,7.7,0,0,0,6.155,17.72a4.529,4.529,0,0,0,.962.3,8.577,8.577,0,0,1-2.841.087c-.208-.04-.287.064-.208.263,1.251,3.409,3.95,4.423,5.972,5,.27.047.541.047.813.111-.017.025-.033.025-.048.047-.671,1.023-2.995,1.783-4.078,2.161a14.6,14.6,0,0,1-6.193.793c-.333-.049-.4-.045-.493,0s-.012.137.095.222c.423.279.853.527,1.29.765a20.361,20.361,0,0,0,4.14,1.657c7.44,2.054,15.821.544,21.408-5.006C31.36,19.757,32.9,13.746,32.9,7.728c0-.236.278-.365.443-.49a14.509,14.509,0,0,0,2.914-3.03.92.92,0,0,0,.192-.58V3.6c0-.1,0-.068-.149,0" transform="translate(0 0)" fill="#8bd3cf"/>
    </g>
  </g>
</svg>
